<svg width="237" height="68" viewBox="0 0 237 68" fill="none" xmlns="http://www.w3.org/2000/svg">
<rect x="8.1405" y="16.2864" width="221.063" height="50.7961" rx="14.2864" fill="#8E5602"/>
<mask id="path-2-outside-1_1051_1913" maskUnits="userSpaceOnUse" x="0" y="0" width="237" height="68" fill="black">
<rect fill="white" width="237" height="68"/>
<path d="M2 17.8738C2 9.10694 6.5821 2 12.2344 2H225.11C230.763 2 235.345 9.10694 235.345 17.8738V44.8592C235.345 53.6261 230.763 60.733 225.11 60.733H12.2344C6.58211 60.733 2 53.6261 2 44.8592V17.8738Z"/>
<path d="M77.9803 40.0971L73.8047 22.4962H75.6387L78.9137 37.5065L82.1887 22.4962H83.9572L79.7815 40.0971H77.9803Z"/>
<path d="M85.4743 40.0971V27.2203H87.0955V40.0971H85.4743ZM86.2931 24.9344C85.9765 24.9344 85.7254 24.799 85.5398 24.5281C85.3651 24.2402 85.2778 23.8677 85.2778 23.4106C85.2778 22.9534 85.3651 22.5894 85.5398 22.3184C85.7254 22.0306 85.9765 21.8867 86.2931 21.8867C86.6096 21.8867 86.8553 22.0306 87.0299 22.3184C87.2155 22.5894 87.3083 22.9534 87.3083 23.4106C87.3083 23.8677 87.2155 24.2402 87.0299 24.5281C86.8553 24.799 86.6096 24.9344 86.2931 24.9344Z"/>
<path d="M90.8107 34.2047C90.8325 35.6609 91.0618 36.7361 91.4984 37.4303C91.946 38.1245 92.6338 38.4716 93.5617 38.4716C94.4241 38.4716 95.3029 38.2092 96.1981 37.6843V39.4875C95.4121 40.1479 94.4514 40.4781 93.3161 40.4781C91.9733 40.4781 90.958 39.9024 90.2703 38.751C89.5825 37.5996 89.2387 35.8979 89.2387 33.646C89.2387 31.4956 89.5825 29.8278 90.2703 28.6426C90.958 27.4404 91.9187 26.8393 93.1523 26.8393C94.1894 26.8393 94.9863 27.2965 95.5431 28.2108C96.0998 29.1082 96.3782 30.3866 96.3782 32.0459C96.3782 32.8417 96.3345 33.5613 96.2472 34.2047H90.8107ZM93.0704 28.7442C92.3827 28.7442 91.8478 29.0659 91.4657 29.7093C91.0836 30.3358 90.8652 31.2755 90.8107 32.5285H94.8881C94.899 32.393 94.9044 32.1729 94.9044 31.8681C94.9044 30.8353 94.7461 30.0564 94.4296 29.5315C94.1239 29.0066 93.6708 28.7442 93.0704 28.7442Z"/>
<path d="M105.226 40.0971L103.457 30.0141L101.705 40.0971H100.067L97.3492 27.2203H99.0522L100.919 37.5319L102.687 27.2203H104.309L106.077 37.6589L107.993 27.2203H109.647L106.863 40.0971H105.226Z"/>
<path d="M117.233 33.2904V40.0971H115.612V22.4962H119.722C120.825 22.4962 121.703 22.9873 122.358 23.9693C123.013 24.9344 123.341 26.2467 123.341 27.906C123.341 29.5484 123.013 30.8607 122.358 31.8427C121.703 32.8078 120.825 33.2904 119.722 33.2904H117.233ZM117.233 31.2332H119.575C120.262 31.2332 120.781 30.9538 121.13 30.395C121.48 29.8193 121.654 28.9897 121.654 27.906C121.654 25.671 120.961 24.5535 119.575 24.5535H117.233V31.2332Z"/>
<path d="M125.349 40.0971V27.2203H126.708L126.888 29.1251C127.194 28.6172 127.477 28.2277 127.739 27.9568C128.001 27.669 128.269 27.4573 128.542 27.3219C128.815 27.1864 129.109 27.1187 129.426 27.1187C129.633 27.1187 129.857 27.1441 130.097 27.1949V29.4807C129.748 29.413 129.453 29.3791 129.213 29.3791C128.34 29.3791 127.592 29.7855 126.97 30.5982V40.0971H125.349Z"/>
<path d="M134.916 40.4781C133.672 40.4781 132.7 39.877 132.001 38.6748C131.303 37.4726 130.953 35.7964 130.953 33.646C130.953 31.5125 131.303 29.8447 132.001 28.6426C132.7 27.4404 133.672 26.8393 134.916 26.8393C136.161 26.8393 137.132 27.4404 137.831 28.6426C138.53 29.8447 138.879 31.5125 138.879 33.646C138.879 35.7964 138.53 37.4726 137.831 38.6748C137.132 39.877 136.161 40.4781 134.916 40.4781ZM134.916 38.4462C136.456 38.4462 137.225 36.8461 137.225 33.646C137.225 30.4628 136.456 28.8711 134.916 28.8711C133.377 28.8711 132.607 30.4628 132.607 33.646C132.607 36.8461 133.377 38.4462 134.916 38.4462Z"/>
<path d="M141.582 40.0971V29.2013H140.043V27.5758L141.582 27.2711V25.1884C141.582 22.3608 142.456 20.947 144.202 20.947C144.814 20.947 145.359 21.0993 145.84 21.4041V23.182C145.283 23.0465 144.857 22.9788 144.562 22.9788C144.06 22.9788 143.705 23.1312 143.498 23.436C143.302 23.7238 143.203 24.2064 143.203 24.8837V27.2203H148.64V40.0971H147.019V29.2013H143.203V40.0971H141.582ZM147.837 24.9344C147.521 24.9344 147.27 24.799 147.084 24.5281C146.91 24.2402 146.822 23.8677 146.822 23.4106C146.822 22.9534 146.91 22.5894 147.084 22.3184C147.27 22.0306 147.521 21.8867 147.837 21.8867C148.154 21.8867 148.4 22.0306 148.574 22.3184C148.76 22.5894 148.853 22.9534 148.853 23.4106C148.853 23.8677 148.76 24.2402 148.574 24.5281C148.4 24.799 148.154 24.9344 147.837 24.9344Z"/>
<path d="M154.176 39.9193C153.816 40.1225 153.423 40.2241 152.997 40.2241C152.419 40.2241 151.976 39.9701 151.671 39.4621C151.365 38.9372 151.212 38.1922 151.212 37.2271V21.3025H152.833V37.0747C152.833 37.4642 152.883 37.752 152.981 37.9383C153.09 38.1076 153.265 38.1922 153.505 38.1922C153.723 38.1922 153.947 38.1668 154.176 38.116V39.9193Z"/>
<path d="M157.11 34.2047C157.132 35.6609 157.361 36.7361 157.798 37.4303C158.245 38.1245 158.933 38.4716 159.861 38.4716C160.723 38.4716 161.602 38.2092 162.497 37.6843V39.4875C161.711 40.1479 160.751 40.4781 159.615 40.4781C158.272 40.4781 157.257 39.9024 156.569 38.751C155.882 37.5996 155.538 35.8979 155.538 33.646C155.538 31.4956 155.882 29.8278 156.569 28.6426C157.257 27.4404 158.218 26.8393 159.451 26.8393C160.489 26.8393 161.285 27.2965 161.842 28.2108C162.399 29.1082 162.677 30.3866 162.677 32.0459C162.677 32.8417 162.634 33.5613 162.546 34.2047H157.11ZM159.37 28.7442C158.682 28.7442 158.147 29.0659 157.765 29.7093C157.383 30.3358 157.164 31.2755 157.11 32.5285H161.187C161.198 32.393 161.204 32.1729 161.204 31.8681C161.204 30.8353 161.045 30.0564 160.729 29.5315C160.423 29.0066 159.97 28.7442 159.37 28.7442Z"/>
</mask>
<path d="M2 17.8738C2 9.10694 6.5821 2 12.2344 2H225.11C230.763 2 235.345 9.10694 235.345 17.8738V44.8592C235.345 53.6261 230.763 60.733 225.11 60.733H12.2344C6.58211 60.733 2 53.6261 2 44.8592V17.8738Z" fill="#FF9900"/>
<path d="M77.9803 40.0971L73.8047 22.4962H75.6387L78.9137 37.5065L82.1887 22.4962H83.9572L79.7815 40.0971H77.9803Z" fill="#FF9900"/>
<path d="M85.4743 40.0971V27.2203H87.0955V40.0971H85.4743ZM86.2931 24.9344C85.9765 24.9344 85.7254 24.799 85.5398 24.5281C85.3651 24.2402 85.2778 23.8677 85.2778 23.4106C85.2778 22.9534 85.3651 22.5894 85.5398 22.3184C85.7254 22.0306 85.9765 21.8867 86.2931 21.8867C86.6096 21.8867 86.8553 22.0306 87.0299 22.3184C87.2155 22.5894 87.3083 22.9534 87.3083 23.4106C87.3083 23.8677 87.2155 24.2402 87.0299 24.5281C86.8553 24.799 86.6096 24.9344 86.2931 24.9344Z" fill="#FF9900"/>
<path d="M90.8107 34.2047C90.8325 35.6609 91.0618 36.7361 91.4984 37.4303C91.946 38.1245 92.6338 38.4716 93.5617 38.4716C94.4241 38.4716 95.3029 38.2092 96.1981 37.6843V39.4875C95.4121 40.1479 94.4514 40.4781 93.3161 40.4781C91.9733 40.4781 90.958 39.9024 90.2703 38.751C89.5825 37.5996 89.2387 35.8979 89.2387 33.646C89.2387 31.4956 89.5825 29.8278 90.2703 28.6426C90.958 27.4404 91.9187 26.8393 93.1523 26.8393C94.1894 26.8393 94.9863 27.2965 95.5431 28.2108C96.0998 29.1082 96.3782 30.3866 96.3782 32.0459C96.3782 32.8417 96.3345 33.5613 96.2472 34.2047H90.8107ZM93.0704 28.7442C92.3827 28.7442 91.8478 29.0659 91.4657 29.7093C91.0836 30.3358 90.8652 31.2755 90.8107 32.5285H94.8881C94.899 32.393 94.9044 32.1729 94.9044 31.8681C94.9044 30.8353 94.7461 30.0564 94.4296 29.5315C94.1239 29.0066 93.6708 28.7442 93.0704 28.7442Z" fill="#FF9900"/>
<path d="M105.226 40.0971L103.457 30.0141L101.705 40.0971H100.067L97.3492 27.2203H99.0522L100.919 37.5319L102.687 27.2203H104.309L106.077 37.6589L107.993 27.2203H109.647L106.863 40.0971H105.226Z" fill="#FF9900"/>
<path d="M117.233 33.2904V40.0971H115.612V22.4962H119.722C120.825 22.4962 121.703 22.9873 122.358 23.9693C123.013 24.9344 123.341 26.2467 123.341 27.906C123.341 29.5484 123.013 30.8607 122.358 31.8427C121.703 32.8078 120.825 33.2904 119.722 33.2904H117.233ZM117.233 31.2332H119.575C120.262 31.2332 120.781 30.9538 121.13 30.395C121.48 29.8193 121.654 28.9897 121.654 27.906C121.654 25.671 120.961 24.5535 119.575 24.5535H117.233V31.2332Z" fill="#FF9900"/>
<path d="M125.349 40.0971V27.2203H126.708L126.888 29.1251C127.194 28.6172 127.477 28.2277 127.739 27.9568C128.001 27.669 128.269 27.4573 128.542 27.3219C128.815 27.1864 129.109 27.1187 129.426 27.1187C129.633 27.1187 129.857 27.1441 130.097 27.1949V29.4807C129.748 29.413 129.453 29.3791 129.213 29.3791C128.34 29.3791 127.592 29.7855 126.97 30.5982V40.0971H125.349Z" fill="#FF9900"/>
<path d="M134.916 40.4781C133.672 40.4781 132.7 39.877 132.001 38.6748C131.303 37.4726 130.953 35.7964 130.953 33.646C130.953 31.5125 131.303 29.8447 132.001 28.6426C132.7 27.4404 133.672 26.8393 134.916 26.8393C136.161 26.8393 137.132 27.4404 137.831 28.6426C138.53 29.8447 138.879 31.5125 138.879 33.646C138.879 35.7964 138.53 37.4726 137.831 38.6748C137.132 39.877 136.161 40.4781 134.916 40.4781ZM134.916 38.4462C136.456 38.4462 137.225 36.8461 137.225 33.646C137.225 30.4628 136.456 28.8711 134.916 28.8711C133.377 28.8711 132.607 30.4628 132.607 33.646C132.607 36.8461 133.377 38.4462 134.916 38.4462Z" fill="#FF9900"/>
<path d="M141.582 40.0971V29.2013H140.043V27.5758L141.582 27.2711V25.1884C141.582 22.3608 142.456 20.947 144.202 20.947C144.814 20.947 145.359 21.0993 145.84 21.4041V23.182C145.283 23.0465 144.857 22.9788 144.562 22.9788C144.06 22.9788 143.705 23.1312 143.498 23.436C143.302 23.7238 143.203 24.2064 143.203 24.8837V27.2203H148.64V40.0971H147.019V29.2013H143.203V40.0971H141.582ZM147.837 24.9344C147.521 24.9344 147.27 24.799 147.084 24.5281C146.91 24.2402 146.822 23.8677 146.822 23.4106C146.822 22.9534 146.91 22.5894 147.084 22.3184C147.27 22.0306 147.521 21.8867 147.837 21.8867C148.154 21.8867 148.4 22.0306 148.574 22.3184C148.76 22.5894 148.853 22.9534 148.853 23.4106C148.853 23.8677 148.76 24.2402 148.574 24.5281C148.4 24.799 148.154 24.9344 147.837 24.9344Z" fill="#FF9900"/>
<path d="M154.176 39.9193C153.816 40.1225 153.423 40.2241 152.997 40.2241C152.419 40.2241 151.976 39.9701 151.671 39.4621C151.365 38.9372 151.212 38.1922 151.212 37.2271V21.3025H152.833V37.0747C152.833 37.4642 152.883 37.752 152.981 37.9383C153.09 38.1076 153.265 38.1922 153.505 38.1922C153.723 38.1922 153.947 38.1668 154.176 38.116V39.9193Z" fill="#FF9900"/>
<path d="M157.11 34.2047C157.132 35.6609 157.361 36.7361 157.798 37.4303C158.245 38.1245 158.933 38.4716 159.861 38.4716C160.723 38.4716 161.602 38.2092 162.497 37.6843V39.4875C161.711 40.1479 160.751 40.4781 159.615 40.4781C158.272 40.4781 157.257 39.9024 156.569 38.751C155.882 37.5996 155.538 35.8979 155.538 33.646C155.538 31.4956 155.882 29.8278 156.569 28.6426C157.257 27.4404 158.218 26.8393 159.451 26.8393C160.489 26.8393 161.285 27.2965 161.842 28.2108C162.399 29.1082 162.677 30.3866 162.677 32.0459C162.677 32.8417 162.634 33.5613 162.546 34.2047H157.11ZM159.37 28.7442C158.682 28.7442 158.147 29.0659 157.765 29.7093C157.383 30.3358 157.164 31.2755 157.11 32.5285H161.187C161.198 32.393 161.204 32.1729 161.204 31.8681C161.204 30.8353 161.045 30.0564 160.729 29.5315C160.423 29.0066 159.97 28.7442 159.37 28.7442Z" fill="#FF9900"/>
<path d="M232.786 55.9709L233.447 56.4102L233.735 55.9775L233.453 55.5408L232.786 55.9709ZM7.66798 60.22L7.08118 60.7544L7.66798 60.22ZM228.167 61.931L227.658 61.3213L228.167 61.931ZM230.842 58.8956L230.181 58.4563L230.842 58.8956ZM217.946 67.0825V66.2888H18.3751V67.0825V67.8762H217.946V67.0825ZM5.24895 56.0588L5.99371 55.7844L4.79169 52.5217L4.04693 52.7961L3.30218 53.0705L4.50419 56.3332L5.24895 56.0588ZM18.3751 67.0825V66.2888C17.0489 66.2888 15.3244 65.5508 13.4674 64.2896C11.6389 63.0478 9.79467 61.3764 8.25479 59.6856L7.66798 60.22L7.08118 60.7544C8.68617 62.5168 10.623 64.2767 12.5756 65.6028C14.4998 66.9096 16.5564 67.8762 18.3751 67.8762V67.0825ZM228.167 61.931L227.658 61.3213C223.733 64.5935 220.53 66.2888 217.946 66.2888V67.0825V67.8762C221.139 67.8762 224.725 65.8327 228.675 62.5407L228.167 61.931ZM232.274 55.1772L231.607 55.6072L232.119 56.4009L232.786 55.9709L233.453 55.5408L232.941 54.7471L232.274 55.1772ZM232.786 55.9709L232.125 55.5316L230.181 58.4563L230.842 58.8956L231.503 59.3349L233.447 56.4102L232.786 55.9709ZM5.24895 56.0588L4.50419 56.3332C5.08798 57.9178 5.90234 59.46 7.08118 60.7544L7.66798 60.22L8.25479 59.6856C7.25249 58.5851 6.52974 57.2394 5.99371 55.7844L5.24895 56.0588ZM228.167 61.931L228.675 62.5407C229.785 61.6152 230.719 60.5155 231.503 59.3349L230.842 58.8956L230.181 58.4563C229.465 59.5335 228.63 60.5111 227.658 61.3213L228.167 61.931ZM77.9803 40.0971L76.4358 40.4635L76.7254 41.6845H77.9803V40.0971ZM73.8047 22.4962V20.9089H71.7966L72.2601 22.8627L73.8047 22.4962ZM75.6387 22.4962L77.1896 22.1579L76.917 20.9089H75.6387V22.4962ZM78.9137 37.5065L77.3628 37.8449H80.4646L78.9137 37.5065ZM82.1887 22.4962V20.9089H80.9103L80.6378 22.1579L82.1887 22.4962ZM83.9572 22.4962L85.5017 22.8627L85.9652 20.9089H83.9572V22.4962ZM79.7815 40.0971V41.6845H81.0364L81.3261 40.4635L79.7815 40.0971ZM85.4743 40.0971H83.8869V41.6845H85.4743V40.0971ZM85.4743 27.2203V25.6329H83.8869V27.2203H85.4743ZM87.0955 27.2203H88.6828V25.6329H87.0955V27.2203ZM87.0955 40.0971V41.6845H88.6828V40.0971H87.0955ZM85.5398 24.5281L84.1827 25.3516L84.2055 25.389L84.2302 25.4252L85.5398 24.5281ZM85.5398 22.3184L84.2057 21.4583V21.4583L85.5398 22.3184ZM87.0299 22.3184L85.6729 23.1419L85.6956 23.1794L85.7204 23.2155L87.0299 22.3184ZM87.0299 24.5281L85.6958 23.6679V23.6679L87.0299 24.5281ZM90.8107 34.2047V32.6174H89.1993L89.2235 34.2285L90.8107 34.2047ZM91.4984 37.4303L90.1548 38.2755L90.1595 38.283L90.1643 38.2905L91.4984 37.4303ZM96.1981 37.6843H97.7854V34.9134L95.3951 36.3149L96.1981 37.6843ZM96.1981 39.4875L97.2191 40.7029L97.7854 40.2272V39.4875H96.1981ZM90.2703 38.751L91.6331 37.937L90.2703 38.751ZM90.2703 28.6426L91.6433 29.4393L91.6481 29.4308L90.2703 28.6426ZM95.5431 28.2108L94.1872 29.0364L94.1942 29.0476L95.5431 28.2108ZM96.2472 34.2047V35.7921H97.6337L97.8201 34.4182L96.2472 34.2047ZM91.4657 29.7093L92.8209 30.5358L92.8258 30.5278L92.8305 30.5198L91.4657 29.7093ZM90.8107 32.5285L89.2248 32.4594L89.1526 34.1158H90.8107V32.5285ZM94.8881 32.5285V34.1158H96.3526L96.4703 32.656L94.8881 32.5285ZM94.4296 29.5315L93.0578 30.3303L93.064 30.3409L93.0703 30.3513L94.4296 29.5315ZM105.226 40.0971L103.662 40.3713L103.892 41.6845H105.226V40.0971ZM103.457 30.0141L105.021 29.7398L101.893 29.7423L103.457 30.0141ZM101.705 40.0971V41.6845H103.04L103.269 40.3689L101.705 40.0971ZM100.067 40.0971L98.5143 40.425L98.7802 41.6845H100.067V40.0971ZM97.3492 27.2203V25.6329H95.3917L95.796 27.5481L97.3492 27.2203ZM99.0522 27.2203L100.614 26.9375L100.378 25.6329H99.0522V27.2203ZM100.919 37.5319L99.357 37.8147L102.483 37.8002L100.919 37.5319ZM102.687 27.2203V25.6329H101.349L101.123 26.9519L102.687 27.2203ZM104.309 27.2203L105.874 26.9551L105.65 25.6329H104.309V27.2203ZM106.077 37.6589L104.512 37.924L107.638 37.9454L106.077 37.6589ZM107.993 27.2203V25.6329H106.67L106.432 26.9337L107.993 27.2203ZM109.647 27.2203L111.198 27.5557L111.614 25.6329H109.647V27.2203ZM106.863 40.0971V41.6845H108.144L108.415 40.4325L106.863 40.0971ZM117.233 33.2904V31.703H115.646V33.2904H117.233ZM117.233 40.0971V41.6845H118.82V40.0971H117.233ZM115.612 40.0971H114.024V41.6845H115.612V40.0971ZM115.612 22.4962V20.9089H114.024V22.4962H115.612ZM122.358 23.9693L121.038 24.8501L121.045 24.8607L122.358 23.9693ZM122.358 31.8427L123.672 32.7342L123.679 32.7235L122.358 31.8427ZM117.233 31.2332H115.646V32.8205H117.233V31.2332ZM121.13 30.395L122.476 31.2365L122.482 31.2276L122.487 31.2185L121.13 30.395ZM117.233 24.5535V22.9661H115.646V24.5535H117.233ZM125.349 40.0971H123.761V41.6845H125.349V40.0971ZM125.349 27.2203V25.6329H123.761V27.2203H125.349ZM126.708 27.2203L128.288 27.0708L128.152 25.6329H126.708V27.2203ZM126.888 29.1251L125.308 29.2746L125.762 34.0756L128.248 29.9436L126.888 29.1251ZM127.739 27.9568L128.88 29.0603L128.897 29.0431L128.913 29.0253L127.739 27.9568ZM128.542 27.3219L129.247 28.7437V28.7437L128.542 27.3219ZM130.097 27.1949H131.685V25.9081L130.426 25.6419L130.097 27.1949ZM130.097 29.4807L129.795 31.0391L131.685 31.4054V29.4807H130.097ZM126.97 30.5982L125.709 29.6332L125.382 30.0603V30.5982H126.97ZM126.97 40.0971V41.6845H128.557V40.0971H126.97ZM132.001 38.6748L130.629 39.4724L132.001 38.6748ZM132.001 28.6426L130.629 27.8449L132.001 28.6426ZM137.831 28.6426L139.203 27.8449L137.831 28.6426ZM137.831 38.6748L139.203 39.4724L137.831 38.6748ZM141.582 40.0971H139.995V41.6845H141.582V40.0971ZM141.582 29.2013H143.17V27.6139H141.582V29.2013ZM140.043 29.2013H138.456V30.7887H140.043V29.2013ZM140.043 27.5758L139.735 26.0187L138.456 26.272V27.5758H140.043ZM141.582 27.2711L141.891 28.8282L143.17 28.575V27.2711H141.582ZM145.84 21.4041H147.427V20.5314L146.69 20.0638L145.84 21.4041ZM145.84 23.182L145.464 24.7244L147.427 25.2019V23.182H145.84ZM143.498 23.436L144.809 24.3309L144.81 24.3291L143.498 23.436ZM143.203 27.2203H141.616V28.8077H143.203V27.2203ZM148.64 27.2203H150.227V25.6329H148.64V27.2203ZM148.64 40.0971V41.6845H150.227V40.0971H148.64ZM147.019 40.0971H145.431V41.6845H147.019V40.0971ZM147.019 29.2013H148.606V27.6139H147.019V29.2013ZM143.203 29.2013V27.6139H141.616V29.2013H143.203ZM143.203 40.0971V41.6845H144.791V40.0971H143.203ZM147.084 24.5281L145.727 25.3516L145.75 25.389L145.775 25.4252L147.084 24.5281ZM147.084 22.3184L145.75 21.4583V21.4583L147.084 22.3184ZM148.574 22.3184L147.217 23.1419L147.24 23.1794L147.265 23.2155L148.574 22.3184ZM148.574 24.5281L147.24 23.6679L148.574 24.5281ZM154.176 39.9193L154.956 41.3019L155.764 40.8465V39.9193H154.176ZM151.671 39.4621L150.299 40.261L150.305 40.2708L150.311 40.2806L151.671 39.4621ZM151.212 21.3025V19.7151H149.625V21.3025H151.212ZM152.833 21.3025H154.421V19.7151H152.833V21.3025ZM152.981 37.9383L151.577 38.6789L151.609 38.7402L151.647 38.7984L152.981 37.9383ZM154.176 38.116H155.764V36.1384L153.833 36.5662L154.176 38.116ZM157.11 34.2047V32.6174H155.498L155.523 34.2285L157.11 34.2047ZM157.798 37.4303L156.454 38.2755L156.459 38.283L156.463 38.2905L157.798 37.4303ZM162.497 37.6843H164.085V34.9134L161.694 36.3149L162.497 37.6843ZM162.497 39.4875L163.518 40.7029L164.085 40.2272V39.4875H162.497ZM156.569 38.751L157.932 37.937L156.569 38.751ZM156.569 28.6426L157.942 29.4393L157.947 29.4308L156.569 28.6426ZM161.842 28.2108L160.486 29.0364L160.493 29.0476L161.842 28.2108ZM162.546 34.2047V35.7921H163.933L164.119 34.4182L162.546 34.2047ZM157.765 29.7093L159.12 30.5358L159.125 30.5278L159.13 30.5198L157.765 29.7093ZM157.11 32.5285L155.524 32.4594L155.452 34.1158H157.11V32.5285ZM161.187 32.5285V34.1158H162.652L162.769 32.656L161.187 32.5285ZM160.729 29.5315L159.357 30.3303L159.363 30.3409L159.369 30.3513L160.729 29.5315ZM12.2344 2V3.58738H225.11V2V0.412621H12.2344V2ZM235.345 17.8738H233.757V44.8592H235.345H236.932V17.8738H235.345ZM225.11 60.733V59.1456H12.2344V60.733V62.3204H225.11V60.733ZM2 44.8592H3.58738V17.8738H2H0.412621V44.8592H2ZM12.2344 60.733V59.1456C10.1293 59.1456 8.00585 57.8201 6.33172 55.2235C4.6682 52.6434 3.58738 48.9834 3.58738 44.8592H2H0.412621C0.412621 49.5019 1.62286 53.7788 3.66347 56.9438C5.69346 60.0924 8.68725 62.3204 12.2344 62.3204V60.733ZM235.345 44.8592H233.757C233.757 48.9834 232.676 52.6434 231.013 55.2235C229.339 57.8201 227.215 59.1456 225.11 59.1456V60.733V62.3204C228.657 62.3204 231.651 60.0924 233.681 56.9438C235.722 53.7788 236.932 49.5019 236.932 44.8592H235.345ZM225.11 2V3.58738C227.215 3.58738 229.339 4.91287 231.013 7.50949C232.676 10.0896 233.757 13.7496 233.757 17.8738H235.345H236.932C236.932 13.2311 235.722 8.95419 233.681 5.78916C231.651 2.6406 228.657 0.412621 225.11 0.412621V2ZM12.2344 2V0.412621C8.68725 0.412621 5.69346 2.6406 3.66346 5.78917C1.62286 8.95419 0.412621 13.2311 0.412621 17.8738H2H3.58738C3.58738 13.7496 4.66819 10.0896 6.33172 7.50949C8.00585 4.91287 10.1293 3.58738 12.2344 3.58738V2ZM77.9803 40.0971L79.5248 39.7307L75.3492 22.1298L73.8047 22.4962L72.2601 22.8627L76.4358 40.4635L77.9803 40.0971ZM73.8047 22.4962V24.0836H75.6387V22.4962V20.9089H73.8047V22.4962ZM75.6387 22.4962L74.0878 22.8346L77.3628 37.8449L78.9137 37.5065L80.4646 37.1681L77.1896 22.1579L75.6387 22.4962ZM78.9137 37.5065L80.4646 37.8449L83.7396 22.8346L82.1887 22.4962L80.6378 22.1579L77.3628 37.1681L78.9137 37.5065ZM82.1887 22.4962V24.0836H83.9572V22.4962V20.9089H82.1887V22.4962ZM83.9572 22.4962L82.4127 22.1298L78.237 39.7307L79.7815 40.0971L81.3261 40.4635L85.5017 22.8627L83.9572 22.4962ZM79.7815 40.0971V38.5097H77.9803V40.0971V41.6845H79.7815V40.0971ZM85.4743 40.0971H87.0617V27.2203H85.4743H83.8869V40.0971H85.4743ZM85.4743 27.2203V28.8077H87.0955V27.2203V25.6329H85.4743V27.2203ZM87.0955 27.2203H85.5081V40.0971H87.0955H88.6828V27.2203H87.0955ZM87.0955 40.0971V38.5097H85.4743V40.0971V41.6845H87.0955V40.0971ZM86.2931 24.9344V23.3471C86.3685 23.3471 86.4904 23.3654 86.621 23.4358C86.7494 23.5051 86.821 23.5895 86.8494 23.631L85.5398 24.5281L84.2302 25.4252C84.6986 26.1089 85.43 26.5218 86.2931 26.5218V24.9344ZM85.5398 24.5281L86.8969 23.7046C86.9175 23.7386 86.8652 23.6776 86.8652 23.4106H85.2778H83.6904C83.6904 24.0579 83.8127 24.7418 84.1827 25.3516L85.5398 24.5281ZM85.2778 23.4106H86.8652C86.8652 23.2804 86.8779 23.2025 86.8869 23.165C86.8954 23.1293 86.8978 23.1417 86.8739 23.1786L85.5398 22.3184L84.2057 21.4583C83.8101 22.0718 83.6904 22.7702 83.6904 23.4106H85.2778ZM85.5398 22.3184L86.8739 23.1786C86.8543 23.2091 86.7885 23.2963 86.6567 23.3718C86.5198 23.4503 86.385 23.4741 86.2931 23.4741V21.8867V20.2993C85.3865 20.2993 84.655 20.7614 84.2057 21.4583L85.5398 22.3184ZM86.2931 21.8867V23.4741C86.2017 23.4741 86.0593 23.4504 85.9122 23.3642C85.7695 23.2806 85.6973 23.1821 85.6729 23.1419L87.0299 22.3184L88.387 21.495C87.9467 20.7694 87.2058 20.2993 86.2931 20.2993V21.8867ZM87.0299 22.3184L85.7204 23.2155C85.6939 23.177 85.6936 23.1595 85.7005 23.1867C85.7081 23.2165 85.7209 23.2868 85.7209 23.4106H87.3083H88.8957C88.8957 22.7547 88.7644 22.0415 88.3395 21.4213L87.0299 22.3184ZM87.3083 23.4106H85.7209C85.7209 23.6624 85.6693 23.7091 85.6958 23.6679L87.0299 24.5281L88.3641 25.3882C88.7618 24.7714 88.8957 24.0731 88.8957 23.4106H87.3083ZM87.0299 24.5281L85.6958 23.6679C85.7295 23.6157 85.8085 23.5198 85.9482 23.4428C86.089 23.3652 86.2183 23.3471 86.2931 23.3471V24.9344V26.5218C87.1608 26.5218 87.9036 26.1025 88.3641 25.3882L87.0299 24.5281ZM90.8107 34.2047L89.2235 34.2285C89.2467 35.7801 89.4845 37.21 90.1548 38.2755L91.4984 37.4303L92.8421 36.5851C92.639 36.2622 92.4183 35.5417 92.3979 34.1809L90.8107 34.2047ZM91.4984 37.4303L90.1643 38.2905C90.9443 39.5003 92.1729 40.059 93.5617 40.059V38.4716V36.8842C93.0946 36.8842 92.9477 36.7487 92.8326 36.5701L91.4984 37.4303ZM93.5617 38.4716V40.059C94.7588 40.059 95.9119 39.6922 97.001 39.0536L96.1981 37.6843L95.3951 36.3149C94.6939 36.7261 94.0894 36.8842 93.5617 36.8842V38.4716ZM96.1981 37.6843H94.6107V39.4875H96.1981H97.7854V37.6843H96.1981ZM96.1981 39.4875L95.177 38.2722C94.7078 38.6663 94.1202 38.8907 93.3161 38.8907V40.4781V42.0654C94.7826 42.0654 96.1163 41.6294 97.2191 40.7029L96.1981 39.4875ZM93.3161 40.4781V38.8907C92.5312 38.8907 92.0339 38.608 91.6331 37.937L90.2703 38.751L88.9075 39.565C89.8822 41.1968 91.4154 42.0654 93.3161 42.0654V40.4781ZM90.2703 38.751L91.6331 37.937C91.1609 37.1465 90.826 35.7839 90.826 33.646H89.2387H87.6513C87.6513 36.012 88.0042 38.0527 88.9075 39.565L90.2703 38.751ZM89.2387 33.646H90.826C90.826 31.6305 91.1542 30.2821 91.6433 29.4393L90.2703 28.6426L88.8973 27.8459C88.0109 29.3735 87.6513 31.3607 87.6513 33.646H89.2387ZM90.2703 28.6426L91.6481 29.4308C92.095 28.6496 92.5677 28.4267 93.1523 28.4267V26.8393V25.2519C91.2697 25.2519 89.821 26.2312 88.8924 27.8543L90.2703 28.6426ZM93.1523 26.8393V28.4267C93.614 28.4267 93.9072 28.5765 94.1873 29.0364L95.5431 28.2108L96.8989 27.3852C96.0654 26.0164 94.7647 25.2519 93.1523 25.2519V26.8393ZM95.5431 28.2108L94.1942 29.0476C94.5299 29.5887 94.7908 30.5278 94.7908 32.0459H96.3782H97.9656C97.9656 30.2453 97.6698 28.6277 96.8919 27.3739L95.5431 28.2108ZM96.3782 32.0459H94.7908C94.7908 32.7856 94.7501 33.4322 94.6742 33.9912L96.2472 34.2047L97.8201 34.4182C97.9189 33.6904 97.9656 32.8979 97.9656 32.0459H96.3782ZM96.2472 34.2047V32.6174H90.8107V34.2047V35.7921H96.2472V34.2047ZM93.0704 28.7442V27.1568C91.7653 27.1568 90.7384 27.825 90.1008 28.8988L91.4657 29.7093L92.8305 30.5198C92.9141 30.3791 92.9696 30.3469 92.9715 30.3458C92.9745 30.3439 92.9781 30.342 92.9872 30.3396C92.9972 30.337 93.0229 30.3315 93.0704 30.3315V28.7442ZM91.4657 29.7093L90.1105 28.8828C89.5222 29.8473 89.2838 31.1045 89.2248 32.4594L90.8107 32.5285L92.3965 32.5976C92.4467 31.4464 92.645 30.8243 92.8209 30.5358L91.4657 29.7093ZM90.8107 32.5285V34.1158H94.8881V32.5285V30.9411H90.8107V32.5285ZM94.8881 32.5285L96.4703 32.656C96.4868 32.4518 96.4918 32.1765 96.4918 31.8681H94.9044H93.317C93.317 32.1693 93.3112 32.3342 93.3058 32.4009L94.8881 32.5285ZM94.9044 31.8681H96.4918C96.4918 30.7217 96.3248 29.6002 95.7888 28.7117L94.4296 29.5315L93.0703 30.3513C93.1675 30.5126 93.317 30.9488 93.317 31.8681H94.9044ZM94.4296 29.5315L95.8013 28.7327C95.2154 27.7266 94.2439 27.1568 93.0704 27.1568V28.7442V30.3315C93.1047 30.3315 93.1157 30.3352 93.1094 30.3337C93.1064 30.3329 93.1003 30.3312 93.0919 30.3278C93.0835 30.3244 93.0742 30.32 93.0648 30.3145C93.0554 30.3091 93.0473 30.3035 93.0409 30.2984C93.0344 30.2933 93.0307 30.2897 93.0296 30.2885C93.0273 30.2861 93.0383 30.2968 93.0578 30.3303L94.4296 29.5315ZM105.226 40.0971L106.789 39.8229L105.021 29.7398L103.457 30.0141L101.894 30.2883L103.662 40.3713L105.226 40.0971ZM103.457 30.0141L101.893 29.7423L100.141 39.8253L101.705 40.0971L103.269 40.3689L105.021 30.2858L103.457 30.0141ZM101.705 40.0971V38.5097H100.067V40.0971V41.6845H101.705V40.0971ZM100.067 40.0971L101.621 39.7692L98.9023 26.8924L97.3492 27.2203L95.796 27.5481L98.5143 40.425L100.067 40.0971ZM97.3492 27.2203V28.8077H99.0522V27.2203V25.6329H97.3492V27.2203ZM99.0522 27.2203L97.4902 27.503L99.357 37.8147L100.919 37.5319L102.481 37.2491L100.614 26.9375L99.0522 27.2203ZM100.919 37.5319L102.483 37.8002L104.252 27.4886L102.687 27.2203L101.123 26.9519L99.3544 37.2636L100.919 37.5319ZM102.687 27.2203V28.8077H104.309V27.2203V25.6329H102.687V27.2203ZM104.309 27.2203L102.743 27.4854L104.512 37.924L106.077 37.6589L107.642 37.3937L105.874 26.9551L104.309 27.2203ZM106.077 37.6589L107.638 37.9454L109.554 27.5068L107.993 27.2203L106.432 26.9337L104.516 37.3723L106.077 37.6589ZM107.993 27.2203V28.8077H109.647V27.2203V25.6329H107.993V27.2203ZM109.647 27.2203L108.095 26.8849L105.312 39.7617L106.863 40.0971L108.415 40.4325L111.198 27.5557L109.647 27.2203ZM106.863 40.0971V38.5097H105.226V40.0971V41.6845H106.863V40.0971ZM117.233 33.2904H115.646V40.0971H117.233H118.82V33.2904H117.233ZM117.233 40.0971V38.5097H115.612V40.0971V41.6845H117.233V40.0971ZM115.612 40.0971H117.199V22.4962H115.612H114.024V40.0971H115.612ZM115.612 22.4962V24.0836H119.722V22.4962V20.9089H115.612V22.4962ZM119.722 22.4962V24.0836C120.251 24.0836 120.652 24.2724 121.038 24.8501L122.358 23.9693L123.679 23.0885C122.754 21.7021 121.398 20.9089 119.722 20.9089V22.4962ZM122.358 23.9693L121.045 24.8607C121.461 25.4733 121.754 26.4357 121.754 27.906H123.341H124.928C124.928 26.0577 124.566 24.3956 123.672 23.0779L122.358 23.9693ZM123.341 27.906H121.754C121.754 29.3534 121.463 30.3243 121.038 30.9619L122.358 31.8427L123.679 32.7235C124.564 31.397 124.928 29.7435 124.928 27.906H123.341ZM122.358 31.8427L121.045 30.9513C120.665 31.5111 120.263 31.703 119.722 31.703V33.2904V34.8778C121.386 34.8778 122.742 34.1046 123.672 32.7341L122.358 31.8427ZM119.722 33.2904V31.703H117.233V33.2904V34.8778H119.722V33.2904ZM117.233 31.2332V32.8205H119.575V31.2332V29.6458H117.233V31.2332ZM119.575 31.2332V32.8205C120.781 32.8205 121.822 32.2833 122.476 31.2365L121.13 30.395L119.784 29.5535C119.759 29.5936 119.741 29.6128 119.734 29.6199C119.73 29.6236 119.728 29.6253 119.727 29.6257C119.727 29.6261 119.727 29.6261 119.726 29.6262C119.726 29.6262 119.725 29.627 119.721 29.6283C119.718 29.6296 119.711 29.6319 119.701 29.6343C119.679 29.6393 119.639 29.6458 119.575 29.6458V31.2332ZM121.13 30.395L122.487 31.2185C123.053 30.2864 123.242 29.1202 123.242 27.906H121.654H120.067C120.067 28.8592 119.906 29.3523 119.773 29.5715L121.13 30.395ZM121.654 27.906H123.242C123.242 26.6759 123.06 25.4848 122.483 24.5549C121.829 23.4995 120.781 22.9661 119.575 22.9661V24.5535V26.1409C119.641 26.1409 119.683 26.1476 119.706 26.1527C119.717 26.1553 119.724 26.1577 119.728 26.1591C119.73 26.1598 119.731 26.1604 119.732 26.1607C119.733 26.1611 119.733 26.1613 119.733 26.1613C119.733 26.1613 119.733 26.1613 119.733 26.1612C119.733 26.1612 119.733 26.1612 119.733 26.1613C119.733 26.1614 119.735 26.1627 119.738 26.1659C119.745 26.1719 119.762 26.1898 119.785 26.2284C119.902 26.416 120.067 26.9011 120.067 27.906H121.654ZM119.575 24.5535V22.9661H117.233V24.5535V26.1409H119.575V24.5535ZM117.233 24.5535H115.646V31.2332H117.233H118.82V24.5535H117.233ZM125.349 40.0971H126.936V27.2203H125.349H123.761V40.0971H125.349ZM125.349 27.2203V28.8077H126.708V27.2203V25.6329H125.349V27.2203ZM126.708 27.2203L125.127 27.3697L125.308 29.2746L126.888 29.1251L128.468 28.9757L128.288 27.0708L126.708 27.2203ZM126.888 29.1251L128.248 29.9436C128.523 29.4872 128.735 29.2103 128.88 29.0603L127.739 27.9568L126.598 26.8533C126.219 27.2452 125.864 27.7472 125.528 28.3067L126.888 29.1251ZM127.739 27.9568L128.913 29.0253C129.078 28.8446 129.193 28.7709 129.247 28.7437L128.542 27.3219L127.836 25.9C127.345 26.1437 126.925 26.4933 126.565 26.8883L127.739 27.9568ZM128.542 27.3219L129.247 28.7437C129.292 28.7214 129.344 28.7061 129.426 28.7061V27.1187V25.5313C128.874 25.5313 128.337 25.6514 127.836 25.9L128.542 27.3219ZM129.426 27.1187V28.7061C129.505 28.7061 129.618 28.7159 129.769 28.7479L130.097 27.1949L130.426 25.6419C130.097 25.5722 129.762 25.5313 129.426 25.5313V27.1187ZM130.097 27.1949H128.51V29.4807H130.097H131.685V27.1949H130.097ZM130.097 29.4807L130.4 27.9223C129.993 27.8436 129.59 27.7917 129.213 27.7917V29.3791V30.9665C129.316 30.9665 129.503 30.9824 129.795 31.0391L130.097 29.4807ZM129.213 29.3791V27.7917C127.757 27.7917 126.574 28.5043 125.709 29.6332L126.97 30.5982L128.23 31.5632C128.61 31.0666 128.923 30.9665 129.213 30.9665V29.3791ZM126.97 30.5982H125.382V40.0971H126.97H128.557V30.5982H126.97ZM126.97 40.0971V38.5097H125.349V40.0971V41.6845H126.97V40.0971ZM134.916 40.4781V38.8907C134.313 38.8907 133.829 38.6596 133.374 37.8772L132.001 38.6748L130.629 39.4724C131.572 41.0944 133.031 42.0654 134.916 42.0654V40.4781ZM132.001 38.6748L133.374 37.8772C132.873 37.0149 132.541 35.6563 132.541 33.646H130.953H129.366C129.366 35.9364 129.733 37.9303 130.629 39.4724L132.001 38.6748ZM130.953 33.646H132.541C132.541 31.6553 132.872 30.3039 133.374 29.4402L132.001 28.6426L130.629 27.8449C129.734 29.3855 129.366 31.3698 129.366 33.646H130.953ZM132.001 28.6426L133.374 29.4402C133.829 28.6578 134.313 28.4267 134.916 28.4267V26.8393V25.2519C133.031 25.2519 131.572 26.223 130.629 27.8449L132.001 28.6426ZM134.916 26.8393V28.4267C135.52 28.4267 136.004 28.6578 136.459 29.4402L137.831 28.6426L139.203 27.8449C138.261 26.223 136.802 25.2519 134.916 25.2519V26.8393ZM137.831 28.6426L136.459 29.4402C136.961 30.3039 137.292 31.6553 137.292 33.646H138.879H140.466C140.466 31.3698 140.099 29.3855 139.203 27.8449L137.831 28.6426ZM138.879 33.646H137.292C137.292 35.6563 136.96 37.0149 136.459 37.8772L137.831 38.6748L139.203 39.4724C140.1 37.9303 140.466 35.9364 140.466 33.646H138.879ZM137.831 38.6748L136.459 37.8772C136.004 38.6595 135.52 38.8907 134.916 38.8907V40.4781V42.0654C136.802 42.0654 138.261 41.0944 139.203 39.4724L137.831 38.6748ZM134.916 38.4462V40.0336C135.592 40.0336 136.251 39.8526 136.831 39.4509C137.397 39.0582 137.798 38.5176 138.078 37.9342C138.619 36.8103 138.813 35.3227 138.813 33.646H137.225H135.638C135.638 35.1695 135.446 36.0819 135.217 36.5581C135.113 36.7748 135.033 36.8342 135.022 36.8415C135.016 36.8456 135.013 36.8474 135.005 36.8495C134.997 36.852 134.97 36.8588 134.916 36.8588V38.4462ZM137.225 33.646H138.813C138.813 31.9772 138.619 30.4946 138.077 29.3738C137.796 28.7919 137.394 28.2534 136.827 27.8626C136.248 27.4632 135.59 27.2838 134.916 27.2838V28.8711V30.4585C134.971 30.4585 134.999 30.4654 135.008 30.4681C135.015 30.4704 135.019 30.4724 135.025 30.4765C135.036 30.4837 135.115 30.542 135.219 30.7559C135.447 31.2267 135.638 32.1316 135.638 33.646H137.225ZM134.916 28.8711V27.2838C134.243 27.2838 133.585 27.4632 133.005 27.8626C132.438 28.2534 132.037 28.7919 131.756 29.3738C131.214 30.4946 131.02 31.9772 131.02 33.646H132.607H134.195C134.195 32.1316 134.386 31.2267 134.614 30.7559C134.717 30.542 134.797 30.4837 134.807 30.4765C134.813 30.4724 134.817 30.4704 134.825 30.4681C134.834 30.4654 134.862 30.4585 134.916 30.4585V28.8711ZM132.607 33.646H131.02C131.02 35.3227 131.213 36.8103 131.754 37.9342C132.035 38.5176 132.435 39.0582 133.002 39.4509C133.582 39.8526 134.241 40.0336 134.916 40.0336V38.4462V36.8588C134.862 36.8588 134.835 36.852 134.827 36.8495C134.82 36.8474 134.816 36.8456 134.81 36.8415C134.8 36.8342 134.719 36.7748 134.615 36.5581C134.386 36.0819 134.195 35.1695 134.195 33.646H132.607ZM141.582 40.0971H143.17V29.2013H141.582H139.995V40.0971H141.582ZM141.582 29.2013V27.6139H140.043V29.2013V30.7887H141.582V29.2013ZM140.043 29.2013H141.63V27.5758H140.043H138.456V29.2013H140.043ZM140.043 27.5758L140.351 29.133L141.891 28.8282L141.582 27.2711L141.274 25.7139L139.735 26.0187L140.043 27.5758ZM141.582 27.2711H143.17V25.1884H141.582H139.995V27.2711H141.582ZM141.582 25.1884H143.17C143.17 23.8865 143.38 23.178 143.588 22.8415C143.718 22.6311 143.845 22.5343 144.202 22.5343V20.947V19.3596C142.813 19.3596 141.63 19.9698 140.887 21.1731C140.221 22.2505 139.995 23.6627 139.995 25.1884H141.582ZM144.202 20.947V22.5343C144.536 22.5343 144.782 22.6132 144.989 22.7445L145.84 21.4041L146.69 20.0638C145.936 19.5855 145.091 19.3596 144.202 19.3596V20.947ZM145.84 21.4041H144.252V23.182H145.84H147.427V21.4041H145.84ZM145.84 23.182L146.215 21.6396C145.628 21.4967 145.052 21.3914 144.562 21.3914V22.9788V24.5662C144.662 24.5662 144.938 24.5963 145.464 24.7244L145.84 23.182ZM144.562 22.9788V21.3914C143.743 21.3914 142.789 21.656 142.186 22.5429L143.498 23.436L144.81 24.3291C144.777 24.3779 144.734 24.4258 144.683 24.4675C144.632 24.5089 144.584 24.5356 144.546 24.5516C144.476 24.5818 144.465 24.5662 144.562 24.5662V22.9788ZM143.498 23.436L142.187 22.541C141.707 23.2439 141.616 24.1401 141.616 24.8837H143.203H144.791C144.791 24.6148 144.811 24.4369 144.832 24.3305C144.856 24.217 144.868 24.244 144.809 24.3309L143.498 23.436ZM143.203 24.8837H141.616V27.2203H143.203H144.791V24.8837H143.203ZM143.203 27.2203V28.8077H148.64V27.2203V25.6329H143.203V27.2203ZM148.64 27.2203H147.052V40.0971H148.64H150.227V27.2203H148.64ZM148.64 40.0971V38.5097H147.019V40.0971V41.6845H148.64V40.0971ZM147.019 40.0971H148.606V29.2013H147.019H145.431V40.0971H147.019ZM147.019 29.2013V27.6139H143.203V29.2013V30.7887H147.019V29.2013ZM143.203 29.2013H141.616V40.0971H143.203H144.791V29.2013H143.203ZM143.203 40.0971V38.5097H141.582V40.0971V41.6845H143.203V40.0971ZM147.837 24.9344V23.3471C147.913 23.3471 148.035 23.3654 148.165 23.4358C148.294 23.5051 148.365 23.5895 148.394 23.631L147.084 24.5281L145.775 25.4252C146.243 26.1089 146.974 26.5218 147.837 26.5218V24.9344ZM147.084 24.5281L148.441 23.7046C148.462 23.7386 148.41 23.6776 148.41 23.4106H146.822H145.235C145.235 24.0579 145.357 24.7418 145.727 25.3516L147.084 24.5281ZM146.822 23.4106H148.41C148.41 23.2804 148.422 23.2025 148.431 23.165C148.44 23.1293 148.442 23.1417 148.418 23.1786L147.084 22.3184L145.75 21.4583C145.355 22.0718 145.235 22.7702 145.235 23.4106H146.822ZM147.084 22.3184L148.418 23.1786C148.399 23.2091 148.333 23.2963 148.201 23.3718C148.064 23.4503 147.929 23.4741 147.837 23.4741V21.8867V20.2993C146.931 20.2993 146.199 20.7613 145.75 21.4583L147.084 22.3184ZM147.837 21.8867V23.4741C147.746 23.4741 147.604 23.4504 147.457 23.3642C147.314 23.2806 147.242 23.1821 147.217 23.1419L148.574 22.3184L149.931 21.495C149.491 20.7694 148.75 20.2993 147.837 20.2993V21.8867ZM148.574 22.3184L147.265 23.2155C147.238 23.1769 147.238 23.1595 147.245 23.1867C147.253 23.2165 147.265 23.2867 147.265 23.4106H148.853H150.44C150.44 22.7548 150.309 22.0415 149.884 21.4213L148.574 22.3184ZM148.853 23.4106H147.265C147.265 23.6624 147.214 23.7091 147.24 23.6679L148.574 24.5281L149.908 25.3882C150.306 24.7713 150.44 24.073 150.44 23.4106H148.853ZM148.574 24.5281L147.24 23.6679C147.274 23.6157 147.353 23.5198 147.493 23.4428C147.633 23.3652 147.763 23.3471 147.837 23.3471V24.9344V26.5218C148.705 26.5218 149.448 26.1025 149.908 25.3882L148.574 24.5281ZM154.176 39.9193L153.396 38.5367C153.281 38.6016 153.158 38.6367 152.997 38.6367V40.2241V41.8115C153.688 41.8115 154.351 41.6434 154.956 41.3019L154.176 39.9193ZM152.997 40.2241V38.6367C152.969 38.6367 152.962 38.6337 152.972 38.6361C152.977 38.6372 152.984 38.6394 152.993 38.6431C153.003 38.6468 153.012 38.6515 153.022 38.6572C153.032 38.6628 153.04 38.6685 153.047 38.6736C153.054 38.6787 153.057 38.6824 153.059 38.6836C153.061 38.6861 153.05 38.6759 153.031 38.6437L151.671 39.4621L150.311 40.2806C150.895 41.2513 151.845 41.8115 152.997 41.8115V40.2241ZM151.671 39.4621L153.042 38.6633C152.938 38.4839 152.8 38.0612 152.8 37.2271H151.212H149.625C149.625 38.3232 149.792 39.3906 150.299 40.261L151.671 39.4621ZM151.212 37.2271H152.8V21.3025H151.212H149.625V37.2271H151.212ZM151.212 21.3025V22.8899H152.833V21.3025V19.7151H151.212V21.3025ZM152.833 21.3025H151.246V37.0747H152.833H154.421V21.3025H152.833ZM152.833 37.0747H151.246C151.246 37.5379 151.294 38.1435 151.577 38.6789L152.981 37.9383L154.385 37.1976C154.413 37.2509 154.427 37.2905 154.432 37.3083C154.438 37.3264 154.437 37.3302 154.435 37.3156C154.433 37.3014 154.429 37.2746 154.426 37.2329C154.423 37.1915 154.421 37.1392 154.421 37.0747H152.833ZM152.981 37.9383L151.647 38.7984C152.108 39.5135 152.845 39.7796 153.505 39.7796V38.1922V36.6049C153.569 36.6049 153.712 36.6162 153.886 36.7003C154.071 36.7899 154.218 36.9278 154.315 37.0781L152.981 37.9383ZM153.505 38.1922V39.7796C153.847 39.7796 154.186 39.7397 154.52 39.6658L154.176 38.116L153.833 36.5662C153.708 36.5939 153.599 36.6049 153.505 36.6049V38.1922ZM154.176 38.116H152.589V39.9193H154.176H155.764V38.116H154.176ZM157.11 34.2047L155.523 34.2285C155.546 35.7801 155.784 37.2099 156.454 38.2755L157.798 37.4303L159.141 36.5851C158.938 36.2622 158.717 35.5417 158.697 34.1809L157.11 34.2047ZM157.798 37.4303L156.463 38.2905C157.243 39.5003 158.472 40.059 159.861 40.059V38.4716V36.8842C159.394 36.8842 159.247 36.7487 159.132 36.5701L157.798 37.4303ZM159.861 38.4716V40.059C161.058 40.059 162.211 39.6922 163.3 39.0536L162.497 37.6843L161.694 36.3149C160.993 36.7261 160.389 36.8842 159.861 36.8842V38.4716ZM162.497 37.6843H160.91V39.4875H162.497H164.085V37.6843H162.497ZM162.497 39.4875L161.476 38.2722C161.007 38.6663 160.419 38.8907 159.615 38.8907V40.4781V42.0654C161.082 42.0654 162.416 41.6294 163.518 40.7029L162.497 39.4875ZM159.615 40.4781V38.8907C158.83 38.8907 158.333 38.608 157.932 37.937L156.569 38.751L155.207 39.565C156.181 41.1968 157.715 42.0654 159.615 42.0654V40.4781ZM156.569 38.751L157.932 37.937C157.46 37.1465 157.125 35.7839 157.125 33.646H155.538H153.95C153.95 36.012 154.303 38.0527 155.207 39.565L156.569 38.751ZM155.538 33.646H157.125C157.125 31.6305 157.453 30.2821 157.942 29.4393L156.569 28.6426L155.196 27.8459C154.31 29.3735 153.95 31.3607 153.95 33.646H155.538ZM156.569 28.6426L157.947 29.4308C158.394 28.6496 158.867 28.4267 159.451 28.4267V26.8393V25.2519C157.569 25.2519 156.12 26.2312 155.192 27.8543L156.569 28.6426ZM159.451 26.8393V28.4267C159.913 28.4267 160.206 28.5765 160.486 29.0364L161.842 28.2108L163.198 27.3852C162.365 26.0164 161.064 25.2519 159.451 25.2519V26.8393ZM161.842 28.2108L160.493 29.0476C160.829 29.5887 161.09 30.5278 161.09 32.0459H162.677H164.265C164.265 30.2453 163.969 28.6277 163.191 27.3739L161.842 28.2108ZM162.677 32.0459H161.09C161.09 32.7856 161.049 33.4322 160.973 33.9912L162.546 34.2047L164.119 34.4182C164.218 33.6904 164.265 32.8979 164.265 32.0459H162.677ZM162.546 34.2047V32.6174H157.11V34.2047V35.7921H162.546V34.2047ZM159.37 28.7442V27.1568C158.064 27.1568 157.038 27.825 156.4 28.8988L157.765 29.7093L159.13 30.5198C159.213 30.3791 159.269 30.3469 159.271 30.3458C159.274 30.3439 159.277 30.342 159.286 30.3396C159.296 30.337 159.322 30.3315 159.37 30.3315V28.7442ZM157.765 29.7093L156.41 28.8828C155.821 29.8473 155.583 31.1046 155.524 32.4594L157.11 32.5285L158.696 32.5976C158.746 31.4464 158.944 30.8243 159.12 30.5358L157.765 29.7093ZM157.11 32.5285V34.1158H161.187V32.5285V30.9411H157.11V32.5285ZM161.187 32.5285L162.769 32.656C162.786 32.4518 162.791 32.1766 162.791 31.8681H161.204H159.616C159.616 32.1692 159.61 32.3342 159.605 32.4009L161.187 32.5285ZM161.204 31.8681H162.791C162.791 30.7217 162.624 29.6002 162.088 28.7117L160.729 29.5315L159.369 30.3513C159.467 30.5126 159.616 30.9489 159.616 31.8681H161.204ZM160.729 29.5315L162.1 28.7327C161.515 27.7266 160.543 27.1568 159.37 27.1568V28.7442V30.3315C159.404 30.3315 159.415 30.3352 159.409 30.3337C159.406 30.3329 159.399 30.3312 159.391 30.3278C159.383 30.3244 159.373 30.32 159.364 30.3145C159.355 30.3091 159.347 30.3035 159.34 30.2984C159.334 30.2933 159.33 30.2897 159.329 30.2885C159.326 30.2861 159.337 30.2968 159.357 30.3303L160.729 29.5315Z" fill="black" mask="url(#path-2-outside-1_1051_1913)"/>
</svg>
