<svg width="156" height="167" viewBox="0 0 156 167" fill="none" xmlns="http://www.w3.org/2000/svg">
<path d="M29.3343 44.279C41.951 36.6368 56.549 33.9293 70.8373 36.508C72.9935 36.8971 74.2749 39.0764 73.7174 41.1952L72.9907 43.957C72.4421 46.0421 70.3177 47.2792 68.1914 46.9223C63.1482 46.0757 57.9831 46.0366 52.8926 46.8143C46.5116 47.7892 40.378 50.0275 34.8568 53.3962C11.9315 67.2827 4.43075 96.9813 18.1348 119.606C23.9328 129.227 32.9603 136.428 43.5838 140.009C45.6637 140.71 46.9587 142.864 46.4002 144.986L45.6706 147.759C45.1241 149.836 43.0066 151.103 40.9601 150.452C27.5608 146.192 16.1572 137.249 8.89634 125.202C-7.85343 97.5491 1.31856 61.2489 29.3343 44.279Z" fill="#A5A3AA" fill-opacity="0.25"/>
<path d="M66.0826 146.643C60.9804 149.734 59.3166 156.321 62.3666 161.356C65.4166 166.391 72.0254 167.968 77.1277 164.877C82.2299 161.787 83.8937 155.199 80.8437 150.164C77.7937 145.129 71.1849 143.552 66.0826 146.643Z" fill="#A5A3AA" fill-opacity="0.25"/>
<path d="M61.7004 102.028L83.8419 107.31C86.6271 107.978 89.525 107.519 91.9916 106.025C94.4583 104.53 96.2075 102.175 96.9052 99.3969L102.479 77.3271C103.204 74.458 102.695 71.5756 101.282 69.2416C99.8679 66.9076 97.5487 65.122 94.6703 64.4354L72.5288 59.1537C69.7436 58.4854 66.8458 58.9446 64.3791 60.4387C61.9124 61.9329 60.1633 64.2884 59.4656 67.0664L53.8916 89.1362C53.167 92.0053 53.6753 94.8877 55.0891 97.2216C56.5029 99.5556 58.822 101.341 61.7004 102.028ZM68.9516 73.3173C69.4783 71.2319 71.5831 69.957 73.6753 70.4561L88.1684 73.9133C90.3 74.4218 91.6043 76.5751 91.0677 78.6998L87.4191 93.146C86.8924 95.2313 84.7876 96.5063 82.6955 96.0072L68.2024 92.55C66.0708 92.0415 64.7664 89.8882 65.3031 87.7634L68.9516 73.3173Z" fill="#A5A3AA" fill-opacity="0.25"/>
<path d="M79.2431 1.58601C74.1408 4.6766 72.4771 11.2639 75.5271 16.2992C78.5771 21.3344 85.1858 22.9109 90.2881 19.8204C95.3904 16.7298 97.0541 10.1424 94.0041 5.10716C90.9541 0.0718878 84.3454 -1.50458 79.2431 1.58601Z" fill="#A5A3AA" fill-opacity="0.25"/>
<path d="M109.631 18.4462C110.136 16.3604 112.225 15.0517 114.283 15.6594C120.554 17.5113 126.465 20.4006 131.767 24.215C138.111 28.7802 143.453 34.5772 147.474 41.2617C164.221 68.9095 155.052 105.214 127.036 122.184C114.42 129.826 99.8223 132.534 85.5308 129.958C83.3737 129.569 82.0917 127.388 82.6502 125.269L83.3786 122.505C83.9278 120.42 86.0517 119.184 88.1775 119.541C93.2212 120.388 98.3867 120.427 103.478 119.649C109.859 118.674 115.992 116.436 121.513 113.067C144.434 99.1833 151.94 69.482 138.235 46.8577C132.191 36.8794 122.924 29.6374 111.861 26.1554C109.771 25.4975 108.438 23.3727 108.954 21.2428L109.631 18.4462Z" fill="#A5A3AA" fill-opacity="0.25"/>
</svg>
