<svg width="237" height="203" viewBox="0 0 237 203" fill="none" xmlns="http://www.w3.org/2000/svg">
<g clip-path="url(#clip0_67_244)">
<path d="M122.914 147.787C118.402 129.576 120.631 110.825 129.163 94.4472C130.451 91.9758 133.582 91.2433 135.944 92.7213L139.024 94.6476C141.348 96.102 142.048 99.1495 140.811 101.597C137.876 107.402 135.877 113.659 134.897 120.135C133.669 128.253 134.069 136.548 136.073 144.526C144.272 177.616 177.504 197.95 210.159 189.859C224.035 186.455 236.192 178.213 244.557 166.665C246.194 164.405 249.299 163.646 251.666 165.126L254.757 167.061C257.073 168.509 257.811 171.56 256.248 173.799C246.009 188.461 230.838 198.93 213.463 203.194C173.55 213.083 132.933 188.224 122.914 147.787Z" fill="#A5A3AA" fill-opacity="0.25"/>
<path d="M261.117 141.85C262.942 149.214 270.313 153.724 277.58 151.924C284.848 150.123 289.261 142.693 287.436 135.328C285.611 127.964 278.24 123.454 270.972 125.254C263.705 127.055 259.292 134.485 261.117 141.85Z" fill="#A5A3AA" fill-opacity="0.25"/>
<path d="M205.279 130.308L220.062 105.415C221.926 102.286 222.464 98.5928 221.582 95.0324C220.7 91.4721 218.5 88.4575 215.39 86.5602L190.695 71.4492C187.485 69.4847 183.792 69.0126 180.423 69.8474C177.054 70.6821 174.009 72.8236 172.087 76.0597L157.304 100.953C155.44 104.082 154.902 107.775 155.784 111.335C156.667 114.896 158.866 117.91 161.976 119.808L186.671 134.919C189.882 136.883 193.574 137.355 196.943 136.521C200.312 135.686 203.357 133.544 205.279 130.308ZM173.153 110.65C170.819 109.222 170.067 106.184 171.463 103.832L181.14 87.5383C182.563 85.1417 185.671 84.3716 188.049 85.8264L204.214 95.7176C206.547 97.1454 207.3 100.183 205.903 102.536L196.226 118.83C194.803 121.226 191.695 121.996 189.318 120.541L173.153 110.65Z" fill="#A5A3AA" fill-opacity="0.25"/>
<path d="M89.9304 71.0394C91.7552 78.4039 99.1261 82.9142 106.394 81.1134C113.662 79.3126 118.074 71.8827 116.249 64.5182C114.425 57.1537 107.054 52.6434 99.7859 54.4442C92.5181 56.245 88.1057 63.6749 89.9304 71.0394Z" fill="#A5A3AA" fill-opacity="0.25"/>
<path d="M121.892 40.5083C119.549 39.1068 118.75 36.0749 120.266 33.8052C124.885 26.8896 130.628 20.8029 137.264 15.8066C145.206 9.82696 154.266 5.53118 163.903 3.17455C203.809 -6.71326 244.433 18.1444 254.452 58.5816C258.964 76.7916 256.735 95.5425 248.205 111.925C246.917 114.397 243.785 115.13 241.422 113.651L238.34 111.721C236.016 110.267 235.318 107.22 236.555 104.773C239.489 98.968 241.489 92.7097 242.469 86.2331C243.697 78.1154 243.297 69.8206 241.293 61.8422C233.096 28.759 199.862 8.41797 167.207 16.5092C152.805 20.0778 140.507 28.5955 132.097 40.7139C130.508 43.0037 127.424 43.8186 125.032 42.3875L121.892 40.5083Z" fill="#A5A3AA" fill-opacity="0.25"/>
</g>
<defs>
<clipPath id="clip0_67_244">
<rect width="237" height="203" rx="15" fill="white"/>
</clipPath>
</defs>
</svg>
