<svg width="123" height="43" viewBox="0 0 123 43" fill="none" xmlns="http://www.w3.org/2000/svg">
<rect x="4.1842" y="10" width="114.632" height="32" rx="9" fill="#8E5602"/>
<mask id="path-2-outside-1_1009_5" maskUnits="userSpaceOnUse" x="0" y="0" width="123" height="43" fill="black">
<rect fill="white" width="123" height="43"/>
<path d="M1 11C1 5.47715 3.37603 1 6.30702 1H116.693C119.624 1 122 5.47715 122 11V28C122 33.5228 119.624 38 116.693 38H6.30702C3.37603 38 1 33.5228 1 28V11Z"/>
<path d="M40.3993 25L38.234 13.912H39.1851L40.8833 23.368L42.5815 13.912H43.4986L41.3333 25H40.3993Z"/>
<path d="M44.2853 25V16.888H45.1259V25H44.2853ZM44.7099 15.448C44.5457 15.448 44.4155 15.3627 44.3193 15.192C44.2287 15.0107 44.1834 14.776 44.1834 14.488C44.1834 14.2 44.2287 13.9707 44.3193 13.8C44.4155 13.6187 44.5457 13.528 44.7099 13.528C44.874 13.528 45.0014 13.6187 45.092 13.8C45.1882 13.9707 45.2363 14.2 45.2363 14.488C45.2363 14.776 45.1882 15.0107 45.092 15.192C45.0014 15.3627 44.874 15.448 44.7099 15.448Z"/>
<path d="M47.0524 21.288C47.0638 22.2053 47.1826 22.8827 47.4091 23.32C47.6412 23.7573 47.9978 23.976 48.479 23.976C48.9262 23.976 49.3819 23.8107 49.8461 23.48V24.616C49.4385 25.032 48.9403 25.24 48.3516 25.24C47.6553 25.24 47.1289 24.8773 46.7722 24.152C46.4156 23.4267 46.2373 22.3547 46.2373 20.936C46.2373 19.5813 46.4156 18.5307 46.7722 17.784C47.1289 17.0267 47.627 16.648 48.2667 16.648C48.8045 16.648 49.2177 16.936 49.5064 17.512C49.7951 18.0773 49.9395 18.8827 49.9395 19.928C49.9395 20.4293 49.9168 20.8827 49.8715 21.288H47.0524ZM48.2242 17.848C47.8676 17.848 47.5902 18.0507 47.3921 18.456C47.194 18.8507 47.0807 19.4427 47.0524 20.232H49.1668C49.1724 20.1467 49.1752 20.008 49.1752 19.816C49.1752 19.1653 49.0932 18.6747 48.929 18.344C48.7705 18.0133 48.5356 17.848 48.2242 17.848Z"/>
<path d="M54.5272 25L53.6102 18.648L52.7016 25H51.8525L50.443 16.888H51.326L52.2941 23.384L53.2111 16.888H54.0517L54.9688 23.464L55.9623 16.888H56.8199L55.3764 25H54.5272Z"/>
<path d="M60.7536 20.712V25H59.913V13.912H62.0443C62.616 13.912 63.0717 14.2213 63.4114 14.84C63.751 15.448 63.9209 16.2747 63.9209 17.32C63.9209 18.3547 63.751 19.1813 63.4114 19.8C63.0717 20.408 62.616 20.712 62.0443 20.712H60.7536ZM60.7536 19.416H61.9679C62.3245 19.416 62.5934 19.24 62.7745 18.888C62.9557 18.5253 63.0463 18.0027 63.0463 17.32C63.0463 15.912 62.6868 15.208 61.9679 15.208H60.7536V19.416Z"/>
<path d="M64.962 25V16.888H65.6667L65.7601 18.088C65.9186 17.768 66.0658 17.5227 66.2017 17.352C66.3375 17.1707 66.4762 17.0373 66.6178 16.952C66.7593 16.8667 66.9121 16.824 67.0763 16.824C67.1838 16.824 67.2999 16.84 67.4244 16.872V18.312C67.2433 18.2693 67.0904 18.248 66.9659 18.248C66.513 18.248 66.1253 18.504 65.8026 19.016V25H64.962Z"/>
<path d="M69.9232 25.24C69.2779 25.24 68.7741 24.8613 68.4118 24.104C68.0495 23.3467 67.8684 22.2907 67.8684 20.936C67.8684 19.592 68.0495 18.5413 68.4118 17.784C68.7741 17.0267 69.2779 16.648 69.9232 16.648C70.5686 16.648 71.0724 17.0267 71.4347 17.784C71.797 18.5413 71.9781 19.592 71.9781 20.936C71.9781 22.2907 71.797 23.3467 71.4347 24.104C71.0724 24.8613 70.5686 25.24 69.9232 25.24ZM69.9232 23.96C70.7214 23.96 71.1205 22.952 71.1205 20.936C71.1205 18.9307 70.7214 17.928 69.9232 17.928C69.1251 17.928 68.726 18.9307 68.726 20.936C68.726 22.952 69.1251 23.96 69.9232 23.96Z"/>
<path d="M73.3798 25V18.136H72.5816V17.112L73.3798 16.92V15.608C73.3798 13.8267 73.8327 12.936 74.7384 12.936C75.0554 12.936 75.3385 13.032 75.5875 13.224V14.344C75.2988 14.2587 75.0781 14.216 74.9252 14.216C74.6648 14.216 74.4809 14.312 74.3733 14.504C74.2714 14.6853 74.2205 14.9893 74.2205 15.416V16.888H77.0395V25H76.1989V18.136H74.2205V25H73.3798ZM76.6235 15.448C76.4593 15.448 76.3291 15.3627 76.2329 15.192C76.1423 15.0107 76.097 14.776 76.097 14.488C76.097 14.2 76.1423 13.9707 76.2329 13.8C76.3291 13.6187 76.4593 13.528 76.6235 13.528C76.7876 13.528 76.915 13.6187 77.0056 13.8C77.1018 13.9707 77.1499 14.2 77.1499 14.488C77.1499 14.776 77.1018 15.0107 77.0056 15.192C76.915 15.3627 76.7876 15.448 76.6235 15.448Z"/>
<path d="M79.9104 24.888C79.7236 25.016 79.5198 25.08 79.299 25.08C78.999 25.08 78.7697 24.92 78.6112 24.6C78.4527 24.2693 78.3735 23.8 78.3735 23.192V13.16H79.2141V23.096C79.2141 23.3413 79.2396 23.5227 79.2905 23.64C79.3471 23.7467 79.4377 23.8 79.5622 23.8C79.6755 23.8 79.7915 23.784 79.9104 23.752V24.888Z"/>
<path d="M81.4316 21.288C81.443 22.2053 81.5618 22.8827 81.7883 23.32C82.0204 23.7573 82.377 23.976 82.8582 23.976C83.3054 23.976 83.7611 23.8107 84.2252 23.48V24.616C83.8177 25.032 83.3195 25.24 82.7308 25.24C82.0345 25.24 81.5081 24.8773 81.1514 24.152C80.7948 23.4267 80.6165 22.3547 80.6165 20.936C80.6165 19.5813 80.7948 18.5307 81.1514 17.784C81.5081 17.0267 82.0062 16.648 82.6459 16.648C83.1837 16.648 83.5969 16.936 83.8856 17.512C84.1743 18.0773 84.3187 18.8827 84.3187 19.928C84.3187 20.4293 84.296 20.8827 84.2507 21.288H81.4316ZM82.6034 17.848C82.2468 17.848 81.9694 18.0507 81.7713 18.456C81.5732 18.8507 81.4599 19.4427 81.4316 20.232H83.5459C83.5516 20.1467 83.5544 20.008 83.5544 19.816C83.5544 19.1653 83.4724 18.6747 83.3082 18.344C83.1497 18.0133 82.9148 17.848 82.6034 17.848Z"/>
</mask>
<path d="M1 11C1 5.47715 3.37603 1 6.30702 1H116.693C119.624 1 122 5.47715 122 11V28C122 33.5228 119.624 38 116.693 38H6.30702C3.37603 38 1 33.5228 1 28V11Z" fill="#FF9900"/>
<path d="M40.3993 25L38.234 13.912H39.1851L40.8833 23.368L42.5815 13.912H43.4986L41.3333 25H40.3993Z" fill="#FF9900"/>
<path d="M44.2853 25V16.888H45.1259V25H44.2853ZM44.7099 15.448C44.5457 15.448 44.4155 15.3627 44.3193 15.192C44.2287 15.0107 44.1834 14.776 44.1834 14.488C44.1834 14.2 44.2287 13.9707 44.3193 13.8C44.4155 13.6187 44.5457 13.528 44.7099 13.528C44.874 13.528 45.0014 13.6187 45.092 13.8C45.1882 13.9707 45.2363 14.2 45.2363 14.488C45.2363 14.776 45.1882 15.0107 45.092 15.192C45.0014 15.3627 44.874 15.448 44.7099 15.448Z" fill="#FF9900"/>
<path d="M47.0524 21.288C47.0638 22.2053 47.1826 22.8827 47.4091 23.32C47.6412 23.7573 47.9978 23.976 48.479 23.976C48.9262 23.976 49.3819 23.8107 49.8461 23.48V24.616C49.4385 25.032 48.9403 25.24 48.3516 25.24C47.6553 25.24 47.1289 24.8773 46.7722 24.152C46.4156 23.4267 46.2373 22.3547 46.2373 20.936C46.2373 19.5813 46.4156 18.5307 46.7722 17.784C47.1289 17.0267 47.627 16.648 48.2667 16.648C48.8045 16.648 49.2177 16.936 49.5064 17.512C49.7951 18.0773 49.9395 18.8827 49.9395 19.928C49.9395 20.4293 49.9168 20.8827 49.8715 21.288H47.0524ZM48.2242 17.848C47.8676 17.848 47.5902 18.0507 47.3921 18.456C47.194 18.8507 47.0807 19.4427 47.0524 20.232H49.1668C49.1724 20.1467 49.1752 20.008 49.1752 19.816C49.1752 19.1653 49.0932 18.6747 48.929 18.344C48.7705 18.0133 48.5356 17.848 48.2242 17.848Z" fill="#FF9900"/>
<path d="M54.5272 25L53.6102 18.648L52.7016 25H51.8525L50.443 16.888H51.326L52.2941 23.384L53.2111 16.888H54.0517L54.9688 23.464L55.9623 16.888H56.8199L55.3764 25H54.5272Z" fill="#FF9900"/>
<path d="M60.7536 20.712V25H59.913V13.912H62.0443C62.616 13.912 63.0717 14.2213 63.4114 14.84C63.751 15.448 63.9209 16.2747 63.9209 17.32C63.9209 18.3547 63.751 19.1813 63.4114 19.8C63.0717 20.408 62.616 20.712 62.0443 20.712H60.7536ZM60.7536 19.416H61.9679C62.3245 19.416 62.5934 19.24 62.7745 18.888C62.9557 18.5253 63.0463 18.0027 63.0463 17.32C63.0463 15.912 62.6868 15.208 61.9679 15.208H60.7536V19.416Z" fill="#FF9900"/>
<path d="M64.962 25V16.888H65.6667L65.7601 18.088C65.9186 17.768 66.0658 17.5227 66.2017 17.352C66.3375 17.1707 66.4762 17.0373 66.6178 16.952C66.7593 16.8667 66.9121 16.824 67.0763 16.824C67.1838 16.824 67.2999 16.84 67.4244 16.872V18.312C67.2433 18.2693 67.0904 18.248 66.9659 18.248C66.513 18.248 66.1253 18.504 65.8026 19.016V25H64.962Z" fill="#FF9900"/>
<path d="M69.9232 25.24C69.2779 25.24 68.7741 24.8613 68.4118 24.104C68.0495 23.3467 67.8684 22.2907 67.8684 20.936C67.8684 19.592 68.0495 18.5413 68.4118 17.784C68.7741 17.0267 69.2779 16.648 69.9232 16.648C70.5686 16.648 71.0724 17.0267 71.4347 17.784C71.797 18.5413 71.9781 19.592 71.9781 20.936C71.9781 22.2907 71.797 23.3467 71.4347 24.104C71.0724 24.8613 70.5686 25.24 69.9232 25.24ZM69.9232 23.96C70.7214 23.96 71.1205 22.952 71.1205 20.936C71.1205 18.9307 70.7214 17.928 69.9232 17.928C69.1251 17.928 68.726 18.9307 68.726 20.936C68.726 22.952 69.1251 23.96 69.9232 23.96Z" fill="#FF9900"/>
<path d="M73.3798 25V18.136H72.5816V17.112L73.3798 16.92V15.608C73.3798 13.8267 73.8327 12.936 74.7384 12.936C75.0554 12.936 75.3385 13.032 75.5875 13.224V14.344C75.2988 14.2587 75.0781 14.216 74.9252 14.216C74.6648 14.216 74.4809 14.312 74.3733 14.504C74.2714 14.6853 74.2205 14.9893 74.2205 15.416V16.888H77.0395V25H76.1989V18.136H74.2205V25H73.3798ZM76.6235 15.448C76.4593 15.448 76.3291 15.3627 76.2329 15.192C76.1423 15.0107 76.097 14.776 76.097 14.488C76.097 14.2 76.1423 13.9707 76.2329 13.8C76.3291 13.6187 76.4593 13.528 76.6235 13.528C76.7876 13.528 76.915 13.6187 77.0056 13.8C77.1018 13.9707 77.1499 14.2 77.1499 14.488C77.1499 14.776 77.1018 15.0107 77.0056 15.192C76.915 15.3627 76.7876 15.448 76.6235 15.448Z" fill="#FF9900"/>
<path d="M79.9104 24.888C79.7236 25.016 79.5198 25.08 79.299 25.08C78.999 25.08 78.7697 24.92 78.6112 24.6C78.4527 24.2693 78.3735 23.8 78.3735 23.192V13.16H79.2141V23.096C79.2141 23.3413 79.2396 23.5227 79.2905 23.64C79.3471 23.7467 79.4377 23.8 79.5622 23.8C79.6755 23.8 79.7915 23.784 79.9104 23.752V24.888Z" fill="#FF9900"/>
<path d="M81.4316 21.288C81.443 22.2053 81.5618 22.8827 81.7883 23.32C82.0204 23.7573 82.377 23.976 82.8582 23.976C83.3054 23.976 83.7611 23.8107 84.2252 23.48V24.616C83.8177 25.032 83.3195 25.24 82.7308 25.24C82.0345 25.24 81.5081 24.8773 81.1514 24.152C80.7948 23.4267 80.6165 22.3547 80.6165 20.936C80.6165 19.5813 80.7948 18.5307 81.1514 17.784C81.5081 17.0267 82.0062 16.648 82.6459 16.648C83.1837 16.648 83.5969 16.936 83.8856 17.512C84.1743 18.0773 84.3187 18.8827 84.3187 19.928C84.3187 20.4293 84.296 20.8827 84.2507 21.288H81.4316ZM82.6034 17.848C82.2468 17.848 81.9694 18.0507 81.7713 18.456C81.5732 18.8507 81.4599 19.4427 81.4316 20.232H83.5459C83.5516 20.1467 83.5544 20.008 83.5544 19.816C83.5544 19.1653 83.4724 18.6747 83.3082 18.344C83.1497 18.0133 82.9148 17.848 82.6034 17.848Z" fill="#FF9900"/>
<path d="M120.673 35L121.112 35.24L121.241 35.0036L121.115 34.7656L120.673 35ZM2.72475 35.1874L2.24626 35.3325L2.72475 35.1874ZM3.90246 37.6278L4.30343 37.3291L3.90246 37.6278ZM118.23 38.8029L118.585 39.1551L118.23 38.8029ZM119.669 36.8351L120.108 37.075L119.669 36.8351ZM112.978 42V41.5H9.49123V42V42.5H112.978V42ZM2.72475 35.1874L3.20323 35.0423L2.53991 32.8549L2.06143 33L1.58295 33.1451L2.24626 35.3325L2.72475 35.1874ZM9.49123 42V41.5C8.85734 41.5 7.98695 41.0593 7.01223 40.251C6.06244 39.4634 5.10259 38.4019 4.30343 37.3291L3.90246 37.6278L3.50149 37.9265C4.33528 39.0458 5.34831 40.1703 6.37391 41.0208C7.37458 41.8506 8.4821 42.5 9.49123 42.5V42ZM118.23 38.8029L117.875 38.4508C116.879 39.4553 115.968 40.225 115.139 40.7412C114.308 41.2589 113.593 41.5 112.978 41.5V42V42.5C113.85 42.5 114.75 42.1614 115.668 41.59C116.588 41.0171 117.56 40.1883 118.585 39.1551L118.23 38.8029ZM120.408 34.5L119.966 34.7344L120.232 35.2344L120.673 35L121.115 34.7656L120.85 34.2656L120.408 34.5ZM120.673 35L120.235 34.76L119.231 36.5951L119.669 36.8351L120.108 37.075L121.112 35.24L120.673 35ZM2.72475 35.1874L2.24626 35.3325C2.52157 36.2403 2.91333 37.137 3.50149 37.9265L3.90246 37.6278L4.30343 37.3291C3.8041 36.6588 3.4562 35.8764 3.20323 35.0423L2.72475 35.1874ZM118.23 38.8029L118.585 39.1551C119.2 38.5357 119.699 37.8237 120.108 37.075L119.669 36.8351L119.231 36.5951C118.857 37.2791 118.411 37.9108 117.875 38.4508L118.23 38.8029ZM40.3993 25L39.4178 25.1917L39.5757 26H40.3993V25ZM38.234 13.912V12.912H37.0199L37.2526 14.1037L38.234 13.912ZM39.1851 13.912L40.1693 13.7352L40.0215 12.912H39.1851V13.912ZM40.8833 23.368L39.899 23.5448H41.8675L40.8833 23.368ZM42.5815 13.912V12.912H41.7451L41.5973 13.7352L42.5815 13.912ZM43.4986 13.912L44.4801 14.1037L44.7128 12.912H43.4986V13.912ZM41.3333 25V26H42.1569L42.3148 25.1917L41.3333 25ZM44.2853 25H43.2853V26H44.2853V25ZM44.2853 16.888V15.888H43.2853V16.888H44.2853ZM45.1259 16.888H46.1259V15.888H45.1259V16.888ZM45.1259 25V26H46.1259V25H45.1259ZM44.3193 15.192L43.4246 15.6388L43.4359 15.6613L43.4482 15.6832L44.3193 15.192ZM44.3193 13.8L43.4359 13.3312V13.3312L44.3193 13.8ZM45.092 13.8L44.1973 14.2468L44.2086 14.2693L44.2209 14.2912L45.092 13.8ZM45.092 15.192L44.2086 14.7232L45.092 15.192ZM47.0524 21.288V20.288H46.04L46.0525 21.3003L47.0524 21.288ZM47.4091 23.32L46.521 23.7798L46.5258 23.7888L47.4091 23.32ZM49.8461 23.48H50.8461V21.5399L49.2659 22.6655L49.8461 23.48ZM49.8461 24.616L50.5604 25.3158L50.8461 25.0242V24.616H49.8461ZM46.7722 24.152L47.6696 23.7108L46.7722 24.152ZM46.7722 17.784L47.6746 18.215L47.6769 18.21L46.7722 17.784ZM49.5064 17.512L48.6124 17.9601L48.6158 17.9668L49.5064 17.512ZM49.8715 21.288V22.288H50.766L50.8653 21.399L49.8715 21.288ZM47.3921 18.456L48.2858 18.9047L48.2905 18.8951L47.3921 18.456ZM47.0524 20.232L46.0531 20.1962L46.0159 21.232H47.0524V20.232ZM49.1668 20.232V21.232H50.1026L50.1646 20.2982L49.1668 20.232ZM48.929 18.344L48.0272 18.7763L48.0333 18.7887L48.929 18.344ZM54.5272 25L53.5375 25.1429L53.6612 26H54.5272V25ZM53.6102 18.648L54.5999 18.5051L52.6203 18.5064L53.6102 18.648ZM52.7016 25V26H53.5688L53.6916 25.1416L52.7016 25ZM51.8525 25L50.8673 25.1712L51.0113 26H51.8525V25ZM50.443 16.888V15.888H49.2542L49.4577 17.0592L50.443 16.888ZM51.326 16.888L52.3151 16.7406L52.1881 15.888H51.326V16.888ZM52.2941 23.384L51.305 23.5314L53.2842 23.5238L52.2941 23.384ZM53.2111 16.888V15.888H52.3424L52.2209 16.7482L53.2111 16.888ZM54.0517 16.888L55.0421 16.7499L54.922 15.888H54.0517V16.888ZM54.9688 23.464L53.9784 23.6021L55.9576 23.6134L54.9688 23.464ZM55.9623 16.888V15.888H55.102L54.9735 16.7386L55.9623 16.888ZM56.8199 16.888L57.8044 17.0632L58.0135 15.888H56.8199V16.888ZM55.3764 25V26H56.2141L56.3609 25.1752L55.3764 25ZM60.7536 20.712V19.712H59.7536V20.712H60.7536ZM60.7536 25V26H61.7536V25H60.7536ZM59.913 25H58.913V26H59.913V25ZM59.913 13.912V12.912H58.913V13.912H59.913ZM63.4114 14.84L62.5348 15.3213L62.5384 15.3277L63.4114 14.84ZM63.4114 19.8L64.2844 20.2877L64.288 20.2812L63.4114 19.8ZM60.7536 19.416H59.7536V20.416H60.7536V19.416ZM62.7745 18.888L63.6638 19.3456L63.6692 19.3348L62.7745 18.888ZM60.7536 15.208V14.208H59.7536V15.208H60.7536ZM64.962 25H63.962V26H64.962V25ZM64.962 16.888V15.888H63.962V16.888H64.962ZM65.6667 16.888L66.6637 16.8104L66.5919 15.888H65.6667V16.888ZM65.7601 18.088L64.7632 18.1656L65.0449 21.785L66.6562 18.5319L65.7601 18.088ZM66.2017 17.352L66.9841 17.9748L66.9932 17.9633L67.002 17.9516L66.2017 17.352ZM66.6178 16.952L67.1341 17.8084V17.8084L66.6178 16.952ZM67.4244 16.872H68.4244V16.0965L67.6733 15.9035L67.4244 16.872ZM67.4244 18.312L67.1952 19.2854L68.4244 19.5749V18.312H67.4244ZM65.8026 19.016L64.9566 18.4828L64.8026 18.7272V19.016H65.8026ZM65.8026 25V26H66.8026V25H65.8026ZM68.4118 24.104L67.5097 24.5355L68.4118 24.104ZM68.4118 17.784L67.5097 17.3525V17.3525L68.4118 17.784ZM71.4347 17.784L72.3368 17.3525V17.3525L71.4347 17.784ZM71.4347 24.104L72.3368 24.5355L71.4347 24.104ZM73.3798 25H72.3798V26H73.3798V25ZM73.3798 18.136H74.3798V17.136H73.3798V18.136ZM72.5816 18.136H71.5816V19.136H72.5816V18.136ZM72.5816 17.112L72.3478 16.1397L71.5816 16.324V17.112H72.5816ZM73.3798 16.92L73.6137 17.8923L74.3798 17.708V16.92H73.3798ZM75.5875 13.224H76.5875V12.7322L76.1981 12.432L75.5875 13.224ZM75.5875 14.344L75.3041 15.303L76.5875 15.6823V14.344H75.5875ZM74.3733 14.504L75.2451 14.9939L75.2457 14.9927L74.3733 14.504ZM74.2205 16.888H73.2205V17.888H74.2205V16.888ZM77.0395 16.888H78.0395V15.888H77.0395V16.888ZM77.0395 25V26H78.0395V25H77.0395ZM76.1989 25H75.1989V26H76.1989V25ZM76.1989 18.136H77.1989V17.136H76.1989V18.136ZM74.2205 18.136V17.136H73.2205V18.136H74.2205ZM74.2205 25V26H75.2205V25H74.2205ZM76.2329 15.192L75.3383 15.6388L75.3495 15.6613L75.3618 15.6832L76.2329 15.192ZM76.2329 13.8L75.3496 13.3312V13.3312L76.2329 13.8ZM77.0056 13.8L76.111 14.2468L76.1222 14.2693L76.1345 14.2912L77.0056 13.8ZM77.0056 15.192L77.8889 15.6608L77.0056 15.192ZM79.9104 24.888L80.4756 25.7129L80.9104 25.415V24.888H79.9104ZM78.6112 24.6L77.7094 25.0323L77.7151 25.0439L78.6112 24.6ZM78.3735 13.16V12.16H77.3735V13.16H78.3735ZM79.2141 13.16H80.2141V12.16H79.2141V13.16ZM79.2905 23.64L78.3733 24.0383L78.3888 24.0742L78.4072 24.1088L79.2905 23.64ZM79.9104 23.752H80.9104V22.4472L79.6504 22.7864L79.9104 23.752ZM81.4316 21.288V20.288H80.4192L80.4317 21.3003L81.4316 21.288ZM81.7883 23.32L80.9002 23.7798L80.9049 23.7888L81.7883 23.32ZM84.2252 23.48H85.2252V21.5399L83.6451 22.6655L84.2252 23.48ZM84.2252 24.616L84.9395 25.3158L85.2252 25.0242V24.616H84.2252ZM81.1514 24.152L82.0488 23.7108L81.1514 24.152ZM81.1514 17.784L82.0538 18.215L82.0561 18.21L81.1514 17.784ZM83.8856 17.512L82.9916 17.9601L82.995 17.9668L83.8856 17.512ZM84.2507 21.288V22.288H85.1452L85.2445 21.399L84.2507 21.288ZM81.7713 18.456L82.665 18.9047L82.6697 18.8951L81.7713 18.456ZM81.4316 20.232L80.4323 20.1962L80.3951 21.232H81.4316V20.232ZM83.5459 20.232V21.232H84.4818L84.5438 20.2982L83.5459 20.232ZM83.3082 18.344L82.4064 18.7763L82.4125 18.7887L83.3082 18.344ZM6.30702 1V2H116.693V1V0H6.30702V1ZM122 11H121V28H122H123V11H122ZM116.693 38V37H6.30702V38V39H116.693V38ZM1 28H2V11H1H0V28H1ZM6.30702 38V37C5.3932 37 4.33069 36.2849 3.43771 34.6023C2.56816 32.9638 2 30.6313 2 28H1H0C0 30.8916 0.619859 33.559 1.67107 35.5398C2.69886 37.4765 4.28986 39 6.30702 39V38ZM122 28H121C121 30.6313 120.432 32.9638 119.562 34.6023C118.669 36.2849 117.607 37 116.693 37V38V39C118.71 39 120.301 37.4765 121.329 35.5398C122.38 33.559 123 30.8916 123 28H122ZM116.693 1V2C117.607 2 118.669 2.71507 119.562 4.39771C120.432 6.0362 121 8.36875 121 11H122H123C123 8.10841 122.38 5.44096 121.329 3.46015C120.301 1.52351 118.71 0 116.693 0V1ZM6.30702 1V0C4.28985 0 2.69886 1.52351 1.67107 3.46016C0.619858 5.44096 0 8.10841 0 11H1H2C2 8.36875 2.56816 6.0362 3.43771 4.39771C4.33069 2.71507 5.3932 2 6.30702 2V1ZM40.3993 25L41.3808 24.8083L39.2155 13.7203L38.234 13.912L37.2526 14.1037L39.4178 25.1917L40.3993 25ZM38.234 13.912V14.912H39.1851V13.912V12.912H38.234V13.912ZM39.1851 13.912L38.2008 14.0888L39.899 23.5448L40.8833 23.368L41.8675 23.1912L40.1693 13.7352L39.1851 13.912ZM40.8833 23.368L41.8675 23.5448L43.5658 14.0888L42.5815 13.912L41.5973 13.7352L39.899 23.1912L40.8833 23.368ZM42.5815 13.912V14.912H43.4986V13.912V12.912H42.5815V13.912ZM43.4986 13.912L42.5171 13.7203L40.3519 24.8083L41.3333 25L42.3148 25.1917L44.4801 14.1037L43.4986 13.912ZM41.3333 25V24H40.3993V25V26H41.3333V25ZM44.2853 25H45.2853V16.888H44.2853H43.2853V25H44.2853ZM44.2853 16.888V17.888H45.1259V16.888V15.888H44.2853V16.888ZM45.1259 16.888H44.1259V25H45.1259H46.1259V16.888H45.1259ZM45.1259 25V24H44.2853V25V26H45.1259V25ZM44.7099 15.448V14.448C44.8114 14.448 44.9304 14.4776 45.0373 14.5476C45.1359 14.6123 45.1798 14.6821 45.1903 14.7008L44.3193 15.192L43.4482 15.6832C43.6809 16.0959 44.1088 16.448 44.7099 16.448V15.448ZM44.3193 15.192L45.2139 14.7452C45.2155 14.7484 45.1834 14.6819 45.1834 14.488H44.1834H43.1834C43.1834 14.8701 43.2419 15.2729 43.4246 15.6388L44.3193 15.192ZM44.1834 14.488H45.1834C45.1834 14.3947 45.1909 14.3319 45.1984 14.2937C45.2059 14.2556 45.2116 14.2518 45.2026 14.2688L44.3193 13.8L43.4359 13.3312C43.2403 13.6999 43.1834 14.1105 43.1834 14.488H44.1834ZM44.3193 13.8L45.2026 14.2688C45.1974 14.2786 45.1585 14.3484 45.0605 14.4166C44.9519 14.4923 44.8246 14.528 44.7099 14.528V13.528V12.528C44.0775 12.528 43.6542 12.9199 43.4359 13.3312L44.3193 13.8ZM44.7099 13.528V14.528C44.5951 14.528 44.463 14.4921 44.3486 14.4107C44.2451 14.337 44.2042 14.2606 44.1973 14.2468L45.092 13.8L45.9866 13.3532C45.7745 12.9285 45.3492 12.528 44.7099 12.528V13.528ZM45.092 13.8L44.2209 14.2912C44.21 14.2718 44.2145 14.2719 44.2215 14.3053C44.2286 14.3392 44.2363 14.398 44.2363 14.488H45.2363H46.2363C46.2363 14.1032 46.1743 13.6836 45.963 13.3088L45.092 13.8ZM45.2363 14.488H44.2363C44.2363 14.6746 44.2037 14.7326 44.2086 14.7232L45.092 15.192L45.9753 15.6608C46.1727 15.2887 46.2363 14.8774 46.2363 14.488H45.2363ZM45.092 15.192L44.2086 14.7232C44.221 14.6999 44.2673 14.6233 44.3719 14.5532C44.4847 14.4776 44.6085 14.448 44.7099 14.448V15.448V16.448C45.3169 16.448 45.7483 16.0885 45.9753 15.6608L45.092 15.192ZM47.0524 21.288L46.0525 21.3003C46.0644 22.2612 46.1848 23.1304 46.521 23.7798L47.4091 23.32L48.2971 22.8602C48.1805 22.6349 48.0631 22.1495 48.0524 21.2757L47.0524 21.288ZM47.4091 23.32L46.5258 23.7888C46.7101 24.1361 46.9714 24.4459 47.3279 24.6645C47.686 24.8841 48.0821 24.976 48.479 24.976V23.976V22.976C48.4345 22.976 48.4077 22.971 48.394 22.9674C48.3811 22.9641 48.3757 22.9609 48.3733 22.9595C48.3732 22.9594 48.3402 22.9412 48.2924 22.8512L47.4091 23.32ZM48.479 23.976V24.976C49.1849 24.976 49.8393 24.7126 50.4263 24.2945L49.8461 23.48L49.2659 22.6655C48.9245 22.9087 48.6675 22.976 48.479 22.976V23.976ZM49.8461 23.48H48.8461V24.616H49.8461H50.8461V23.48H49.8461ZM49.8461 24.616L49.1318 23.9162C48.9146 24.1378 48.6749 24.24 48.3516 24.24V25.24V26.24C49.2058 26.24 49.9624 25.9262 50.5604 25.3158L49.8461 24.616ZM48.3516 25.24V24.24C48.1871 24.24 48.0833 24.2006 48.0018 24.1445C47.9121 24.0827 47.792 23.9597 47.6696 23.7108L46.7722 24.152L45.8748 24.5932C46.1091 25.0696 46.4305 25.4907 46.8672 25.7915C47.3123 26.0981 47.8198 26.24 48.3516 26.24V25.24ZM46.7722 24.152L47.6696 23.7108C47.4137 23.1902 47.2373 22.3007 47.2373 20.936H46.2373H45.2373C45.2373 22.4087 45.4175 23.6632 45.8748 24.5932L46.7722 24.152ZM46.2373 20.936H47.2373C47.2373 19.6467 47.4106 18.7678 47.6746 18.215L46.7722 17.784L45.8699 17.353C45.4206 18.2935 45.2373 19.5159 45.2373 20.936H46.2373ZM46.7722 17.784L47.6769 18.21C47.9292 17.6743 48.1388 17.648 48.2667 17.648V16.648V15.648C47.1152 15.648 46.3285 16.3791 45.8675 17.358L46.7722 17.784ZM48.2667 16.648V17.648C48.3457 17.648 48.3809 17.6654 48.4082 17.6844C48.4451 17.7101 48.5224 17.7805 48.6124 17.9601L49.5064 17.512L50.4004 17.0639C50.2017 16.6675 49.928 16.3059 49.5517 16.0436C49.1658 15.7746 48.7254 15.648 48.2667 15.648V16.648ZM49.5064 17.512L48.6158 17.9668C48.8005 18.3284 48.9395 18.9505 48.9395 19.928H49.9395H50.9395C50.9395 18.8148 50.7897 17.8263 50.397 17.0572L49.5064 17.512ZM49.9395 19.928H48.9395C48.9395 20.4003 48.9181 20.8157 48.8777 21.177L49.8715 21.288L50.8653 21.399C50.9156 20.9496 50.9395 20.4584 50.9395 19.928H49.9395ZM49.8715 21.288V20.288H47.0524V21.288V22.288H49.8715V21.288ZM48.2242 17.848V16.848C47.3777 16.848 46.8063 17.3772 46.4937 18.0169L47.3921 18.456L48.2905 18.8951C48.3398 18.7944 48.3658 18.7876 48.3387 18.8074C48.3241 18.8181 48.3025 18.8301 48.2761 18.8385C48.2501 18.8468 48.231 18.848 48.2242 18.848V17.848ZM47.3921 18.456L46.4984 18.0073C46.2034 18.5949 46.0831 19.359 46.0531 20.1962L47.0524 20.232L48.0518 20.2678C48.0784 19.5263 48.1845 19.1064 48.2858 18.9047L47.3921 18.456ZM47.0524 20.232V21.232H49.1668V20.232V19.232H47.0524V20.232ZM49.1668 20.232L50.1646 20.2982C50.1726 20.1771 50.1752 20.0099 50.1752 19.816H49.1752H48.1752C48.1752 20.0061 48.1722 20.1162 48.1689 20.1658L49.1668 20.232ZM49.1752 19.816H50.1752C50.1752 19.1117 50.0914 18.4365 49.8247 17.8993L48.929 18.344L48.0333 18.7887C48.0949 18.9128 48.1752 19.2189 48.1752 19.816H49.1752ZM48.929 18.344L49.8308 17.9118C49.6976 17.6339 49.5004 17.359 49.2095 17.1542C48.9092 16.9429 48.5678 16.848 48.2242 16.848V17.848V18.848C48.2128 18.848 48.1875 18.8463 48.1537 18.8361C48.1192 18.8257 48.0863 18.8094 48.0584 18.7898C48.0024 18.7504 48.0019 18.7235 48.0272 18.7762L48.929 18.344ZM54.5272 25L55.517 24.8571L54.5999 18.5051L53.6102 18.648L52.6204 18.7909L53.5375 25.1429L54.5272 25ZM53.6102 18.648L52.6203 18.5064L51.7117 24.8584L52.7016 25L53.6916 25.1416L54.6001 18.7896L53.6102 18.648ZM52.7016 25V24H51.8525V25V26H52.7016V25ZM51.8525 25L52.8377 24.8288L51.4282 16.7168L50.443 16.888L49.4577 17.0592L50.8673 25.1712L51.8525 25ZM50.443 16.888V17.888H51.326V16.888V15.888H50.443V16.888ZM51.326 16.888L50.337 17.0354L51.305 23.5314L52.2941 23.384L53.2831 23.2366L52.3151 16.7406L51.326 16.888ZM52.2941 23.384L53.2842 23.5238L54.2013 17.0278L53.2111 16.888L52.2209 16.7482L51.3039 23.2442L52.2941 23.384ZM53.2111 16.888V17.888H54.0517V16.888V15.888H53.2111V16.888ZM54.0517 16.888L53.0613 17.0261L53.9784 23.6021L54.9688 23.464L55.9592 23.3259L55.0421 16.7499L54.0517 16.888ZM54.9688 23.464L55.9576 23.6134L56.951 17.0374L55.9623 16.888L54.9735 16.7386L53.98 23.3146L54.9688 23.464ZM55.9623 16.888V17.888H56.8199V16.888V15.888H55.9623V16.888ZM56.8199 16.888L55.8353 16.7128L54.3918 24.8248L55.3764 25L56.3609 25.1752L57.8044 17.0632L56.8199 16.888ZM55.3764 25V24H54.5272V25V26H55.3764V25ZM60.7536 20.712H59.7536V25H60.7536H61.7536V20.712H60.7536ZM60.7536 25V24H59.913V25V26H60.7536V25ZM59.913 25H60.913V13.912H59.913H58.913V25H59.913ZM59.913 13.912V14.912H62.0443V13.912V12.912H59.913V13.912ZM62.0443 13.912V14.912C62.1601 14.912 62.3222 14.9339 62.5348 15.3212L63.4114 14.84L64.288 14.3588C63.8213 13.5087 63.072 12.912 62.0443 12.912V13.912ZM63.4114 14.84L62.5384 15.3277C62.7633 15.7303 62.9209 16.3665 62.9209 17.32H63.9209H64.9209C64.9209 16.1829 64.7388 15.1657 64.2844 14.3523L63.4114 14.84ZM63.9209 17.32H62.9209C62.9209 18.2593 62.7645 18.9005 62.5348 19.3188L63.4114 19.8L64.288 20.2812C64.7376 19.4622 64.9209 18.45 64.9209 17.32H63.9209ZM63.4114 19.8L62.5384 19.3123C62.3299 19.6856 62.169 19.712 62.0443 19.712V20.712V21.712C63.0631 21.712 63.8136 21.1304 64.2844 20.2877L63.4114 19.8ZM62.0443 20.712V19.712H60.7536V20.712V21.712H62.0443V20.712ZM60.7536 19.416V20.416H61.9679V19.416V18.416H60.7536V19.416ZM61.9679 19.416V20.416C62.3186 20.416 62.6699 20.3268 62.9847 20.1207C63.2938 19.9184 63.5122 19.64 63.6637 19.3456L62.7745 18.888L61.8854 18.4304C61.8558 18.488 61.8491 18.4736 61.8894 18.4473C61.9084 18.4348 61.9292 18.4257 61.9481 18.4204C61.9661 18.4153 61.9743 18.416 61.9679 18.416V19.416ZM62.7745 18.888L63.6692 19.3348C63.9517 18.7693 64.0463 18.0651 64.0463 17.32H63.0463H62.0463C62.0463 17.9402 61.9597 18.2814 61.8799 18.4412L62.7745 18.888ZM63.0463 17.32H64.0463C64.0463 16.5633 63.9551 15.8448 63.6673 15.2812C63.516 14.985 63.297 14.7055 62.9863 14.5026C62.6704 14.2964 62.3184 14.208 61.9679 14.208V15.208V16.208C61.9769 16.208 61.9393 16.2076 61.893 16.1774C61.852 16.1505 61.8576 16.135 61.8861 16.1907C61.9577 16.3312 62.0463 16.6687 62.0463 17.32H63.0463ZM61.9679 15.208V14.208H60.7536V15.208V16.208H61.9679V15.208ZM60.7536 15.208H59.7536V19.416H60.7536H61.7536V15.208H60.7536ZM64.962 25H65.962V16.888H64.962H63.962V25H64.962ZM64.962 16.888V17.888H65.6667V16.888V15.888H64.962V16.888ZM65.6667 16.888L64.6698 16.9656L64.7632 18.1656L65.7601 18.088L66.7571 18.0104L66.6637 16.8104L65.6667 16.888ZM65.7601 18.088L66.6562 18.5319C66.8005 18.2407 66.9112 18.0663 66.9841 17.9748L66.2017 17.352L65.4193 16.7292C65.2204 16.9791 65.0368 17.2953 64.864 17.6441L65.7601 18.088ZM66.2017 17.352L67.002 17.9516C67.0874 17.8376 67.1356 17.8075 67.1341 17.8084L66.6178 16.952L66.1014 16.0956C65.8169 16.2672 65.5877 16.5038 65.4014 16.7524L66.2017 17.352ZM66.6178 16.952L67.1341 17.8084C67.1308 17.8104 67.1215 17.8153 67.1074 17.8192C67.0933 17.8231 67.0819 17.824 67.0763 17.824V16.824V15.824C66.7289 15.824 66.3977 15.917 66.1014 16.0956L66.6178 16.952ZM67.0763 16.824V17.824C67.0854 17.824 67.117 17.8255 67.1756 17.8405L67.4244 16.872L67.6733 15.9035C67.4827 15.8545 67.2822 15.824 67.0763 15.824V16.824ZM67.4244 16.872H66.4244V18.312H67.4244H68.4244V16.872H67.4244ZM67.4244 18.312L67.6537 17.3386C67.4305 17.2861 67.1955 17.248 66.9659 17.248V18.248V19.248C66.9854 19.248 67.0561 19.2526 67.1952 19.2854L67.4244 18.312ZM66.9659 18.248V17.248C66.0576 17.248 65.3935 17.7896 64.9566 18.4828L65.8026 19.016L66.6486 19.5492C66.7561 19.3786 66.8413 19.3043 66.8864 19.2745C66.9213 19.2515 66.9407 19.248 66.9659 19.248V18.248ZM65.8026 19.016H64.8026V25H65.8026H66.8026V19.016H65.8026ZM65.8026 25V24H64.962V25V26H65.8026V25ZM69.9232 25.24V24.24C69.784 24.24 69.5695 24.2068 69.3139 23.6725L68.4118 24.104L67.5097 24.5355C67.9787 25.5158 68.7718 26.24 69.9232 26.24V25.24ZM68.4118 24.104L69.3139 23.6725C69.0437 23.1078 68.8684 22.2226 68.8684 20.936H67.8684H66.8684C66.8684 22.3588 67.0553 23.5856 67.5097 24.5355L68.4118 24.104ZM67.8684 20.936H68.8684C68.8684 19.6615 69.0434 18.781 69.3139 18.2155L68.4118 17.784L67.5097 17.3525C67.0556 18.3016 66.8684 19.5225 66.8684 20.936H67.8684ZM68.4118 17.784L69.3139 18.2155C69.5695 17.6812 69.784 17.648 69.9232 17.648V16.648V15.648C68.7718 15.648 67.9787 16.3722 67.5097 17.3525L68.4118 17.784ZM69.9232 16.648V17.648C70.0625 17.648 70.277 17.6812 70.5326 18.2155L71.4347 17.784L72.3368 17.3525C71.8678 16.3722 71.0746 15.648 69.9232 15.648V16.648ZM71.4347 17.784L70.5326 18.2155C70.8031 18.781 70.9781 19.6615 70.9781 20.936H71.9781H72.9781C72.9781 19.5225 72.7908 18.3016 72.3368 17.3525L71.4347 17.784ZM71.9781 20.936H70.9781C70.9781 22.2226 70.8027 23.1078 70.5326 23.6725L71.4347 24.104L72.3368 24.5355C72.7912 23.5856 72.9781 22.3588 72.9781 20.936H71.9781ZM71.4347 24.104L70.5326 23.6725C70.277 24.2068 70.0625 24.24 69.9232 24.24V25.24V26.24C71.0746 26.24 71.8678 25.5158 72.3368 24.5355L71.4347 24.104ZM69.9232 23.96V24.96C70.3533 24.96 70.7572 24.817 71.0911 24.536C71.4067 24.2702 71.6125 23.9218 71.751 23.5721C72.0212 22.8895 72.1205 21.9807 72.1205 20.936H71.1205H70.1205C70.1205 21.9073 70.0202 22.5105 69.8914 22.8359C69.8303 22.9902 69.7867 23.0198 69.803 23.006C69.8375 22.977 69.8923 22.96 69.9232 22.96V23.96ZM71.1205 20.936H72.1205C72.1205 19.8964 72.0212 18.9908 71.7503 18.3102C71.6114 17.9614 71.4051 17.614 71.0891 17.3493C70.7551 17.0697 70.3519 16.928 69.9232 16.928V17.928V18.928C69.8937 18.928 69.8396 18.9117 69.805 18.8827C69.7883 18.8687 69.8314 18.8973 69.8921 19.0498C70.0203 19.3719 70.1205 19.9703 70.1205 20.936H71.1205ZM69.9232 17.928V16.928C69.4946 16.928 69.0913 17.0697 68.7574 17.3493C68.4414 17.614 68.235 17.9614 68.0962 18.3102C67.8253 18.9908 67.726 19.8964 67.726 20.936H68.726H69.726C69.726 19.9703 69.8262 19.3719 69.9544 19.0498C70.0151 18.8973 70.0582 18.8687 70.0415 18.8827C70.0068 18.9117 69.9528 18.928 69.9232 18.928V17.928ZM68.726 20.936H67.726C67.726 21.9807 67.8253 22.8895 68.0955 23.5721C68.2339 23.9218 68.4397 24.2702 68.7554 24.536C69.0892 24.817 69.4932 24.96 69.9232 24.96V23.96V22.96C69.9542 22.96 70.009 22.977 70.0435 23.006C70.0598 23.0198 70.0162 22.9902 69.9551 22.8359C69.8262 22.5105 69.726 21.9073 69.726 20.936H68.726ZM73.3798 25H74.3798V18.136H73.3798H72.3798V25H73.3798ZM73.3798 18.136V17.136H72.5816V18.136V19.136H73.3798V18.136ZM72.5816 18.136H73.5816V17.112H72.5816H71.5816V18.136H72.5816ZM72.5816 17.112L72.8155 18.0843L73.6137 17.8923L73.3798 16.92L73.146 15.9477L72.3478 16.1397L72.5816 17.112ZM73.3798 16.92H74.3798V15.608H73.3798H72.3798V16.92H73.3798ZM73.3798 15.608H74.3798C74.3798 14.7697 74.4918 14.2915 74.6109 14.0572C74.6631 13.9545 74.6983 13.9354 74.6923 13.9393C74.6808 13.9468 74.6836 13.936 74.7384 13.936V12.936V11.936C74.3404 11.936 73.9469 12.0365 73.5958 12.2667C73.2501 12.4933 73.0023 12.8082 72.8281 13.1508C72.4943 13.8072 72.3798 14.665 72.3798 15.608H73.3798ZM74.7384 12.936V13.936C74.8364 13.936 74.9044 13.96 74.977 14.016L75.5875 13.224L76.1981 12.432C75.7725 12.104 75.2744 11.936 74.7384 11.936V12.936ZM75.5875 13.224H74.5875V14.344H75.5875H76.5875V13.224H75.5875ZM75.5875 14.344L75.871 13.385C75.5612 13.2934 75.2272 13.216 74.9252 13.216V14.216V15.216C74.9158 15.216 74.9415 15.2155 75.0157 15.2298C75.086 15.2434 75.181 15.2666 75.3041 15.303L75.5875 14.344ZM74.9252 14.216V13.216C74.382 13.216 73.8208 13.4441 73.5009 14.0153L74.3733 14.504L75.2457 14.9927C75.2105 15.0556 75.1456 15.1271 75.0546 15.1746C74.9719 15.2177 74.9159 15.216 74.9252 15.216V14.216ZM74.3733 14.504L73.5015 14.0141C73.2653 14.4344 73.2205 14.9628 73.2205 15.416H74.2205H75.2205C75.2205 15.2387 75.2313 15.1144 75.2449 15.0333C75.2596 14.9456 75.2711 14.9476 75.2451 14.9939L74.3733 14.504ZM74.2205 15.416H73.2205V16.888H74.2205H75.2205V15.416H74.2205ZM74.2205 16.888V17.888H77.0395V16.888V15.888H74.2205V16.888ZM77.0395 16.888H76.0395V25H77.0395H78.0395V16.888H77.0395ZM77.0395 25V24H76.1989V25V26H77.0395V25ZM76.1989 25H77.1989V18.136H76.1989H75.1989V25H76.1989ZM76.1989 18.136V17.136H74.2205V18.136V19.136H76.1989V18.136ZM74.2205 18.136H73.2205V25H74.2205H75.2205V18.136H74.2205ZM74.2205 25V24H73.3798V25V26H74.2205V25ZM76.6235 15.448V14.448C76.725 14.448 76.844 14.4776 76.9509 14.5476C77.0496 14.6123 77.0934 14.6821 77.1039 14.7008L76.2329 15.192L75.3618 15.6832C75.5946 16.0959 76.0225 16.448 76.6235 16.448V15.448ZM76.2329 15.192L77.1275 14.7452C77.1291 14.7484 77.097 14.6819 77.097 14.488H76.097H75.097C75.097 14.8701 75.1555 15.2729 75.3383 15.6388L76.2329 15.192ZM76.097 14.488H77.097C77.097 14.3947 77.1045 14.3319 77.112 14.2937C77.1196 14.2556 77.1252 14.2518 77.1162 14.2688L76.2329 13.8L75.3496 13.3312C75.1539 13.6999 75.097 14.1105 75.097 14.488H76.097ZM76.2329 13.8L77.1162 14.2688C77.111 14.2786 77.0721 14.3484 76.9742 14.4166C76.8655 14.4923 76.7382 14.528 76.6235 14.528V13.528V12.528C75.9911 12.528 75.5678 12.9199 75.3496 13.3312L76.2329 13.8ZM76.6235 13.528V14.528C76.5087 14.528 76.3767 14.4921 76.2622 14.4107C76.1587 14.337 76.1178 14.2606 76.111 14.2468L77.0056 13.8L77.9002 13.3532C77.6881 12.9285 77.2628 12.528 76.6235 12.528V13.528ZM77.0056 13.8L76.1345 14.2912C76.1236 14.2718 76.1281 14.2719 76.1351 14.3053C76.1423 14.3392 76.1499 14.398 76.1499 14.488H77.1499H78.1499C78.1499 14.1032 78.088 13.6836 77.8766 13.3088L77.0056 13.8ZM77.1499 14.488H76.1499C76.1499 14.6747 76.1173 14.7326 76.1223 14.7232L77.0056 15.192L77.8889 15.6608C78.0864 15.2887 78.1499 14.8773 78.1499 14.488H77.1499ZM77.0056 15.192L76.1223 14.7232C76.1346 14.6999 76.181 14.6233 76.2855 14.5532C76.3983 14.4776 76.5221 14.448 76.6235 14.448V15.448V16.448C77.2306 16.448 77.6619 16.0885 77.8889 15.6608L77.0056 15.192ZM79.9104 24.888L79.3451 24.0631C79.3285 24.0745 79.3197 24.0773 79.3178 24.0779C79.3161 24.0785 79.3112 24.08 79.299 24.08V25.08V26.08C79.727 26.08 80.1269 25.9518 80.4756 25.7129L79.9104 24.888ZM79.299 25.08V24.08C79.3137 24.08 79.3413 24.0821 79.3766 24.0928C79.4126 24.1036 79.4462 24.1203 79.4743 24.14C79.5306 24.1792 79.5322 24.2063 79.5073 24.1561L78.6112 24.6L77.7151 25.0439C77.8488 25.3137 78.0442 25.5808 78.3297 25.78C78.6247 25.9859 78.9601 26.08 79.299 26.08V25.08ZM78.6112 24.6L79.513 24.1678C79.4482 24.0327 79.3735 23.7367 79.3735 23.192H78.3735H77.3735C77.3735 23.8633 77.4572 24.506 77.7095 25.0322L78.6112 24.6ZM78.3735 23.192H79.3735V13.16H78.3735H77.3735V23.192H78.3735ZM78.3735 13.16V14.16H79.2141V13.16V12.16H78.3735V13.16ZM79.2141 13.16H78.2141V23.096H79.2141H80.2141V13.16H79.2141ZM79.2141 23.096H78.2141C78.2141 23.3756 78.2379 23.7266 78.3733 24.0383L79.2905 23.64L80.2078 23.2417C80.2199 23.2697 80.2248 23.2881 80.2259 23.2921C80.227 23.2965 80.2256 23.2922 80.2235 23.2769C80.219 23.2448 80.2141 23.1867 80.2141 23.096H79.2141ZM79.2905 23.64L78.4072 24.1088C78.5089 24.3005 78.6665 24.488 78.8935 24.6217C79.1188 24.7544 79.3547 24.8 79.5622 24.8V23.8V22.8C79.6452 22.8 79.7735 22.8189 79.9083 22.8983C80.0448 22.9787 80.1287 23.0862 80.1738 23.1712L79.2905 23.64ZM79.5622 23.8V24.8C79.7705 24.8 79.974 24.7705 80.1703 24.7176L79.9104 23.752L79.6504 22.7864C79.609 22.7975 79.5804 22.8 79.5622 22.8V23.8ZM79.9104 23.752H78.9104V24.888H79.9104H80.9104V23.752H79.9104ZM81.4316 21.288L80.4317 21.3003C80.4436 22.2612 80.564 23.1304 80.9002 23.7798L81.7883 23.32L82.6763 22.8602C82.5596 22.6349 82.4423 22.1495 82.4316 21.2757L81.4316 21.288ZM81.7883 23.32L80.9049 23.7888C81.0893 24.1361 81.3506 24.4459 81.7071 24.6645C82.0652 24.8841 82.4613 24.976 82.8582 24.976V23.976V22.976C82.8137 22.976 82.7869 22.971 82.7732 22.9674C82.7603 22.9641 82.7549 22.9609 82.7525 22.9595C82.7524 22.9594 82.7193 22.9412 82.6716 22.8512L81.7883 23.32ZM82.8582 23.976V24.976C83.5641 24.976 84.2185 24.7126 84.8054 24.2945L84.2252 23.48L83.6451 22.6655C83.3037 22.9087 83.0467 22.976 82.8582 22.976V23.976ZM84.2252 23.48H83.2252V24.616H84.2252H85.2252V23.48H84.2252ZM84.2252 24.616L83.5109 23.9162C83.2937 24.1378 83.054 24.24 82.7308 24.24V25.24V26.24C83.585 26.24 84.3416 25.9262 84.9395 25.3158L84.2252 24.616ZM82.7308 25.24V24.24C82.5663 24.24 82.4625 24.2006 82.381 24.1445C82.2913 24.0827 82.1712 23.9597 82.0488 23.7108L81.1514 24.152L80.254 24.5932C80.4883 25.0696 80.8097 25.4907 81.2464 25.7915C81.6915 26.0981 82.199 26.24 82.7308 26.24V25.24ZM81.1514 24.152L82.0488 23.7108C81.7929 23.1902 81.6165 22.3007 81.6165 20.936H80.6165H79.6165C79.6165 22.4087 79.7967 23.6632 80.254 24.5932L81.1514 24.152ZM80.6165 20.936H81.6165C81.6165 19.6467 81.7897 18.7678 82.0538 18.215L81.1514 17.784L80.2491 17.353C79.7998 18.2935 79.6165 19.5159 79.6165 20.936H80.6165ZM81.1514 17.784L82.0561 18.21C82.3084 17.6743 82.518 17.648 82.6459 17.648V16.648V15.648C81.4944 15.648 80.7077 16.3791 80.2467 17.358L81.1514 17.784ZM82.6459 16.648V17.648C82.7249 17.648 82.7601 17.6654 82.7874 17.6844C82.8243 17.7101 82.9016 17.7805 82.9916 17.9601L83.8856 17.512L84.7796 17.0639C84.5809 16.6675 84.3072 16.3059 83.9309 16.0436C83.545 15.7746 83.1046 15.648 82.6459 15.648V16.648ZM83.8856 17.512L82.995 17.9668C83.1797 18.3284 83.3187 18.9505 83.3187 19.928H84.3187H85.3187C85.3187 18.8148 85.1689 17.8263 84.7762 17.0572L83.8856 17.512ZM84.3187 19.928H83.3187C83.3187 20.4003 83.2973 20.8157 83.2569 21.177L84.2507 21.288L85.2445 21.399C85.2947 20.9496 85.3187 20.4584 85.3187 19.928H84.3187ZM84.2507 21.288V20.288H81.4316V21.288V22.288H84.2507V21.288ZM82.6034 17.848V16.848C81.7569 16.848 81.1855 17.3772 80.8729 18.0169L81.7713 18.456L82.6697 18.8951C82.719 18.7944 82.745 18.7876 82.7179 18.8074C82.7033 18.8181 82.6817 18.8301 82.6553 18.8385C82.6293 18.8468 82.6102 18.848 82.6034 18.848V17.848ZM81.7713 18.456L80.8776 18.0073C80.5826 18.5949 80.4623 19.359 80.4323 20.1962L81.4316 20.232L82.431 20.2678C82.4576 19.5263 82.5637 19.1064 82.665 18.9047L81.7713 18.456ZM81.4316 20.232V21.232H83.5459V20.232V19.232H81.4316V20.232ZM83.5459 20.232L84.5438 20.2982C84.5518 20.1772 84.5544 20.0099 84.5544 19.816H83.5544H82.5544C82.5544 20.0061 82.5514 20.1162 82.5481 20.1658L83.5459 20.232ZM83.5544 19.816H84.5544C84.5544 19.1117 84.4706 18.4365 84.2039 17.8993L83.3082 18.344L82.4125 18.7887C82.4741 18.9128 82.5544 19.2189 82.5544 19.816H83.5544ZM83.3082 18.344L84.2099 17.9118C84.0767 17.6339 83.8796 17.359 83.5887 17.1542C83.2884 16.9429 82.947 16.848 82.6034 16.848V17.848V18.848C82.592 18.848 82.5667 18.8463 82.5329 18.8361C82.4984 18.8257 82.4655 18.8094 82.4376 18.7898C82.3816 18.7504 82.3811 18.7235 82.4064 18.7762L83.3082 18.344Z" fill="black" mask="url(#path-2-outside-1_1009_5)"/>
</svg>
