<svg width="133" height="43" viewBox="0 0 133 43" fill="none" xmlns="http://www.w3.org/2000/svg">
<rect x="4.44736" y="9.99997" width="124.105" height="32" rx="9" fill="#A5A3AA"/>
<mask id="path-2-outside-1_1009_1642" maskUnits="userSpaceOnUse" x="0" y="-3.05176e-05" width="133" height="43" fill="black">
<rect fill="white" y="-3.05176e-05" width="133" height="43"/>
<path d="M1 11C1 5.47712 3.5724 0.999969 6.74561 0.999969H126.254C129.428 0.999969 132 5.47712 132 11V28C132 33.5228 129.428 38 126.254 38H6.74562C3.5724 38 1 33.5228 1 28V11Z"/>
<path d="M43.6554 25L41.3112 13.912H42.3408L44.1794 23.368L46.018 13.912H47.0109L44.6667 25H43.6554Z"/>
<path d="M47.8626 25V16.888H48.7727V25H47.8626ZM48.3222 15.448C48.1445 15.448 48.0036 15.3626 47.8994 15.192C47.8013 15.0106 47.7523 14.776 47.7523 14.488C47.7523 14.2 47.8013 13.9706 47.8994 13.8C48.0036 13.6186 48.1445 13.528 48.3222 13.528C48.5 13.528 48.6379 13.6186 48.7359 13.8C48.8401 13.9706 48.8922 14.2 48.8922 14.488C48.8922 14.776 48.8401 15.0106 48.7359 15.192C48.6379 15.3626 48.5 15.448 48.3222 15.448Z"/>
<path d="M50.8584 21.288C50.8707 22.2053 50.9994 22.8826 51.2445 23.32C51.4958 23.7573 51.8819 23.976 52.4029 23.976C52.887 23.976 53.3804 23.8106 53.8829 23.48V24.616C53.4417 25.032 52.9023 25.24 52.265 25.24C51.5111 25.24 50.9412 24.8773 50.5551 24.152C50.169 23.4266 49.9759 22.3546 49.9759 20.936C49.9759 19.5813 50.169 18.5306 50.5551 17.784C50.9412 17.0266 51.4805 16.648 52.173 16.648C52.7552 16.648 53.2026 16.936 53.5152 17.512C53.8278 18.0773 53.984 18.8826 53.984 19.928C53.984 20.4293 53.9595 20.8826 53.9105 21.288H50.8584ZM52.1271 17.848C51.741 17.848 51.4407 18.0506 51.2262 18.456C51.0116 18.8506 50.8891 19.4426 50.8584 20.232H53.1475C53.1536 20.1466 53.1567 20.008 53.1567 19.816C53.1567 19.1653 53.0678 18.6746 52.8901 18.344C52.7185 18.0133 52.4641 17.848 52.1271 17.848Z"/>
<path d="M58.951 25L57.9581 18.648L56.9745 25H56.0552L54.5292 16.888H55.4852L56.5332 23.384L57.5261 16.888H58.4362L59.429 23.464L60.5046 16.888H61.4331L59.8703 25H58.951Z"/>
<path d="M65.692 20.712V25H64.7818V13.912H67.0893C67.7083 13.912 68.2016 14.2213 68.5694 14.84C68.9371 15.448 69.1209 16.2746 69.1209 17.32C69.1209 18.3546 68.9371 19.1813 68.5694 19.8C68.2016 20.408 67.7083 20.712 67.0893 20.712H65.692ZM65.692 19.416H67.0066C67.3927 19.416 67.6838 19.24 67.8799 18.888C68.076 18.5253 68.1741 18.0026 68.1741 17.32C68.1741 15.912 67.7849 15.208 67.0066 15.208H65.692V19.416Z"/>
<path d="M70.2481 25V16.888H71.0111L71.1122 18.088C71.2838 17.768 71.4432 17.5226 71.5903 17.352C71.7373 17.1706 71.8875 17.0373 72.0407 16.952C72.1939 16.8666 72.3594 16.824 72.5371 16.824C72.6536 16.824 72.7792 16.84 72.914 16.872V18.312C72.7179 18.2693 72.5525 18.248 72.4176 18.248C71.9273 18.248 71.5075 18.504 71.1582 19.016V25H70.2481Z"/>
<path d="M75.6194 25.24C74.9207 25.24 74.3753 24.8613 73.983 24.104C73.5908 23.3466 73.3947 22.2906 73.3947 20.936C73.3947 19.592 73.5908 18.5413 73.983 17.784C74.3753 17.0266 74.9207 16.648 75.6194 16.648C76.318 16.648 76.8635 17.0266 77.2557 17.784C77.648 18.5413 77.8441 19.592 77.8441 20.936C77.8441 22.2906 77.648 23.3466 77.2557 24.104C76.8635 24.8613 76.318 25.24 75.6194 25.24ZM75.6194 23.96C76.4835 23.96 76.9156 22.952 76.9156 20.936C76.9156 18.9306 76.4835 17.928 75.6194 17.928C74.7552 17.928 74.3232 18.9306 74.3232 20.936C74.3232 22.952 74.7552 23.96 75.6194 23.96Z"/>
<path d="M79.3616 25V18.136H78.4975V17.112L79.3616 16.92V15.608C79.3616 13.8266 79.8519 12.936 80.8325 12.936C81.1757 12.936 81.4821 13.032 81.7518 13.224V14.344C81.4392 14.2586 81.2002 14.216 81.0348 14.216C80.7528 14.216 80.5537 14.312 80.4372 14.504C80.3269 14.6853 80.2717 14.9893 80.2717 15.416V16.888H83.3238V25H82.4137V18.136H80.2717V25H79.3616ZM82.8734 15.448C82.6956 15.448 82.5547 15.3626 82.4505 15.192C82.3524 15.0106 82.3034 14.776 82.3034 14.488C82.3034 14.2 82.3524 13.9706 82.4505 13.8C82.5547 13.6186 82.6956 13.528 82.8734 13.528C83.0511 13.528 83.189 13.6186 83.287 13.8C83.3912 13.9706 83.4433 14.2 83.4433 14.488C83.4433 14.776 83.3912 15.0106 83.287 15.192C83.189 15.3626 83.0511 15.448 82.8734 15.448Z"/>
<path d="M86.4319 24.888C86.2297 25.016 86.009 25.08 85.77 25.08C85.4452 25.08 85.197 24.92 85.0254 24.6C84.8538 24.2693 84.768 23.8 84.768 23.192V13.16H85.6781V23.096C85.6781 23.3413 85.7057 23.5226 85.7608 23.64C85.8221 23.7466 85.9202 23.8 86.055 23.8C86.1776 23.8 86.3032 23.784 86.4319 23.752V24.888Z"/>
<path d="M88.0789 21.288C88.0911 22.2053 88.2198 22.8826 88.465 23.32C88.7163 23.7573 89.1024 23.976 89.6233 23.976C90.1075 23.976 90.6008 23.8106 91.1034 23.48V24.616C90.6621 25.032 90.1228 25.24 89.4854 25.24C88.7316 25.24 88.1616 24.8773 87.7755 24.152C87.3894 23.4266 87.1964 22.3546 87.1964 20.936C87.1964 19.5813 87.3894 18.5306 87.7755 17.784C88.1616 17.0266 88.7009 16.648 89.3935 16.648C89.9757 16.648 90.4231 16.936 90.7356 17.512C91.0482 18.0773 91.2045 18.8826 91.2045 19.928C91.2045 20.4293 91.18 20.8826 91.1309 21.288H88.0789ZM89.3475 17.848C88.9614 17.848 88.6611 18.0506 88.4466 18.456C88.2321 18.8506 88.1095 19.4426 88.0789 20.232H90.3679C90.3741 20.1466 90.3771 20.008 90.3771 19.816C90.3771 19.1653 90.2883 18.6746 90.1105 18.344C89.9389 18.0133 89.6846 17.848 89.3475 17.848Z"/>
</mask>
<path d="M1 11C1 5.47712 3.5724 0.999969 6.74561 0.999969H126.254C129.428 0.999969 132 5.47712 132 11V28C132 33.5228 129.428 38 126.254 38H6.74562C3.5724 38 1 33.5228 1 28V11Z" fill="#E3E2E4"/>
<path d="M43.6554 25L41.3112 13.912H42.3408L44.1794 23.368L46.018 13.912H47.0109L44.6667 25H43.6554Z" fill="#E3E2E4"/>
<path d="M47.8626 25V16.888H48.7727V25H47.8626ZM48.3222 15.448C48.1445 15.448 48.0036 15.3626 47.8994 15.192C47.8013 15.0106 47.7523 14.776 47.7523 14.488C47.7523 14.2 47.8013 13.9706 47.8994 13.8C48.0036 13.6186 48.1445 13.528 48.3222 13.528C48.5 13.528 48.6379 13.6186 48.7359 13.8C48.8401 13.9706 48.8922 14.2 48.8922 14.488C48.8922 14.776 48.8401 15.0106 48.7359 15.192C48.6379 15.3626 48.5 15.448 48.3222 15.448Z" fill="#E3E2E4"/>
<path d="M50.8584 21.288C50.8707 22.2053 50.9994 22.8826 51.2445 23.32C51.4958 23.7573 51.8819 23.976 52.4029 23.976C52.887 23.976 53.3804 23.8106 53.8829 23.48V24.616C53.4417 25.032 52.9023 25.24 52.265 25.24C51.5111 25.24 50.9412 24.8773 50.5551 24.152C50.169 23.4266 49.9759 22.3546 49.9759 20.936C49.9759 19.5813 50.169 18.5306 50.5551 17.784C50.9412 17.0266 51.4805 16.648 52.173 16.648C52.7552 16.648 53.2026 16.936 53.5152 17.512C53.8278 18.0773 53.984 18.8826 53.984 19.928C53.984 20.4293 53.9595 20.8826 53.9105 21.288H50.8584ZM52.1271 17.848C51.741 17.848 51.4407 18.0506 51.2262 18.456C51.0116 18.8506 50.8891 19.4426 50.8584 20.232H53.1475C53.1536 20.1466 53.1567 20.008 53.1567 19.816C53.1567 19.1653 53.0678 18.6746 52.8901 18.344C52.7185 18.0133 52.4641 17.848 52.1271 17.848Z" fill="#E3E2E4"/>
<path d="M58.951 25L57.9581 18.648L56.9745 25H56.0552L54.5292 16.888H55.4852L56.5332 23.384L57.5261 16.888H58.4362L59.429 23.464L60.5046 16.888H61.4331L59.8703 25H58.951Z" fill="#E3E2E4"/>
<path d="M65.692 20.712V25H64.7818V13.912H67.0893C67.7083 13.912 68.2016 14.2213 68.5694 14.84C68.9371 15.448 69.1209 16.2746 69.1209 17.32C69.1209 18.3546 68.9371 19.1813 68.5694 19.8C68.2016 20.408 67.7083 20.712 67.0893 20.712H65.692ZM65.692 19.416H67.0066C67.3927 19.416 67.6838 19.24 67.8799 18.888C68.076 18.5253 68.1741 18.0026 68.1741 17.32C68.1741 15.912 67.7849 15.208 67.0066 15.208H65.692V19.416Z" fill="#E3E2E4"/>
<path d="M70.2481 25V16.888H71.0111L71.1122 18.088C71.2838 17.768 71.4432 17.5226 71.5903 17.352C71.7373 17.1706 71.8875 17.0373 72.0407 16.952C72.1939 16.8666 72.3594 16.824 72.5371 16.824C72.6536 16.824 72.7792 16.84 72.914 16.872V18.312C72.7179 18.2693 72.5525 18.248 72.4176 18.248C71.9273 18.248 71.5075 18.504 71.1582 19.016V25H70.2481Z" fill="#E3E2E4"/>
<path d="M75.6194 25.24C74.9207 25.24 74.3753 24.8613 73.983 24.104C73.5908 23.3466 73.3947 22.2906 73.3947 20.936C73.3947 19.592 73.5908 18.5413 73.983 17.784C74.3753 17.0266 74.9207 16.648 75.6194 16.648C76.318 16.648 76.8635 17.0266 77.2557 17.784C77.648 18.5413 77.8441 19.592 77.8441 20.936C77.8441 22.2906 77.648 23.3466 77.2557 24.104C76.8635 24.8613 76.318 25.24 75.6194 25.24ZM75.6194 23.96C76.4835 23.96 76.9156 22.952 76.9156 20.936C76.9156 18.9306 76.4835 17.928 75.6194 17.928C74.7552 17.928 74.3232 18.9306 74.3232 20.936C74.3232 22.952 74.7552 23.96 75.6194 23.96Z" fill="#E3E2E4"/>
<path d="M79.3616 25V18.136H78.4975V17.112L79.3616 16.92V15.608C79.3616 13.8266 79.8519 12.936 80.8325 12.936C81.1757 12.936 81.4821 13.032 81.7518 13.224V14.344C81.4392 14.2586 81.2002 14.216 81.0348 14.216C80.7528 14.216 80.5537 14.312 80.4372 14.504C80.3269 14.6853 80.2717 14.9893 80.2717 15.416V16.888H83.3238V25H82.4137V18.136H80.2717V25H79.3616ZM82.8734 15.448C82.6956 15.448 82.5547 15.3626 82.4505 15.192C82.3524 15.0106 82.3034 14.776 82.3034 14.488C82.3034 14.2 82.3524 13.9706 82.4505 13.8C82.5547 13.6186 82.6956 13.528 82.8734 13.528C83.0511 13.528 83.189 13.6186 83.287 13.8C83.3912 13.9706 83.4433 14.2 83.4433 14.488C83.4433 14.776 83.3912 15.0106 83.287 15.192C83.189 15.3626 83.0511 15.448 82.8734 15.448Z" fill="#E3E2E4"/>
<path d="M86.4319 24.888C86.2297 25.016 86.009 25.08 85.77 25.08C85.4452 25.08 85.197 24.92 85.0254 24.6C84.8538 24.2693 84.768 23.8 84.768 23.192V13.16H85.6781V23.096C85.6781 23.3413 85.7057 23.5226 85.7608 23.64C85.8221 23.7466 85.9202 23.8 86.055 23.8C86.1776 23.8 86.3032 23.784 86.4319 23.752V24.888Z" fill="#E3E2E4"/>
<path d="M88.0789 21.288C88.0911 22.2053 88.2198 22.8826 88.465 23.32C88.7163 23.7573 89.1024 23.976 89.6233 23.976C90.1075 23.976 90.6008 23.8106 91.1034 23.48V24.616C90.6621 25.032 90.1228 25.24 89.4854 25.24C88.7316 25.24 88.1616 24.8773 87.7755 24.152C87.3894 23.4266 87.1964 22.3546 87.1964 20.936C87.1964 19.5813 87.3894 18.5306 87.7755 17.784C88.1616 17.0266 88.7009 16.648 89.3935 16.648C89.9757 16.648 90.4231 16.936 90.7356 17.512C91.0482 18.0773 91.2045 18.8826 91.2045 19.928C91.2045 20.4293 91.18 20.8826 91.1309 21.288H88.0789ZM89.3475 17.848C88.9614 17.848 88.6611 18.0506 88.4466 18.456C88.2321 18.8506 88.1095 19.4426 88.0789 20.232H90.3679C90.3741 20.1466 90.3771 20.008 90.3771 19.816C90.3771 19.1653 90.2883 18.6746 90.1105 18.344C89.9389 18.0133 89.6846 17.848 89.3475 17.848Z" fill="#E3E2E4"/>
<path d="M130.564 35L130.994 35.2548L131.142 35.0038L130.997 34.7509L130.564 35ZM2.84848 35.13L2.37343 35.286L2.84848 35.13ZM4.16282 37.6531L4.55152 37.3386L4.16282 37.6531ZM127.934 38.7884L128.275 39.1541L127.934 38.7884ZM129.479 36.8317L129.049 36.5769L129.479 36.8317ZM122.232 42V41.5H10.193V42V42.5H122.232V42ZM2.84848 35.13L3.32353 34.9741L2.6242 32.844L2.14915 33L1.6741 33.1559L2.37343 35.286L2.84848 35.13ZM10.193 42V41.5C9.48067 41.5 8.52776 41.0489 7.47948 40.248C6.45293 39.4638 5.41619 38.4073 4.55152 37.3386L4.16282 37.6531L3.77413 37.9676C4.67617 39.0825 5.76854 40.1994 6.8724 41.0427C7.95454 41.8694 9.13336 42.5 10.193 42.5V42ZM127.934 38.7884L127.593 38.4227C126.511 39.432 125.52 40.2074 124.615 40.7285C123.709 41.2506 122.92 41.5 122.232 41.5V42V42.5C123.158 42.5 124.122 42.1669 125.115 41.5949C126.109 41.0218 127.162 40.1914 128.275 39.1541L127.934 38.7884ZM130.276 34.5L129.843 34.749L130.13 35.249L130.564 35L130.997 34.7509L130.71 34.2509L130.276 34.5ZM130.564 35L130.133 34.7452L129.049 36.5769L129.479 36.8317L129.909 37.0864L130.994 35.2548L130.564 35ZM2.84848 35.13L2.37343 35.286C2.68437 36.2331 3.12353 37.1636 3.77413 37.9676L4.16282 37.6531L4.55152 37.3386C3.99905 36.6558 3.60919 35.8442 3.32353 34.9741L2.84848 35.13ZM127.934 38.7884L128.275 39.1541C128.927 38.5461 129.464 37.8375 129.909 37.0864L129.479 36.8317L129.049 36.5769C128.642 37.2627 128.162 37.8918 127.593 38.4227L127.934 38.7884ZM43.6554 25L42.6771 25.2068L42.8448 26H43.6554V25ZM41.3112 13.912V12.912H40.0777L40.3329 14.1188L41.3112 13.912ZM42.3408 13.912L43.3225 13.7211L43.1651 12.912H42.3408V13.912ZM44.1794 23.368L43.1978 23.5588H45.1611L44.1794 23.368ZM46.018 13.912V12.912H45.1937L45.0364 13.7211L46.018 13.912ZM47.0109 13.912L47.9893 14.1188L48.2444 12.912H47.0109V13.912ZM44.6667 25V26H45.4774L45.645 25.2068L44.6667 25ZM47.8626 25H46.8626V26H47.8626V25ZM47.8626 16.888V15.888H46.8626V16.888H47.8626ZM48.7727 16.888H49.7727V15.888H48.7727V16.888ZM48.7727 25V26H49.7727V25H48.7727ZM47.8994 15.192L47.0197 15.6676L47.0322 15.6907L47.0458 15.713L47.8994 15.192ZM47.8994 13.8L47.0323 13.3018V13.3018L47.8994 13.8ZM48.7359 13.8L47.8563 14.2756L47.8688 14.2987L47.8824 14.321L48.7359 13.8ZM48.7359 15.192L47.8689 14.6938V14.6938L48.7359 15.192ZM50.8584 21.288V20.288H49.845L49.8585 21.3013L50.8584 21.288ZM51.2445 23.32L50.3722 23.809L50.3775 23.8182L51.2445 23.32ZM53.8829 23.48H54.8829V21.6249L53.3333 22.6446L53.8829 23.48ZM53.8829 24.616L54.5689 25.3436L54.8829 25.0475V24.616H53.8829ZM50.5551 24.152L51.4378 23.6821V23.6821L50.5551 24.152ZM50.5551 17.784L51.4433 18.2433L51.446 18.2382L50.5551 17.784ZM53.5152 17.512L52.6362 17.9889L52.64 17.9958L53.5152 17.512ZM53.9105 21.288V22.288H54.7968L54.9033 21.4081L53.9105 21.288ZM51.2262 18.456L52.1048 18.9335L52.11 18.9237L51.2262 18.456ZM50.8584 20.232L49.8592 20.1932L49.8189 21.232H50.8584V20.232ZM53.1475 20.232V21.232H54.0782L54.1449 20.3036L53.1475 20.232ZM52.8901 18.344L52.0025 18.8046L52.0058 18.811L52.0093 18.8174L52.8901 18.344ZM58.951 25L57.963 25.1544L58.0951 26H58.951V25ZM57.9581 18.648L58.9461 18.4935L56.9699 18.4949L57.9581 18.648ZM56.9745 25V26H57.8316L57.9627 25.153L56.9745 25ZM56.0552 25L55.0724 25.1848L55.2258 26H56.0552V25ZM54.5292 16.888V15.888H53.3235L53.5464 17.0728L54.5292 16.888ZM55.4852 16.888L56.4725 16.7287L56.3368 15.888H55.4852V16.888ZM56.5332 23.384L55.546 23.5432L57.5218 23.5351L56.5332 23.384ZM57.5261 16.888V15.888H56.6673L56.5375 16.7369L57.5261 16.888ZM58.4362 16.888L59.425 16.7387L59.2965 15.888H58.4362V16.888ZM59.429 23.464L58.4402 23.6133L60.4159 23.6254L59.429 23.464ZM60.5046 16.888V15.888H59.6549L59.5177 16.7266L60.5046 16.888ZM61.4331 16.888L62.415 17.0771L62.6441 15.888H61.4331V16.888ZM59.8703 25V26H60.696L60.8522 25.1891L59.8703 25ZM65.692 20.712V19.712H64.692V20.712H65.692ZM65.692 25V26H66.692V25H65.692ZM64.7818 25H63.7818V26H64.7818V25ZM64.7818 13.912V12.912H63.7818V13.912H64.7818ZM68.5694 14.84L67.7097 15.3509L67.7137 15.3575L68.5694 14.84ZM68.5694 19.8L69.4251 20.3175L69.429 20.3109L68.5694 19.8ZM65.692 19.416H64.692V20.416H65.692V19.416ZM67.8799 18.888L68.7535 19.3747L68.7595 19.3636L67.8799 18.888ZM65.692 15.208V14.208H64.692V15.208H65.692ZM70.2481 25H69.2481V26H70.2481V25ZM70.2481 16.888V15.888H69.2481V16.888H70.2481ZM71.0111 16.888L72.0076 16.804L71.9304 15.888H71.0111V16.888ZM71.1122 18.088L70.1158 18.1719L70.3991 21.5338L71.9935 18.5606L71.1122 18.088ZM71.5903 17.352L72.3477 18.0048L72.3575 17.9935L72.3669 17.9819L71.5903 17.352ZM72.0407 16.952L72.5273 17.8256V17.8256L72.0407 16.952ZM72.914 16.872H73.914V16.0815L73.145 15.899L72.914 16.872ZM72.914 18.312L72.7015 19.2891L73.914 19.5529V18.312H72.914ZM71.1582 19.016L70.3321 18.4524L70.1582 18.7073V19.016H71.1582ZM71.1582 25V26H72.1582V25H71.1582ZM73.983 24.104L73.095 24.5639L73.983 24.104ZM73.983 17.784L73.095 17.3241L73.983 17.784ZM77.2557 17.784L78.1437 17.3241L77.2557 17.784ZM77.2557 24.104L78.1437 24.5639L77.2557 24.104ZM79.3616 25H78.3616V26H79.3616V25ZM79.3616 18.136H80.3616V17.136H79.3616V18.136ZM78.4975 18.136H77.4975V19.136H78.4975V18.136ZM78.4975 17.112L78.2806 16.1358L77.4975 16.3098V17.112H78.4975ZM79.3616 16.92L79.5785 17.8962L80.3616 17.7222V16.92H79.3616ZM81.7518 13.224H82.7518V12.7084L82.3318 12.4094L81.7518 13.224ZM81.7518 14.344L81.4884 15.3087L82.7518 15.6536V14.344H81.7518ZM80.4372 14.504L81.2915 15.0237L81.2923 15.0225L80.4372 14.504ZM80.2717 16.888H79.2717V17.888H80.2717V16.888ZM83.3238 16.888H84.3238V15.888H83.3238V16.888ZM83.3238 25V26H84.3238V25H83.3238ZM82.4137 25H81.4137V26H82.4137V25ZM82.4137 18.136H83.4137V17.136H82.4137V18.136ZM80.2717 18.136V17.136H79.2717V18.136H80.2717ZM80.2717 25V26H81.2717V25H80.2717ZM82.4505 15.192L81.5708 15.6676L81.5833 15.6907L81.5969 15.713L82.4505 15.192ZM82.4505 13.8L81.5834 13.3018V13.3018L82.4505 13.8ZM83.287 13.8L82.4074 14.2756L82.4199 14.2987L82.4335 14.321L83.287 13.8ZM83.287 15.192L84.1541 15.6902L83.287 15.192ZM86.4319 24.888L86.9667 25.733L87.4319 25.4385V24.888H86.4319ZM85.0254 24.6L84.1377 25.0606L84.1441 25.0726L85.0254 24.6ZM84.768 13.16V12.16H83.768V13.16H84.768ZM85.6781 13.16H86.6781V12.16H85.6781V13.16ZM85.7608 23.64L84.8558 24.0654L84.8733 24.1026L84.8937 24.1382L85.7608 23.64ZM86.4319 23.752H87.4319V22.4729L86.1906 22.7815L86.4319 23.752ZM88.0789 21.288V20.288H87.0654L87.079 21.3013L88.0789 21.288ZM88.465 23.32L87.5926 23.809L87.5979 23.8182L88.465 23.32ZM91.1034 23.48H92.1034V21.6249L90.5537 22.6446L91.1034 23.48ZM91.1034 24.616L91.7893 25.3436L92.1034 25.0475V24.616H91.1034ZM87.7755 24.152L88.6582 23.6821V23.6821L87.7755 24.152ZM87.7755 17.784L88.6638 18.2433L88.6664 18.2382L87.7755 17.784ZM90.7356 17.512L89.8567 17.9889L89.8605 17.9958L90.7356 17.512ZM91.1309 21.288V22.288H92.0173L92.1237 21.4081L91.1309 21.288ZM88.4466 18.456L89.3253 18.9335L89.3305 18.9237L88.4466 18.456ZM88.0789 20.232L87.0796 20.1932L87.0393 21.232H88.0789V20.232ZM90.3679 20.232V21.232H91.2987L91.3654 20.3036L90.3679 20.232ZM90.1105 18.344L89.2229 18.8046L89.2263 18.811L89.2297 18.8174L90.1105 18.344ZM6.74561 0.999969V1.99997H126.254V0.999969V-3.05176e-05H6.74561V0.999969ZM132 11H131V28H132H133V11H132ZM126.254 38V37H6.74562V38V39H126.254V38ZM1 28H2V11H1H0V28H1ZM6.74562 38V37C5.66997 37 4.50352 36.2326 3.54992 34.5729C2.61199 32.9404 2 30.6187 2 28H1H0C0 30.9041 0.67421 33.5824 1.81578 35.5692C2.94169 37.5288 4.64805 39 6.74562 39V38ZM132 28H131C131 30.6187 130.388 32.9404 129.45 34.5729C128.496 36.2326 127.33 37 126.254 37V38V39C128.352 39 130.058 37.5288 131.184 35.5692C132.326 33.5824 133 30.9041 133 28H132ZM126.254 0.999969V1.99997C127.33 1.99997 128.496 2.76739 129.45 4.42709C130.388 6.05952 131 8.38123 131 11H132H133C133 8.09586 132.326 5.41757 131.184 3.43072C130.058 1.47113 128.352 -3.05176e-05 126.254 -3.05176e-05V0.999969ZM6.74561 0.999969V-3.05176e-05C4.64805 -3.05176e-05 2.94168 1.47113 1.81578 3.43072C0.67421 5.41757 0 8.09586 0 11H1H2C2 8.38123 2.61199 6.05952 3.54992 4.42709C4.50352 2.76739 5.66997 1.99997 6.74561 1.99997V0.999969ZM43.6554 25L44.6338 24.7931L42.2896 13.7051L41.3112 13.912L40.3329 14.1188L42.6771 25.2068L43.6554 25ZM41.3112 13.912V14.912H42.3408V13.912V12.912H41.3112V13.912ZM42.3408 13.912L41.3592 14.1028L43.1978 23.5588L44.1794 23.368L45.1611 23.1771L43.3225 13.7211L42.3408 13.912ZM44.1794 23.368L45.1611 23.5588L46.9997 14.1028L46.018 13.912L45.0364 13.7211L43.1978 23.1771L44.1794 23.368ZM46.018 13.912V14.912H47.0109V13.912V12.912H46.018V13.912ZM47.0109 13.912L46.0325 13.7051L43.6883 24.7931L44.6667 25L45.645 25.2068L47.9893 14.1188L47.0109 13.912ZM44.6667 25V24H43.6554V25V26H44.6667V25ZM47.8626 25H48.8626V16.888H47.8626H46.8626V25H47.8626ZM47.8626 16.888V17.888H48.7727V16.888V15.888H47.8626V16.888ZM48.7727 16.888H47.7727V25H48.7727H49.7727V16.888H48.7727ZM48.7727 25V24H47.8626V25V26H48.7727V25ZM48.3222 15.448V14.448C48.4011 14.448 48.5031 14.4692 48.6011 14.5285C48.694 14.5847 48.7391 14.6484 48.7529 14.6709L47.8994 15.192L47.0458 15.713C47.3046 16.1368 47.747 16.448 48.3222 16.448V15.448ZM47.8994 15.192L48.779 14.7163C48.7851 14.7275 48.7523 14.6723 48.7523 14.488H47.7523H46.7523C46.7523 14.8797 46.8175 15.2937 47.0197 15.6676L47.8994 15.192ZM47.7523 14.488H48.7523C48.7523 14.399 48.76 14.3415 48.767 14.309C48.7738 14.2771 48.7779 14.2781 48.7664 14.2982L47.8994 13.8L47.0323 13.3018C46.8159 13.6784 46.7523 14.1008 46.7523 14.488H47.7523ZM47.8994 13.8L48.7664 14.2982C48.7582 14.3125 48.7175 14.377 48.6242 14.437C48.5234 14.5018 48.4131 14.528 48.3222 14.528V13.528V12.528C47.7171 12.528 47.2774 12.8752 47.0323 13.3018L47.8994 13.8ZM48.3222 13.528V14.528C48.2316 14.528 48.1164 14.5018 48.0096 14.4315C47.9101 14.3661 47.8667 14.2948 47.8563 14.2756L48.7359 13.8L49.6156 13.3243C49.3766 12.8823 48.9331 12.528 48.3222 12.528V13.528ZM48.7359 13.8L47.8824 14.321C47.869 14.2991 47.8718 14.2944 47.878 14.3215C47.8843 14.3494 47.8922 14.4025 47.8922 14.488H48.8922H49.8922C49.8922 14.0926 49.8227 13.661 49.5895 13.2789L48.7359 13.8ZM48.8922 14.488H47.8922C47.8922 14.6641 47.8592 14.7106 47.8689 14.6938L48.7359 15.192L49.603 15.6902C49.821 15.3106 49.8922 14.8878 49.8922 14.488H48.8922ZM48.7359 15.192L47.8689 14.6938C47.8849 14.6658 47.9335 14.5951 48.0327 14.5336C48.1369 14.4692 48.2437 14.448 48.3222 14.448V15.448V16.448C48.9023 16.448 49.3498 16.1308 49.603 15.6902L48.7359 15.192ZM50.8584 21.288L49.8585 21.3013C49.8714 22.2682 50.0029 23.1501 50.3722 23.8089L51.2445 23.32L52.1168 22.831C51.9959 22.6152 51.8699 22.1424 51.8583 21.2746L50.8584 21.288ZM51.2445 23.32L50.3775 23.8182C50.8142 24.5783 51.5384 24.976 52.4029 24.976V23.976V22.976C52.2849 22.976 52.2338 22.9523 52.2154 22.9418C52.1985 22.9323 52.1605 22.9068 52.1116 22.8218L51.2445 23.32ZM52.4029 23.976V24.976C53.125 24.976 53.8065 24.7273 54.4326 24.3154L53.8829 23.48L53.3333 22.6446C52.9542 22.894 52.649 22.976 52.4029 22.976V23.976ZM53.8829 23.48H52.8829V24.616H53.8829H54.8829V23.48H53.8829ZM53.8829 24.616L53.1969 23.8883C52.9514 24.1198 52.6617 24.24 52.265 24.24V25.24V26.24C53.143 26.24 53.9319 25.9441 54.5689 25.3436L53.8829 24.616ZM52.265 25.24V24.24C52.0555 24.24 51.9153 24.192 51.8089 24.1243C51.698 24.0537 51.5672 23.9252 51.4378 23.6821L50.5551 24.152L49.6723 24.6219C49.929 25.1041 50.2762 25.5196 50.7353 25.8117C51.1989 26.1066 51.7206 26.24 52.265 26.24V25.24ZM50.5551 24.152L51.4378 23.6821C51.1658 23.1712 50.9759 22.2941 50.9759 20.936H49.9759H48.9759C48.9759 22.4152 49.1721 23.6821 49.6723 24.6219L50.5551 24.152ZM49.9759 20.936H50.9759C50.9759 19.654 51.1623 18.7868 51.4433 18.2433L50.5551 17.784L49.6668 17.3246C49.1756 18.2745 48.9759 19.5086 48.9759 20.936H49.9759ZM50.5551 17.784L51.446 18.2382C51.7079 17.7243 51.9491 17.648 52.173 17.648V16.648V15.648C51.0119 15.648 50.1744 16.3289 49.6642 17.3298L50.5551 17.784ZM52.173 16.648V17.648C52.3356 17.648 52.4718 17.6859 52.6363 17.9889L53.5152 17.512L54.3941 17.035C53.9334 16.186 53.1749 15.648 52.173 15.648V16.648ZM53.5152 17.512L52.64 17.9958C52.835 18.3484 52.984 18.9583 52.984 19.928H53.984H54.984C54.984 18.807 54.8205 17.8062 54.3904 17.0281L53.5152 17.512ZM53.984 19.928H52.984C52.984 20.3978 52.961 20.8102 52.9177 21.1679L53.9105 21.288L54.9033 21.4081C54.958 20.9551 54.984 20.4608 54.984 19.928H53.984ZM53.9105 21.288V20.288H50.8584V21.288V22.288H53.9105V21.288ZM52.1271 17.848V16.848C51.2936 16.848 50.6909 17.3295 50.3423 17.9882L51.2262 18.456L52.11 18.9237C52.1604 18.8285 52.1892 18.8171 52.1717 18.8289C52.1629 18.8348 52.1504 18.841 52.1367 18.845C52.1236 18.8489 52.1189 18.848 52.1271 18.848V17.848ZM51.2262 18.456L50.3475 17.9784C50.0235 18.5747 49.8919 19.35 49.8592 20.1932L50.8584 20.232L51.8577 20.2708C51.8862 19.5352 51.9998 19.1266 52.1048 18.9335L51.2262 18.456ZM50.8584 20.232V21.232H53.1475V20.232V19.232H50.8584V20.232ZM53.1475 20.232L54.1449 20.3036C54.1538 20.1796 54.1567 20.01 54.1567 19.816H53.1567H52.1567C52.1567 20.0059 52.1534 20.1136 52.1501 20.1603L53.1475 20.232ZM53.1567 19.816H54.1567C54.1567 19.1051 54.0648 18.4174 53.7709 17.8705L52.8901 18.344L52.0093 18.8174C52.0708 18.9319 52.1567 19.2255 52.1567 19.816H53.1567ZM52.8901 18.344L53.7777 17.8833C53.6303 17.5993 53.4173 17.3297 53.1156 17.1335C52.8085 16.9339 52.4668 16.848 52.1271 16.848V17.848V18.848C52.1291 18.848 52.1169 18.8481 52.0951 18.842C52.0725 18.8357 52.0481 18.825 52.0256 18.8104C51.9782 18.7796 51.9783 18.758 52.0025 18.8046L52.8901 18.344ZM58.951 25L59.939 24.8455L58.9461 18.4935L57.9581 18.648L56.9701 18.8024L57.963 25.1544L58.951 25ZM57.9581 18.648L56.9699 18.4949L55.9863 24.8469L56.9745 25L57.9627 25.153L58.9464 18.801L57.9581 18.648ZM56.9745 25V24H56.0552V25V26H56.9745V25ZM56.0552 25L57.038 24.8151L55.5119 16.7031L54.5292 16.888L53.5464 17.0728L55.0724 25.1848L56.0552 25ZM54.5292 16.888V17.888H55.4852V16.888V15.888H54.5292V16.888ZM55.4852 16.888L54.498 17.0472L55.546 23.5432L56.5332 23.384L57.5205 23.2247L56.4725 16.7287L55.4852 16.888ZM56.5332 23.384L57.5218 23.5351L58.5146 17.0391L57.5261 16.888L56.5375 16.7369L55.5447 23.2329L56.5332 23.384ZM57.5261 16.888V17.888H58.4362V16.888V15.888H57.5261V16.888ZM58.4362 16.888L57.4474 17.0373L58.4402 23.6133L59.429 23.464L60.4178 23.3147L59.425 16.7387L58.4362 16.888ZM59.429 23.464L60.4159 23.6254L61.4915 17.0494L60.5046 16.888L59.5177 16.7266L58.4421 23.3026L59.429 23.464ZM60.5046 16.888V17.888H61.4331V16.888V15.888H60.5046V16.888ZM61.4331 16.888L60.4511 16.6988L58.8883 24.8108L59.8703 25L60.8522 25.1891L62.415 17.0771L61.4331 16.888ZM59.8703 25V24H58.951V25V26H59.8703V25ZM65.692 20.712H64.692V25H65.692H66.692V20.712H65.692ZM65.692 25V24H64.7818V25V26H65.692V25ZM64.7818 25H65.7819V13.912H64.7818H63.7818V25H64.7818ZM64.7818 13.912V14.912H67.0893V13.912V12.912H64.7818V13.912ZM67.0893 13.912V14.912C67.2924 14.912 67.4875 14.977 67.7097 15.3509L68.5694 14.84L69.429 14.329C68.9158 13.4656 68.1242 12.912 67.0893 12.912V13.912ZM68.5694 14.84L67.7137 15.3575C67.9526 15.7525 68.1209 16.3766 68.1209 17.32H69.1209H70.1209C70.1209 16.1727 69.9216 15.1435 69.425 14.3225L68.5694 14.84ZM69.1209 17.32H68.1209C68.1209 18.249 67.9539 18.8783 67.7097 19.289L68.5694 19.8L69.429 20.3109C69.9203 19.4843 70.1209 18.4602 70.1209 17.32H69.1209ZM68.5694 19.8L67.7137 19.2825C67.4953 19.6435 67.3009 19.712 67.0893 19.712V20.712V21.712C68.1156 21.712 68.908 21.1724 69.425 20.3175L68.5694 19.8ZM67.0893 20.712V19.712H65.692V20.712V21.712H67.0893V20.712ZM65.692 19.416V20.416H67.0066V19.416V18.416H65.692V19.416ZM67.0066 19.416V20.416C67.3568 20.416 67.71 20.3343 68.0318 20.1397C68.3515 19.9465 68.5864 19.6744 68.7534 19.3747L67.8799 18.888L67.0063 18.4013C66.9912 18.4284 66.9813 18.4395 66.9801 18.4408C66.9794 18.4415 66.9806 18.4401 66.9838 18.4375C66.987 18.4349 66.9914 18.4316 66.9971 18.4282C67.0027 18.4248 67.0086 18.4218 67.0142 18.4195C67.0198 18.4171 67.0242 18.4158 67.0268 18.4151C67.0323 18.4137 67.0269 18.416 67.0066 18.416V19.416ZM67.8799 18.888L68.7595 19.3636C69.0704 18.7887 69.1741 18.0724 69.1741 17.32H68.1741H67.1741C67.1741 17.9329 67.0816 18.2619 67.0003 18.4123L67.8799 18.888ZM68.1741 17.32H69.1741C69.1741 16.5566 69.0742 15.8254 68.7574 15.2522C68.5906 14.9505 68.3549 14.6773 68.0337 14.4836C67.7108 14.2889 67.3568 14.208 67.0066 14.208V15.208V16.208C67.0455 16.208 67.032 16.215 67.001 16.1963C66.9716 16.1786 66.9792 16.1695 67.007 16.2198C67.0793 16.3506 67.1741 16.6753 67.1741 17.32H68.1741ZM67.0066 15.208V14.208H65.692V15.208V16.208H67.0066V15.208ZM65.692 15.208H64.692V19.416H65.692H66.692V15.208H65.692ZM70.2481 25H71.2481V16.888H70.2481H69.2481V25H70.2481ZM70.2481 16.888V17.888H71.0111V16.888V15.888H70.2481V16.888ZM71.0111 16.888L70.0146 16.9719L70.1158 18.1719L71.1122 18.088L72.1087 18.004L72.0076 16.804L71.0111 16.888ZM71.1122 18.088L71.9935 18.5606C72.1488 18.271 72.2683 18.097 72.3477 18.0048L71.5903 17.352L70.8328 16.6991C70.618 16.9483 70.4189 17.265 70.2309 17.6154L71.1122 18.088ZM71.5903 17.352L72.3669 17.9819C72.4588 17.8686 72.5156 17.8321 72.5273 17.8256L72.0407 16.952L71.5541 16.0783C71.2594 16.2425 71.0159 16.4727 70.8136 16.722L71.5903 17.352ZM72.0407 16.952L72.5273 17.8256C72.5285 17.8249 72.5293 17.8245 72.5298 17.8243C72.5303 17.824 72.5306 17.8239 72.5306 17.8239C72.5306 17.8239 72.5305 17.824 72.5302 17.8241C72.53 17.8241 72.5297 17.8242 72.5294 17.8243C72.5287 17.8245 72.5287 17.8244 72.5295 17.8243C72.5304 17.8242 72.5328 17.824 72.5371 17.824V16.824V15.824C72.1915 15.824 71.8582 15.909 71.5541 16.0783L72.0407 16.952ZM72.5371 16.824V17.824C72.5628 17.824 72.6101 17.8276 72.6831 17.8449L72.914 16.872L73.145 15.899C72.9483 15.8523 72.7444 15.824 72.5371 15.824V16.824ZM72.914 16.872H71.914V18.312H72.914H73.914V16.872H72.914ZM72.914 18.312L73.1266 17.3348C72.891 17.2836 72.6495 17.248 72.4176 17.248V18.248V19.248C72.4555 19.248 72.5448 19.255 72.7015 19.2891L72.914 18.312ZM72.4176 18.248V17.248C71.5094 17.248 70.8124 17.7484 70.3321 18.4524L71.1582 19.016L71.9842 19.5796C72.2026 19.2595 72.3453 19.248 72.4176 19.248V18.248ZM71.1582 19.016H70.1582V25H71.1582H72.1582V19.016H71.1582ZM71.1582 25V24H70.2481V25V26H71.1582V25ZM75.6194 25.24V24.24C75.3839 24.24 75.1368 24.1574 74.871 23.6441L73.983 24.104L73.095 24.5639C73.6137 25.5652 74.4576 26.24 75.6194 26.24V25.24ZM73.983 24.104L74.871 23.6441C74.5833 23.0886 74.3947 22.2151 74.3947 20.936H73.3947H72.3947C72.3947 22.3662 72.5983 23.6047 73.095 24.5639L73.983 24.104ZM73.3947 20.936H74.3947C74.3947 19.6691 74.5829 18.8002 74.871 18.2439L73.983 17.784L73.095 17.3241C72.5987 18.2824 72.3947 19.5149 72.3947 20.936H73.3947ZM73.983 17.784L74.871 18.2439C75.1368 17.7305 75.3839 17.648 75.6194 17.648V16.648V15.648C74.4576 15.648 73.6137 16.3227 73.095 17.3241L73.983 17.784ZM75.6194 16.648V17.648C75.8549 17.648 76.1019 17.7305 76.3678 18.2439L77.2557 17.784L78.1437 17.3241C77.6251 16.3227 76.7812 15.648 75.6194 15.648V16.648ZM77.2557 17.784L76.3677 18.2439C76.6559 18.8002 76.8441 19.6691 76.8441 20.936H77.8441H78.8441C78.8441 19.5149 78.64 18.2824 78.1437 17.3241L77.2557 17.784ZM77.8441 20.936H76.8441C76.8441 22.2151 76.6554 23.0886 76.3677 23.6441L77.2557 24.104L78.1437 24.5639C78.6405 23.6047 78.8441 22.3662 78.8441 20.936H77.8441ZM77.2557 24.104L76.3678 23.6441C76.1019 24.1574 75.8549 24.24 75.6194 24.24V25.24V26.24C76.7812 26.24 77.6251 25.5652 78.1437 24.5639L77.2557 24.104ZM75.6194 23.96V24.96C76.0452 24.96 76.4531 24.8304 76.8003 24.5604C77.1333 24.3014 77.3575 23.9552 77.5107 23.5979C77.8077 22.9049 77.9156 21.9849 77.9156 20.936H76.9156H75.9156C75.9156 21.903 75.8074 22.495 75.6724 22.81C75.6095 22.9568 75.5637 22.9885 75.5726 22.9816C75.5957 22.9636 75.6256 22.96 75.6194 22.96V23.96ZM76.9156 20.936H77.9156C77.9156 19.8921 77.8077 18.9753 77.5099 18.2842C77.3563 17.9278 77.1316 17.5828 76.7983 17.325C76.4511 17.0564 76.0439 16.928 75.6194 16.928V17.928V18.928C75.6269 18.928 75.5977 18.9248 75.5746 18.9069C75.5654 18.8998 75.6107 18.9308 75.6732 19.0757C75.8074 19.3873 75.9156 19.9745 75.9156 20.936H76.9156ZM75.6194 17.928V16.928C75.1948 16.928 74.7876 17.0564 74.4404 17.325C74.1072 17.5828 73.8824 17.9278 73.7288 18.2842C73.4311 18.9753 73.3232 19.8921 73.3232 20.936H74.3232H75.3232C75.3232 19.9745 75.4313 19.3873 75.5656 19.0757C75.628 18.9308 75.6733 18.8998 75.6641 18.9069C75.641 18.9248 75.6118 18.928 75.6194 18.928V17.928ZM74.3232 20.936H73.3232C73.3232 21.9849 73.431 22.9049 73.7281 23.5979C73.8812 23.9552 74.1054 24.3014 74.4384 24.5604C74.7856 24.8304 75.1935 24.96 75.6194 24.96V23.96V22.96C75.6131 22.96 75.643 22.9636 75.6662 22.9816C75.6751 22.9885 75.6292 22.9568 75.5663 22.81C75.4313 22.495 75.3232 21.9031 75.3232 20.936H74.3232ZM79.3616 25H80.3616V18.136H79.3616H78.3616V25H79.3616ZM79.3616 18.136V17.136H78.4975V18.136V19.136H79.3616V18.136ZM78.4975 18.136H79.4975V17.112H78.4975H77.4975V18.136H78.4975ZM78.4975 17.112L78.7144 18.0882L79.5785 17.8962L79.3616 16.92L79.1447 15.9438L78.2806 16.1358L78.4975 17.112ZM79.3616 16.92H80.3616V15.608H79.3616H78.3616V16.92H79.3616ZM79.3616 15.608H80.3616C80.3616 14.7763 80.4817 14.3108 80.6054 14.0862C80.6589 13.989 80.6984 13.9635 80.707 13.9584C80.7136 13.9543 80.7438 13.936 80.8325 13.936V12.936V11.936C80.4309 11.936 80.0321 12.0289 79.671 12.2476C79.3118 12.4651 79.0449 12.7736 78.8533 13.1217C78.4867 13.7878 78.3616 14.6583 78.3616 15.608H79.3616ZM80.8325 12.936V13.936C80.976 13.936 81.078 13.9718 81.1718 14.0386L81.7518 13.224L82.3318 12.4094C81.8863 12.0921 81.3755 11.936 80.8325 11.936V12.936ZM81.7518 13.224H80.7518V14.344H81.7518H82.7518V13.224H81.7518ZM81.7518 14.344L82.0152 13.3793C81.6822 13.2884 81.3381 13.216 81.0348 13.216V14.216V15.216C81.0342 15.216 81.0445 15.216 81.0677 15.2185C81.0906 15.2209 81.1218 15.2252 81.1624 15.2324C81.2445 15.2471 81.3522 15.2715 81.4884 15.3087L81.7518 14.344ZM81.0348 14.216V13.216C80.5062 13.216 79.9275 13.416 79.5822 13.9854L80.4372 14.504L81.2923 15.0225C81.2518 15.0893 81.1857 15.1514 81.1081 15.1888C81.0403 15.2215 81.0041 15.216 81.0348 15.216V14.216ZM80.4372 14.504L79.5829 13.9842C79.3212 14.4144 79.2717 14.9574 79.2717 15.416H80.2717H81.2717C81.2717 15.2417 81.2833 15.1221 81.297 15.0465C81.3118 14.965 81.3222 14.9734 81.2915 15.0237L80.4372 14.504ZM80.2717 15.416H79.2717V16.888H80.2717H81.2717V15.416H80.2717ZM80.2717 16.888V17.888H83.3238V16.888V15.888H80.2717V16.888ZM83.3238 16.888H82.3238V25H83.3238H84.3238V16.888H83.3238ZM83.3238 25V24H82.4137V25V26H83.3238V25ZM82.4137 25H83.4137V18.136H82.4137H81.4137V25H82.4137ZM82.4137 18.136V17.136H80.2717V18.136V19.136H82.4137V18.136ZM80.2717 18.136H79.2717V25H80.2717H81.2717V18.136H80.2717ZM80.2717 25V24H79.3616V25V26H80.2717V25ZM82.8734 15.448V14.448C82.9522 14.448 83.0542 14.4692 83.1522 14.5285C83.245 14.5847 83.2902 14.6484 83.304 14.6709L82.4505 15.192L81.5969 15.713C81.8557 16.1368 82.2981 16.448 82.8734 16.448V15.448ZM82.4505 15.192L83.3301 14.7163C83.3362 14.7275 83.3034 14.6723 83.3034 14.488H82.3034H81.3034C81.3034 14.8797 81.3687 15.2937 81.5708 15.6676L82.4505 15.192ZM82.3034 14.488H83.3034C83.3034 14.399 83.3111 14.3415 83.3181 14.309C83.3249 14.2771 83.329 14.2781 83.3175 14.2982L82.4505 13.8L81.5834 13.3018C81.367 13.6784 81.3034 14.1008 81.3034 14.488H82.3034ZM82.4505 13.8L83.3175 14.2982C83.3093 14.3125 83.2686 14.377 83.1753 14.437C83.0745 14.5018 82.9642 14.528 82.8734 14.528V13.528V12.528C82.2683 12.528 81.8285 12.8752 81.5834 13.3018L82.4505 13.8ZM82.8734 13.528V14.528C82.7827 14.528 82.6675 14.5018 82.5607 14.4315C82.4612 14.3661 82.4178 14.2948 82.4074 14.2756L83.287 13.8L84.1667 13.3243C83.9277 12.8823 83.4842 12.528 82.8734 12.528V13.528ZM83.287 13.8L82.4335 14.321C82.4201 14.2991 82.4229 14.2944 82.4291 14.3215C82.4354 14.3494 82.4433 14.4025 82.4433 14.488H83.4433H84.4433C84.4433 14.0926 84.3738 13.661 84.1406 13.2789L83.287 13.8ZM83.4433 14.488H82.4433C82.4433 14.6642 82.4103 14.7106 82.42 14.6938L83.287 15.192L84.1541 15.6902C84.3722 15.3106 84.4433 14.8878 84.4433 14.488H83.4433ZM83.287 15.192L82.42 14.6938C82.4361 14.6658 82.4846 14.5951 82.5839 14.5336C82.688 14.4692 82.7948 14.448 82.8734 14.448V15.448V16.448C83.4534 16.448 83.9009 16.1308 84.1541 15.6902L83.287 15.192ZM86.4319 24.888L85.8971 24.043C85.8546 24.0699 85.8194 24.08 85.77 24.08V25.08V26.08C86.1986 26.08 86.6047 25.9621 86.9667 25.733L86.4319 24.888ZM85.77 25.08V24.08C85.7714 24.08 85.7861 24.0802 85.8097 24.0868C85.8339 24.0936 85.8592 24.1047 85.882 24.1195C85.9297 24.1502 85.9305 24.1719 85.9067 24.1274L85.0254 24.6L84.1441 25.0726C84.2918 25.348 84.5026 25.6098 84.7984 25.8005C85.1 25.9949 85.4353 26.08 85.77 26.08V25.08ZM85.0254 24.6L85.913 24.1393C85.8478 24.0137 85.768 23.7296 85.768 23.192H84.768H83.768C83.768 23.8704 83.8598 24.5249 84.1378 25.0606L85.0254 24.6ZM84.768 23.192H85.768V13.16H84.768H83.768V23.192H84.768ZM84.768 13.16V14.16H85.6781V13.16V12.16H84.768V13.16ZM85.6781 13.16H84.6781V23.096H85.6781H86.6781V13.16H85.6781ZM85.6781 23.096H84.6781C84.6781 23.38 84.7043 23.7431 84.8558 24.0654L85.7608 23.64L86.6658 23.2145C86.6801 23.245 86.6864 23.2661 86.6883 23.273C86.6903 23.2802 86.6894 23.2785 86.6874 23.2656C86.6832 23.2381 86.6781 23.184 86.6781 23.096H85.6781ZM85.7608 23.64L84.8937 24.1382C85.1533 24.5898 85.6039 24.8 86.055 24.8V23.8V22.8C86.12 22.8 86.2329 22.8134 86.3581 22.8815C86.4878 22.952 86.5761 23.0517 86.6279 23.1418L85.7608 23.64ZM86.055 23.8V24.8C86.2652 24.8 86.472 24.7725 86.6732 24.7224L86.4319 23.752L86.1906 22.7815C86.1344 22.7955 86.0899 22.8 86.055 22.8V23.8ZM86.4319 23.752H85.4319V24.888H86.4319H87.4319V23.752H86.4319ZM88.0789 21.288L87.079 21.3013C87.0919 22.2682 87.2234 23.1501 87.5927 23.8089L88.465 23.32L89.3373 22.831C89.2163 22.6152 89.0904 22.1424 89.0788 21.2746L88.0789 21.288ZM88.465 23.32L87.5979 23.8182C88.0347 24.5783 88.7589 24.976 89.6233 24.976V23.976V22.976C89.5053 22.976 89.4543 22.9523 89.4358 22.9418C89.4189 22.9323 89.3809 22.9068 89.3321 22.8218L88.465 23.32ZM89.6233 23.976V24.976C90.3455 24.976 91.0269 24.7273 91.653 24.3154L91.1034 23.48L90.5537 22.6446C90.1747 22.894 89.8695 22.976 89.6233 22.976V23.976ZM91.1034 23.48H90.1034V24.616H91.1034H92.1034V23.48H91.1034ZM91.1034 24.616L90.4174 23.8883C90.1719 24.1198 89.8821 24.24 89.4854 24.24V25.24V26.24C90.3635 26.24 91.1523 25.9441 91.7893 25.3436L91.1034 24.616ZM89.4854 25.24V24.24C89.2759 24.24 89.1358 24.192 89.0294 24.1243C88.9185 24.0537 88.7876 23.9252 88.6582 23.6821L87.7755 24.152L86.8928 24.6219C87.1495 25.1041 87.4967 25.5196 87.9557 25.8117C88.4193 26.1066 88.9411 26.24 89.4854 26.24V25.24ZM87.7755 24.152L88.6582 23.6821C88.3863 23.1712 88.1964 22.2941 88.1964 20.936H87.1964H86.1964C86.1964 22.4152 86.3925 23.6821 86.8928 24.6219L87.7755 24.152ZM87.1964 20.936H88.1964C88.1964 19.654 88.3827 18.7868 88.6638 18.2433L87.7755 17.784L86.8872 17.3246C86.3961 18.2745 86.1964 19.5086 86.1964 20.936H87.1964ZM87.7755 17.784L88.6664 18.2382C88.9284 17.7243 89.1695 17.648 89.3935 17.648V16.648V15.648C88.2323 15.648 87.3949 16.3289 86.8846 17.3298L87.7755 17.784ZM89.3935 16.648V17.648C89.5561 17.648 89.6923 17.6859 89.8567 17.9889L90.7356 17.512L91.6146 17.035C91.1539 16.186 90.3953 15.648 89.3935 15.648V16.648ZM90.7356 17.512L89.8605 17.9958C90.0554 18.3484 90.2045 18.9583 90.2045 19.928H91.2045H92.2045C92.2045 18.807 92.041 17.8062 91.6108 17.0281L90.7356 17.512ZM91.2045 19.928H90.2045C90.2045 20.3978 90.1815 20.8102 90.1382 21.1679L91.1309 21.288L92.1237 21.4081C92.1785 20.9551 92.2045 20.4608 92.2045 19.928H91.2045ZM91.1309 21.288V20.288H88.0789V21.288V22.288H91.1309V21.288ZM89.3475 17.848V16.848C88.514 16.848 87.9113 17.3295 87.5627 17.9882L88.4466 18.456L89.3305 18.9237C89.3808 18.8285 89.4096 18.8171 89.3921 18.8289C89.3834 18.8348 89.3708 18.841 89.3572 18.845C89.3441 18.8489 89.3393 18.848 89.3475 18.848V17.848ZM88.4466 18.456L87.568 17.9784C87.2439 18.5747 87.1124 19.35 87.0796 20.1932L88.0789 20.232L89.0781 20.2708C89.1067 19.5352 89.2203 19.1266 89.3252 18.9335L88.4466 18.456ZM88.0789 20.232V21.232H90.3679V20.232V19.232H88.0789V20.232ZM90.3679 20.232L91.3654 20.3036C91.3743 20.1796 91.3771 20.01 91.3771 19.816H90.3771H89.3771C89.3771 20.0059 89.3738 20.1136 89.3705 20.1603L90.3679 20.232ZM90.3771 19.816H91.3771C91.3771 19.1051 91.2853 18.4174 90.9914 17.8705L90.1105 18.344L89.2297 18.8174C89.2912 18.9319 89.3771 19.2255 89.3771 19.816H90.3771ZM90.1105 18.344L90.9981 17.8833C90.8507 17.5993 90.6378 17.3297 90.3361 17.1335C90.029 16.9339 89.6872 16.848 89.3475 16.848V17.848V18.848C89.3496 18.848 89.3374 18.8481 89.3156 18.842C89.293 18.8357 89.2686 18.825 89.246 18.8104C89.1987 18.7796 89.1987 18.758 89.2229 18.8046L90.1105 18.344Z" fill="black" mask="url(#path-2-outside-1_1009_1642)"/>
</svg>
