<svg width="230" height="43" viewBox="0 0 230 43" fill="none" xmlns="http://www.w3.org/2000/svg">
<rect x="7" y="10" width="216" height="32" rx="9" fill="#8E5602"/>
<mask id="path-2-outside-1_1030_115" maskUnits="userSpaceOnUse" x="0" y="0" width="230" height="43" fill="black">
<rect fill="white" width="230" height="43"/>
<path d="M1 11C1 5.47715 5.47715 1 11 1H219C224.523 1 229 5.47715 229 11V28C229 33.5228 224.523 38 219 38H11C5.47716 38 1 33.5228 1 28V11Z"/>
<path d="M75.24 25L71.16 13.912H72.952L76.152 23.368L79.352 13.912H81.08L77 25H75.24Z"/>
<path d="M82.5624 25V16.888H84.1464V25H82.5624ZM83.3624 15.448C83.053 15.448 82.8077 15.3627 82.6264 15.192C82.4557 15.0107 82.3704 14.776 82.3704 14.488C82.3704 14.2 82.4557 13.9707 82.6264 13.8C82.8077 13.6187 83.053 13.528 83.3624 13.528C83.6717 13.528 83.9117 13.6187 84.0824 13.8C84.2637 13.9707 84.3544 14.2 84.3544 14.488C84.3544 14.776 84.2637 15.0107 84.0824 15.192C83.9117 15.3627 83.6717 15.448 83.3624 15.448Z"/>
<path d="M87.7765 21.288C87.7978 22.2053 88.0218 22.8827 88.4485 23.32C88.8858 23.7573 89.5578 23.976 90.4645 23.976C91.3072 23.976 92.1658 23.8107 93.0405 23.48V24.616C92.2725 25.032 91.3338 25.24 90.2245 25.24C88.9125 25.24 87.9205 24.8773 87.2485 24.152C86.5765 23.4267 86.2405 22.3547 86.2405 20.936C86.2405 19.5813 86.5765 18.5307 87.2485 17.784C87.9205 17.0267 88.8592 16.648 90.0645 16.648C91.0778 16.648 91.8565 16.936 92.4005 17.512C92.9445 18.0773 93.2165 18.8827 93.2165 19.928C93.2165 20.4293 93.1738 20.8827 93.0885 21.288H87.7765ZM89.9845 17.848C89.3125 17.848 88.7898 18.0507 88.4165 18.456C88.0432 18.8507 87.8298 19.4427 87.7765 20.232H91.7605C91.7712 20.1467 91.7765 20.008 91.7765 19.816C91.7765 19.1653 91.6218 18.6747 91.3125 18.344C91.0138 18.0133 90.5712 17.848 89.9845 17.848Z"/>
<path d="M101.861 25L100.133 18.648L98.4212 25H96.8213L94.1653 16.888H95.8292L97.6533 23.384L99.3812 16.888H100.965L102.693 23.464L104.565 16.888H106.181L103.461 25H101.861Z"/>
<path d="M113.594 20.712V25H112.01V13.912H116.026C117.103 13.912 117.962 14.2213 118.602 14.84C119.242 15.448 119.562 16.2747 119.562 17.32C119.562 18.3547 119.242 19.1813 118.602 19.8C117.962 20.408 117.103 20.712 116.026 20.712H113.594ZM113.594 19.416H115.882C116.554 19.416 117.06 19.24 117.402 18.888C117.743 18.5253 117.914 18.0027 117.914 17.32C117.914 15.912 117.236 15.208 115.882 15.208H113.594V19.416Z"/>
<path d="M121.523 25V16.888H122.851L123.027 18.088C123.326 17.768 123.603 17.5227 123.859 17.352C124.115 17.1707 124.377 17.0373 124.643 16.952C124.91 16.8667 125.198 16.824 125.507 16.824C125.71 16.824 125.929 16.84 126.163 16.872V18.312C125.822 18.2693 125.534 18.248 125.299 18.248C124.446 18.248 123.715 18.504 123.107 19.016V25H121.523Z"/>
<path d="M130.872 25.24C129.656 25.24 128.707 24.8613 128.024 24.104C127.341 23.3467 127 22.2907 127 20.936C127 19.592 127.341 18.5413 128.024 17.784C128.707 17.0267 129.656 16.648 130.872 16.648C132.088 16.648 133.037 17.0267 133.72 17.784C134.403 18.5413 134.744 19.592 134.744 20.936C134.744 22.2907 134.403 23.3467 133.72 24.104C133.037 24.8613 132.088 25.24 130.872 25.24ZM130.872 23.96C132.376 23.96 133.128 22.952 133.128 20.936C133.128 18.9307 132.376 17.928 130.872 17.928C129.368 17.928 128.616 18.9307 128.616 20.936C128.616 22.952 129.368 23.96 130.872 23.96Z"/>
<path d="M137.385 25V18.136H135.881V17.112L137.385 16.92V15.608C137.385 13.8267 138.238 12.936 139.945 12.936C140.542 12.936 141.076 13.032 141.545 13.224V14.344C141.001 14.2587 140.585 14.216 140.297 14.216C139.806 14.216 139.46 14.312 139.257 14.504C139.065 14.6853 138.969 14.9893 138.969 15.416V16.888H144.281V25H142.697V18.136H138.969V25H137.385ZM143.497 15.448C143.188 15.448 142.942 15.3627 142.761 15.192C142.59 15.0107 142.505 14.776 142.505 14.488C142.505 14.2 142.59 13.9707 142.761 13.8C142.942 13.6187 143.188 13.528 143.497 13.528C143.806 13.528 144.046 13.6187 144.217 13.8C144.398 13.9707 144.489 14.2 144.489 14.488C144.489 14.776 144.398 15.0107 144.217 15.192C144.046 15.3627 143.806 15.448 143.497 15.448Z"/>
<path d="M149.691 24.888C149.339 25.016 148.955 25.08 148.539 25.08C147.973 25.08 147.541 24.92 147.243 24.6C146.944 24.2693 146.795 23.8 146.795 23.192V13.16H148.379V23.096C148.379 23.3413 148.427 23.5227 148.523 23.64C148.629 23.7467 148.8 23.8 149.035 23.8C149.248 23.8 149.467 23.784 149.691 23.752V24.888Z"/>
<path d="M152.557 21.288C152.578 22.2053 152.802 22.8827 153.229 23.32C153.666 23.7573 154.338 23.976 155.245 23.976C156.088 23.976 156.946 23.8107 157.821 23.48V24.616C157.053 25.032 156.114 25.24 155.005 25.24C153.693 25.24 152.701 24.8773 152.029 24.152C151.357 23.4267 151.021 22.3547 151.021 20.936C151.021 19.5813 151.357 18.5307 152.029 17.784C152.701 17.0267 153.64 16.648 154.845 16.648C155.858 16.648 156.637 16.936 157.181 17.512C157.725 18.0773 157.997 18.8827 157.997 19.928C157.997 20.4293 157.954 20.8827 157.869 21.288H152.557ZM154.765 17.848C154.093 17.848 153.57 18.0507 153.197 18.456C152.824 18.8507 152.61 19.4427 152.557 20.232H156.541C156.552 20.1467 156.557 20.008 156.557 19.816C156.557 19.1653 156.402 18.6747 156.093 18.344C155.794 18.0133 155.352 17.848 154.765 17.848Z"/>
</mask>
<path d="M1 11C1 5.47715 5.47715 1 11 1H219C224.523 1 229 5.47715 229 11V28C229 33.5228 224.523 38 219 38H11C5.47716 38 1 33.5228 1 28V11Z" fill="#FF9900"/>
<path d="M75.24 25L71.16 13.912H72.952L76.152 23.368L79.352 13.912H81.08L77 25H75.24Z" fill="#FF9900"/>
<path d="M82.5624 25V16.888H84.1464V25H82.5624ZM83.3624 15.448C83.053 15.448 82.8077 15.3627 82.6264 15.192C82.4557 15.0107 82.3704 14.776 82.3704 14.488C82.3704 14.2 82.4557 13.9707 82.6264 13.8C82.8077 13.6187 83.053 13.528 83.3624 13.528C83.6717 13.528 83.9117 13.6187 84.0824 13.8C84.2637 13.9707 84.3544 14.2 84.3544 14.488C84.3544 14.776 84.2637 15.0107 84.0824 15.192C83.9117 15.3627 83.6717 15.448 83.3624 15.448Z" fill="#FF9900"/>
<path d="M87.7765 21.288C87.7978 22.2053 88.0218 22.8827 88.4485 23.32C88.8858 23.7573 89.5578 23.976 90.4645 23.976C91.3072 23.976 92.1658 23.8107 93.0405 23.48V24.616C92.2725 25.032 91.3338 25.24 90.2245 25.24C88.9125 25.24 87.9205 24.8773 87.2485 24.152C86.5765 23.4267 86.2405 22.3547 86.2405 20.936C86.2405 19.5813 86.5765 18.5307 87.2485 17.784C87.9205 17.0267 88.8592 16.648 90.0645 16.648C91.0778 16.648 91.8565 16.936 92.4005 17.512C92.9445 18.0773 93.2165 18.8827 93.2165 19.928C93.2165 20.4293 93.1738 20.8827 93.0885 21.288H87.7765ZM89.9845 17.848C89.3125 17.848 88.7898 18.0507 88.4165 18.456C88.0432 18.8507 87.8298 19.4427 87.7765 20.232H91.7605C91.7712 20.1467 91.7765 20.008 91.7765 19.816C91.7765 19.1653 91.6218 18.6747 91.3125 18.344C91.0138 18.0133 90.5712 17.848 89.9845 17.848Z" fill="#FF9900"/>
<path d="M101.861 25L100.133 18.648L98.4212 25H96.8213L94.1653 16.888H95.8292L97.6533 23.384L99.3812 16.888H100.965L102.693 23.464L104.565 16.888H106.181L103.461 25H101.861Z" fill="#FF9900"/>
<path d="M113.594 20.712V25H112.01V13.912H116.026C117.103 13.912 117.962 14.2213 118.602 14.84C119.242 15.448 119.562 16.2747 119.562 17.32C119.562 18.3547 119.242 19.1813 118.602 19.8C117.962 20.408 117.103 20.712 116.026 20.712H113.594ZM113.594 19.416H115.882C116.554 19.416 117.06 19.24 117.402 18.888C117.743 18.5253 117.914 18.0027 117.914 17.32C117.914 15.912 117.236 15.208 115.882 15.208H113.594V19.416Z" fill="#FF9900"/>
<path d="M121.523 25V16.888H122.851L123.027 18.088C123.326 17.768 123.603 17.5227 123.859 17.352C124.115 17.1707 124.377 17.0373 124.643 16.952C124.91 16.8667 125.198 16.824 125.507 16.824C125.71 16.824 125.929 16.84 126.163 16.872V18.312C125.822 18.2693 125.534 18.248 125.299 18.248C124.446 18.248 123.715 18.504 123.107 19.016V25H121.523Z" fill="#FF9900"/>
<path d="M130.872 25.24C129.656 25.24 128.707 24.8613 128.024 24.104C127.341 23.3467 127 22.2907 127 20.936C127 19.592 127.341 18.5413 128.024 17.784C128.707 17.0267 129.656 16.648 130.872 16.648C132.088 16.648 133.037 17.0267 133.72 17.784C134.403 18.5413 134.744 19.592 134.744 20.936C134.744 22.2907 134.403 23.3467 133.72 24.104C133.037 24.8613 132.088 25.24 130.872 25.24ZM130.872 23.96C132.376 23.96 133.128 22.952 133.128 20.936C133.128 18.9307 132.376 17.928 130.872 17.928C129.368 17.928 128.616 18.9307 128.616 20.936C128.616 22.952 129.368 23.96 130.872 23.96Z" fill="#FF9900"/>
<path d="M137.385 25V18.136H135.881V17.112L137.385 16.92V15.608C137.385 13.8267 138.238 12.936 139.945 12.936C140.542 12.936 141.076 13.032 141.545 13.224V14.344C141.001 14.2587 140.585 14.216 140.297 14.216C139.806 14.216 139.46 14.312 139.257 14.504C139.065 14.6853 138.969 14.9893 138.969 15.416V16.888H144.281V25H142.697V18.136H138.969V25H137.385ZM143.497 15.448C143.188 15.448 142.942 15.3627 142.761 15.192C142.59 15.0107 142.505 14.776 142.505 14.488C142.505 14.2 142.59 13.9707 142.761 13.8C142.942 13.6187 143.188 13.528 143.497 13.528C143.806 13.528 144.046 13.6187 144.217 13.8C144.398 13.9707 144.489 14.2 144.489 14.488C144.489 14.776 144.398 15.0107 144.217 15.192C144.046 15.3627 143.806 15.448 143.497 15.448Z" fill="#FF9900"/>
<path d="M149.691 24.888C149.339 25.016 148.955 25.08 148.539 25.08C147.973 25.08 147.541 24.92 147.243 24.6C146.944 24.2693 146.795 23.8 146.795 23.192V13.16H148.379V23.096C148.379 23.3413 148.427 23.5227 148.523 23.64C148.629 23.7467 148.8 23.8 149.035 23.8C149.248 23.8 149.467 23.784 149.691 23.752V24.888Z" fill="#FF9900"/>
<path d="M152.557 21.288C152.578 22.2053 152.802 22.8827 153.229 23.32C153.666 23.7573 154.338 23.976 155.245 23.976C156.088 23.976 156.946 23.8107 157.821 23.48V24.616C157.053 25.032 156.114 25.24 155.005 25.24C153.693 25.24 152.701 24.8773 152.029 24.152C151.357 23.4267 151.021 22.3547 151.021 20.936C151.021 19.5813 151.357 18.5307 152.029 17.784C152.701 17.0267 153.64 16.648 154.845 16.648C155.858 16.648 156.637 16.936 157.181 17.512C157.725 18.0773 157.997 18.8827 157.997 19.928C157.997 20.4293 157.954 20.8827 157.869 21.288H152.557ZM154.765 17.848C154.093 17.848 153.57 18.0507 153.197 18.456C152.824 18.8507 152.61 19.4427 152.557 20.232H156.541C156.552 20.1467 156.557 20.008 156.557 19.816C156.557 19.1653 156.402 18.6747 156.093 18.344C155.794 18.0133 155.352 17.848 154.765 17.848Z" fill="#FF9900"/>
<path d="M226.5 35L226.848 35.3589L227.212 35.0054L226.854 34.6465L226.5 35ZM4.10508 34.9338L3.67096 35.1819L4.10508 34.9338ZM6.42864 37.5989L6.13782 38.0056L6.42864 37.5989ZM222.408 38.5255L222.649 38.9639L222.408 38.5255ZM224.392 37.0447L224.044 36.6859L224.392 37.0447ZM212 42V41.5H17V42V42.5H212V42ZM4.10508 34.9338L4.5392 34.6858L3.43417 32.7519L3.00005 33L2.56593 33.2481L3.67096 35.1819L4.10508 34.9338ZM17 42V41.5C15.547 41.5 13.7487 40.9816 11.9048 40.1677C10.0703 39.358 8.23447 38.2755 6.71946 37.1922L6.42864 37.5989L6.13782 38.0056C7.70193 39.1241 9.59698 40.2421 11.501 41.0825C13.3956 41.9188 15.3434 42.5 17 42.5V42ZM222.408 38.5255L222.168 38.0872C218.16 40.2862 214.795 41.5 212 41.5V42V42.5C215.055 42.5 218.602 41.1839 222.649 38.9639L222.408 38.5255ZM226 34.5L225.646 34.8535L226.146 35.3535L226.5 35L226.854 34.6465L226.354 34.1465L226 34.5ZM226.5 35L226.152 34.6411L224.044 36.6859L224.392 37.0447L224.741 37.4036L226.848 35.3589L226.5 35ZM4.10508 34.9338L3.67096 35.1819C4.28918 36.2638 5.09515 37.2601 6.13782 38.0056L6.42864 37.5989L6.71946 37.1922C5.8214 36.55 5.10466 35.6754 4.5392 34.6858L4.10508 34.9338ZM222.408 38.5255L222.649 38.9639C223.419 38.5413 224.117 38.0081 224.741 37.4036L224.392 37.0447L224.044 36.6859C223.478 37.2354 222.851 37.7125 222.168 38.0872L222.408 38.5255ZM75.24 25L74.3015 25.3453L74.5424 26H75.24V25ZM71.16 13.912V12.912H69.7265L70.2215 14.2573L71.16 13.912ZM72.952 13.912L73.8992 13.5914L73.6693 12.912H72.952V13.912ZM76.152 23.368L75.2048 23.6886L76.152 26.4876L77.0992 23.6886L76.152 23.368ZM79.352 13.912V12.912H78.6347L78.4048 13.5914L79.352 13.912ZM81.08 13.912L82.0185 14.2573L82.5135 12.912H81.08V13.912ZM77 25V26H77.6976L77.9385 25.3453L77 25ZM82.5624 25H81.5624V26H82.5624V25ZM82.5624 16.888V15.888H81.5624V16.888H82.5624ZM84.1464 16.888H85.1464V15.888H84.1464V16.888ZM84.1464 25V26H85.1464V25H84.1464ZM82.6264 15.192L81.8982 15.8774L81.9189 15.8994L81.941 15.9202L82.6264 15.192ZM82.6264 13.8L81.9193 13.0929L81.9193 13.0929L82.6264 13.8ZM84.0824 13.8L83.3542 14.4854L83.3749 14.5074L83.397 14.5282L84.0824 13.8ZM84.0824 15.192L83.3753 14.4849L83.3753 14.4849L84.0824 15.192ZM87.7765 21.288V20.288H86.753L86.7768 21.3112L87.7765 21.288ZM88.4485 23.32L87.7327 24.0184L87.7414 24.0271L88.4485 23.32ZM93.0405 23.48H94.0405V22.0329L92.6869 22.5446L93.0405 23.48ZM93.0405 24.616L93.5168 25.4953L94.0405 25.2116V24.616H93.0405ZM87.2485 24.152L87.9821 23.4724L87.9821 23.4724L87.2485 24.152ZM87.2485 17.784L87.9918 18.453L87.9965 18.4477L87.2485 17.784ZM92.4005 17.512L91.6735 18.1987L91.6799 18.2054L92.4005 17.512ZM93.0885 21.288V22.288H93.8999L94.0671 21.494L93.0885 21.288ZM88.4165 18.456L89.143 19.1433L89.152 19.1335L88.4165 18.456ZM87.7765 20.232L86.7788 20.1646L86.7066 21.232H87.7765V20.232ZM91.7605 20.232V21.232H92.6433L92.7528 20.356L91.7605 20.232ZM91.3125 18.344L90.5704 19.0143L90.5763 19.0208L90.5822 19.0272L91.3125 18.344ZM101.861 25L100.896 25.2625L101.097 26H101.861V25ZM100.133 18.648L101.098 18.3855L100.129 14.822L99.1677 18.3878L100.133 18.648ZM98.4212 25V26H99.1874L99.3868 25.2602L98.4212 25ZM96.8213 25L95.8709 25.3112L96.0964 26H96.8213V25ZM94.1653 16.888V15.888H92.7856L93.2149 17.1992L94.1653 16.888ZM95.8292 16.888L96.792 16.6177L96.5871 15.888H95.8292V16.888ZM97.6533 23.384L96.6905 23.6543L97.6793 27.176L98.6196 23.6411L97.6533 23.384ZM99.3812 16.888V15.888H98.6125L98.4149 16.6309L99.3812 16.888ZM100.965 16.888L101.932 16.6339L101.736 15.888H100.965V16.888ZM102.693 23.464L101.726 23.7181L102.655 27.2519L103.655 23.7378L102.693 23.464ZM104.565 16.888V15.888H103.81L103.603 16.6142L104.565 16.888ZM106.181 16.888L107.129 17.2059L107.571 15.888H106.181V16.888ZM103.461 25V26H104.181L104.409 25.3179L103.461 25ZM113.594 20.712V19.712H112.594V20.712H113.594ZM113.594 25V26H114.594V25H113.594ZM112.01 25H111.01V26H112.01V25ZM112.01 13.912V12.912H111.01V13.912H112.01ZM118.602 14.84L117.907 15.559L117.913 15.565L118.602 14.84ZM118.602 19.8L119.29 20.525L119.297 20.519L118.602 19.8ZM113.594 19.416H112.594V20.416H113.594V19.416ZM117.402 18.888L118.12 19.5841L118.125 19.5788L118.13 19.5734L117.402 18.888ZM113.594 15.208V14.208H112.594V15.208H113.594ZM121.523 25H120.523V26H121.523V25ZM121.523 16.888V15.888H120.523V16.888H121.523ZM122.851 16.888L123.841 16.7429L123.715 15.888H122.851V16.888ZM123.027 18.088L122.038 18.2331L122.34 20.2904L123.758 18.7703L123.027 18.088ZM123.859 17.352L124.414 18.184L124.426 18.1762L124.437 18.168L123.859 17.352ZM124.643 16.952L124.948 17.9044L124.948 17.9044L124.643 16.952ZM126.163 16.872H127.163V15.9991L126.298 15.8812L126.163 16.872ZM126.163 18.312L126.039 19.3043L127.163 19.4448V18.312H126.163ZM123.107 19.016L122.463 18.2511L122.107 18.5508V19.016H123.107ZM123.107 25V26H124.107V25H123.107ZM128.024 24.104L127.281 24.7735L127.281 24.7735L128.024 24.104ZM128.024 17.784L127.281 17.1145L127.281 17.1145L128.024 17.784ZM133.72 17.784L134.463 17.1145L134.463 17.1145L133.72 17.784ZM133.72 24.104L134.463 24.7735L134.463 24.7735L133.72 24.104ZM137.385 25H136.385V26H137.385V25ZM137.385 18.136H138.385V17.136H137.385V18.136ZM135.881 18.136H134.881V19.136H135.881V18.136ZM135.881 17.112L135.754 16.12L134.881 16.2315V17.112H135.881ZM137.385 16.92L137.512 17.912L138.385 17.8005V16.92H137.385ZM141.545 13.224H142.545V12.5526L141.924 12.2985L141.545 13.224ZM141.545 14.344L141.39 15.3319L142.545 15.5131V14.344H141.545ZM139.257 14.504L139.944 15.231L139.945 15.23L139.257 14.504ZM138.969 16.888H137.969V17.888H138.969V16.888ZM144.281 16.888H145.281V15.888H144.281V16.888ZM144.281 25V26H145.281V25H144.281ZM142.697 25H141.697V26H142.697V25ZM142.697 18.136H143.697V17.136H142.697V18.136ZM138.969 18.136V17.136H137.969V18.136H138.969ZM138.969 25V26H139.969V25H138.969ZM142.761 15.192L142.033 15.8774L142.054 15.8994L142.076 15.9202L142.761 15.192ZM142.761 13.8L142.054 13.0929L142.054 13.0929L142.761 13.8ZM144.217 13.8L143.489 14.4854L143.51 14.5074L143.532 14.5282L144.217 13.8ZM149.691 24.888L150.032 25.8278L150.691 25.5884V24.888H149.691ZM147.243 24.6L146.501 25.2703L146.506 25.2763L146.512 25.2823L147.243 24.6ZM146.795 13.16V12.16H145.795V13.16H146.795ZM148.379 13.16H149.379V12.16H148.379V13.16ZM148.523 23.64L147.749 24.2732L147.78 24.3118L147.816 24.3471L148.523 23.64ZM149.691 23.752H150.691V22.599L149.549 22.7621L149.691 23.752ZM152.557 21.288V20.288H151.534L151.557 21.3112L152.557 21.288ZM153.229 23.32L152.513 24.0184L152.522 24.0271L153.229 23.32ZM157.821 23.48H158.821V22.0329L157.467 22.5446L157.821 23.48ZM157.821 24.616L158.297 25.4953L158.821 25.2116V24.616H157.821ZM152.029 24.152L152.763 23.4724L152.763 23.4724L152.029 24.152ZM152.029 17.784L152.772 18.453L152.777 18.4477L152.029 17.784ZM157.181 17.512L156.454 18.1987L156.461 18.2054L157.181 17.512ZM157.869 21.288V22.288H158.681L158.848 21.494L157.869 21.288ZM153.197 18.456L153.924 19.1433L153.933 19.1335L153.197 18.456ZM152.557 20.232L151.559 20.1646L151.487 21.232H152.557V20.232ZM156.541 20.232V21.232H157.424L157.533 20.356L156.541 20.232ZM156.093 18.344L155.351 19.0143L155.357 19.0208L155.363 19.0272L156.093 18.344ZM11 1V2H219V1V0H11V1ZM229 11H228V28H229H230V11H229ZM219 38V37H11V38V39H219V38ZM1 28H2V11H1H0V28H1ZM11 38V37C6.02944 37 2 32.9706 2 28H1H0C0 34.0751 4.92487 39 11 39V38ZM229 28H228C228 32.9706 223.971 37 219 37V38V39C225.075 39 230 34.0751 230 28H229ZM219 1V2C223.971 2 228 6.02944 228 11H229H230C230 4.92487 225.075 0 219 0V1ZM11 1V0C4.92487 0 0 4.92487 0 11H1H2C2 6.02944 6.02944 2 11 2V1ZM75.24 25L76.1785 24.6547L72.0985 13.5667L71.16 13.912L70.2215 14.2573L74.3015 25.3453L75.24 25ZM71.16 13.912V14.912H72.952V13.912V12.912H71.16V13.912ZM72.952 13.912L72.0048 14.2326L75.2048 23.6886L76.152 23.368L77.0992 23.0474L73.8992 13.5914L72.952 13.912ZM76.152 23.368L77.0992 23.6886L80.2992 14.2326L79.352 13.912L78.4048 13.5914L75.2048 23.0474L76.152 23.368ZM79.352 13.912V14.912H81.08V13.912V12.912H79.352V13.912ZM81.08 13.912L80.1415 13.5667L76.0615 24.6547L77 25L77.9385 25.3453L82.0185 14.2573L81.08 13.912ZM77 25V24H75.24V25V26H77V25ZM82.5624 25H83.5624V16.888H82.5624H81.5624V25H82.5624ZM82.5624 16.888V17.888H84.1464V16.888V15.888H82.5624V16.888ZM84.1464 16.888H83.1464V25H84.1464H85.1464V16.888H84.1464ZM84.1464 25V24H82.5624V25V26H84.1464V25ZM83.3624 15.448V14.448C83.2988 14.448 83.2739 14.4392 83.2749 14.4395C83.2755 14.4397 83.2808 14.4417 83.2889 14.4465C83.297 14.4514 83.305 14.4574 83.3117 14.4638L82.6264 15.192L81.941 15.9202C82.3501 16.3053 82.863 16.448 83.3624 16.448V15.448ZM82.6264 15.192L83.3546 14.5066C83.3575 14.5098 83.3618 14.515 83.366 14.5219C83.3703 14.5288 83.3729 14.5347 83.3742 14.5383C83.3769 14.5459 83.3704 14.533 83.3704 14.488H82.3704H81.3704C81.3704 14.988 81.5257 15.4816 81.8982 15.8774L82.6264 15.192ZM82.3704 14.488H83.3704C83.3704 14.4424 83.3771 14.434 83.3716 14.4487C83.3689 14.456 83.3641 14.4664 83.3566 14.478C83.3491 14.4898 83.341 14.4996 83.3335 14.5071L82.6264 13.8L81.9193 13.0929C81.5255 13.4867 81.3704 13.9897 81.3704 14.488H82.3704ZM82.6264 13.8L83.3335 14.5071C83.3281 14.5125 83.3207 14.5186 83.3119 14.5242C83.3032 14.5298 83.2963 14.5328 83.293 14.534C83.2865 14.5364 83.3049 14.528 83.3624 14.528V13.528V12.528C82.8463 12.528 82.3258 12.6864 81.9193 13.0929L82.6264 13.8ZM83.3624 13.528V14.528C83.4205 14.528 83.4345 14.5366 83.421 14.5315C83.414 14.5288 83.4026 14.5236 83.3892 14.5147C83.3756 14.5057 83.3637 14.4955 83.3542 14.4854L84.0824 13.8L84.8106 13.1146C84.407 12.6859 83.8761 12.528 83.3624 12.528V13.528ZM84.0824 13.8L83.397 14.5282C83.3908 14.5224 83.3826 14.5134 83.3745 14.5013C83.3662 14.4892 83.3603 14.4775 83.3564 14.4677C83.3484 14.4474 83.3544 14.4491 83.3544 14.488H84.3544H85.3544C85.3544 13.9714 85.1818 13.4615 84.7677 13.0718L84.0824 13.8ZM84.3544 14.488H83.3544C83.3544 14.5075 83.3528 14.5188 83.3521 14.5231C83.3514 14.5272 83.3513 14.5254 83.3536 14.5196C83.3559 14.5136 83.3595 14.5062 83.3644 14.4987C83.3693 14.4913 83.3735 14.4867 83.3753 14.4849L84.0824 15.192L84.7895 15.8991C85.1821 15.5065 85.3544 15.0056 85.3544 14.488H84.3544ZM84.0824 15.192L83.3753 14.4849C83.3865 14.4736 83.3993 14.4635 83.4124 14.4554C83.4253 14.4473 83.4351 14.4433 83.4394 14.4418C83.4472 14.439 83.4266 14.448 83.3624 14.448V15.448V16.448C83.8587 16.448 84.3824 16.3062 84.7895 15.8991L84.0824 15.192ZM87.7765 21.288L86.7768 21.3112C86.8011 22.3574 87.0586 23.3274 87.7327 24.0183L88.4485 23.32L89.1643 22.6217C88.9851 22.438 88.7946 22.0532 88.7762 21.2648L87.7765 21.288ZM88.4485 23.32L87.7414 24.0271C88.4384 24.7241 89.4159 24.976 90.4645 24.976V23.976V22.976C89.6998 22.976 89.3333 22.7906 89.1556 22.6129L88.4485 23.32ZM90.4645 23.976V24.976C91.4405 24.976 92.4188 24.7841 93.3941 24.4154L93.0405 23.48L92.6869 22.5446C91.9129 22.8372 91.1738 22.976 90.4645 22.976V23.976ZM93.0405 23.48H92.0405V24.616H93.0405H94.0405V23.48H93.0405ZM93.0405 24.616L92.5642 23.7367C91.9767 24.0549 91.2114 24.24 90.2245 24.24V25.24V26.24C91.4562 26.24 92.5682 26.0091 93.5168 25.4953L93.0405 24.616ZM90.2245 25.24V24.24C89.0956 24.24 88.4085 23.9327 87.9821 23.4724L87.2485 24.152L86.5149 24.8316C87.4325 25.822 88.7294 26.24 90.2245 26.24V25.24ZM87.2485 24.152L87.9821 23.4724C87.5432 22.9987 87.2405 22.2116 87.2405 20.936H86.2405H85.2405C85.2405 22.4978 85.6097 23.8546 86.5149 24.8316L87.2485 24.152ZM86.2405 20.936H87.2405C87.2405 19.7412 87.5353 18.9601 87.9918 18.453L87.2485 17.784L86.5052 17.115C85.6176 18.1012 85.2405 19.4215 85.2405 20.936H86.2405ZM87.2485 17.784L87.9965 18.4477C88.4424 17.9451 89.0855 17.648 90.0645 17.648V16.648V15.648C88.6328 15.648 87.3985 16.1082 86.5005 17.1203L87.2485 17.784ZM90.0645 16.648V17.648C90.8839 17.648 91.3677 17.8749 91.6735 18.1986L92.4005 17.512L93.1275 16.8254C92.3453 15.9971 91.2718 15.648 90.0645 15.648V16.648ZM92.4005 17.512L91.6799 18.2054C91.9916 18.5292 92.2165 19.0529 92.2165 19.928H93.2165H94.2165C94.2165 18.7124 93.8974 17.6254 93.1211 16.8186L92.4005 17.512ZM93.2165 19.928H92.2165C92.2165 20.374 92.1784 20.7568 92.11 21.082L93.0885 21.288L94.0671 21.494C94.1693 21.0086 94.2165 20.4846 94.2165 19.928H93.2165ZM93.0885 21.288V20.288H87.7765V21.288V22.288H93.0885V21.288ZM89.9845 17.848V16.848C89.0992 16.848 88.2842 17.1235 87.681 17.7785L88.4165 18.456L89.152 19.1335C89.2954 18.9778 89.5258 18.848 89.9845 18.848V17.848ZM88.4165 18.456L87.69 17.7688C87.0982 18.3945 86.8408 19.2463 86.7788 20.1646L87.7765 20.232L88.7742 20.2994C88.8188 19.639 88.9882 19.3069 89.143 19.1432L88.4165 18.456ZM87.7765 20.232V21.232H91.7605V20.232V19.232H87.7765V20.232ZM91.7605 20.232L92.7528 20.356C92.7718 20.2041 92.7765 20.0117 92.7765 19.816H91.7765H90.7765C90.7765 19.9036 90.7753 19.9728 90.7732 20.0256C90.7722 20.0517 90.7711 20.0719 90.77 20.0868C90.7689 20.1021 90.7682 20.1085 90.7682 20.108L91.7605 20.232ZM91.7765 19.816H92.7765C92.7765 19.0219 92.5884 18.2441 92.0428 17.6608L91.3125 18.344L90.5822 19.0272C90.6553 19.1053 90.7765 19.3087 90.7765 19.816H91.7765ZM91.3125 18.344L92.0546 17.6737C91.5111 17.072 90.7596 16.848 89.9845 16.848V17.848V18.848C90.3828 18.848 90.5166 18.9547 90.5704 19.0143L91.3125 18.344ZM101.861 25L102.826 24.7375L101.098 18.3855L100.133 18.648L99.1683 18.9105L100.896 25.2625L101.861 25ZM100.133 18.648L99.1677 18.3878L97.4557 24.7398L98.4212 25L99.3868 25.2602L101.099 18.9082L100.133 18.648ZM98.4212 25V24H96.8213V25V26H98.4212V25ZM96.8213 25L97.7716 24.6888L95.1156 16.5768L94.1653 16.888L93.2149 17.1992L95.8709 25.3112L96.8213 25ZM94.1653 16.888V17.888H95.8292V16.888V15.888H94.1653V16.888ZM95.8292 16.888L94.8665 17.1583L96.6905 23.6543L97.6533 23.384L98.616 23.1137L96.792 16.6177L95.8292 16.888ZM97.6533 23.384L98.6196 23.6411L100.348 17.1451L99.3812 16.888L98.4149 16.6309L96.6869 23.1269L97.6533 23.384ZM99.3812 16.888V17.888H100.965V16.888V15.888H99.3812V16.888ZM100.965 16.888L99.9981 17.1421L101.726 23.7181L102.693 23.464L103.66 23.2099L101.932 16.6339L100.965 16.888ZM102.693 23.464L103.655 23.7378L105.527 17.1618L104.565 16.888L103.603 16.6142L101.731 23.1902L102.693 23.464ZM104.565 16.888V17.888H106.181V16.888V15.888H104.565V16.888ZM106.181 16.888L105.233 16.5701L102.513 24.6821L103.461 25L104.409 25.3179L107.129 17.2059L106.181 16.888ZM103.461 25V24H101.861V25V26H103.461V25ZM113.594 20.712H112.594V25H113.594H114.594V20.712H113.594ZM113.594 25V24H112.01V25V26H113.594V25ZM112.01 25H113.01V13.912H112.01H111.01V25H112.01ZM112.01 13.912V14.912H116.026V13.912V12.912H112.01V13.912ZM116.026 13.912V14.912C116.902 14.912 117.491 15.1572 117.907 15.559L118.602 14.84L119.297 14.121C118.432 13.2855 117.304 12.912 116.026 12.912V13.912ZM118.602 14.84L117.913 15.565C118.318 15.9496 118.562 16.4941 118.562 17.32H119.562H120.562C120.562 16.0553 120.166 14.9464 119.29 14.115L118.602 14.84ZM119.562 17.32H118.562C118.562 18.1314 118.32 18.6816 117.907 19.081L118.602 19.8L119.297 20.519C120.163 19.6811 120.562 18.5779 120.562 17.32H119.562ZM118.602 19.8L117.913 19.075C117.498 19.4692 116.906 19.712 116.026 19.712V20.712V21.712C117.3 21.712 118.425 21.3468 119.29 20.525L118.602 19.8ZM116.026 20.712V19.712H113.594V20.712V21.712H116.026V20.712ZM113.594 19.416V20.416H115.882V19.416V18.416H113.594V19.416ZM115.882 19.416V20.416C116.721 20.416 117.529 20.1936 118.12 19.5841L117.402 18.888L116.684 18.1919C116.592 18.2864 116.386 18.416 115.882 18.416V19.416ZM117.402 18.888L118.13 19.5734C118.702 18.9656 118.914 18.1617 118.914 17.32H117.914H116.914C116.914 17.8436 116.784 18.0851 116.673 18.2026L117.402 18.888ZM117.914 17.32H118.914C118.914 16.4713 118.71 15.6494 118.126 15.0427C117.536 14.4287 116.723 14.208 115.882 14.208V15.208V16.208C116.395 16.208 116.598 16.3393 116.685 16.4293C116.779 16.5266 116.914 16.7607 116.914 17.32H117.914ZM115.882 15.208V14.208H113.594V15.208V16.208H115.882V15.208ZM113.594 15.208H112.594V19.416H113.594H114.594V15.208H113.594ZM121.523 25H122.523V16.888H121.523H120.523V25H121.523ZM121.523 16.888V17.888H122.851V16.888V15.888H121.523V16.888ZM122.851 16.888L121.862 17.0331L122.038 18.2331L123.027 18.088L124.017 17.9429L123.841 16.7429L122.851 16.888ZM123.027 18.088L123.758 18.7703C124.025 18.4852 124.243 18.298 124.414 18.184L123.859 17.352L123.305 16.5199C122.964 16.7473 122.628 17.0508 122.296 17.4057L123.027 18.088ZM123.859 17.352L124.437 18.168C124.62 18.0388 124.79 17.955 124.948 17.9044L124.643 16.952L124.339 15.9996C123.963 16.1196 123.611 16.3025 123.281 16.536L123.859 17.352ZM124.643 16.952L124.948 17.9044C125.107 17.8537 125.291 17.824 125.507 17.824V16.824V15.824C125.105 15.824 124.714 15.8796 124.339 15.9996L124.643 16.952ZM125.507 16.824V17.824C125.658 17.824 125.831 17.8359 126.028 17.8628L126.163 16.872L126.298 15.8812C126.026 15.8441 125.762 15.824 125.507 15.824V16.824ZM126.163 16.872H125.163V18.312H126.163H127.163V16.872H126.163ZM126.163 18.312L126.287 17.3197C125.922 17.274 125.59 17.248 125.299 17.248V18.248V19.248C125.478 19.248 125.722 19.2646 126.039 19.3043L126.163 18.312ZM125.299 18.248V17.248C124.229 17.248 123.265 17.5756 122.463 18.2511L123.107 19.016L123.752 19.7809C124.165 19.4324 124.663 19.248 125.299 19.248V18.248ZM123.107 19.016H122.107V25H123.107H124.107V19.016H123.107ZM123.107 25V24H121.523V25V26H123.107V25ZM130.872 25.24V24.24C129.88 24.24 129.223 23.941 128.767 23.4345L128.024 24.104L127.281 24.7735C128.19 25.7817 129.432 26.24 130.872 26.24V25.24ZM128.024 24.104L128.767 23.4345C128.298 22.9142 128 22.1261 128 20.936H127H126C126 22.4552 126.385 23.7791 127.281 24.7735L128.024 24.104ZM127 20.936H128C128 19.7589 128.296 18.9751 128.767 18.4535L128.024 17.784L127.281 17.1145C126.386 18.1075 126 19.4251 126 20.936H127ZM128.024 17.784L128.767 18.4535C129.223 17.947 129.88 17.648 130.872 17.648V16.648V15.648C129.432 15.648 128.19 16.1063 127.281 17.1145L128.024 17.784ZM130.872 16.648V17.648C131.864 17.648 132.521 17.9471 132.977 18.4535L133.72 17.784L134.463 17.1145C133.554 16.1063 132.312 15.648 130.872 15.648V16.648ZM133.72 17.784L132.977 18.4535C133.447 18.9751 133.744 19.7589 133.744 20.936H134.744H135.744C135.744 19.4251 135.358 18.1075 134.463 17.1145L133.72 17.784ZM134.744 20.936H133.744C133.744 22.1261 133.446 22.9142 132.977 23.4345L133.72 24.104L134.463 24.7735C135.359 23.7791 135.744 22.4552 135.744 20.936H134.744ZM133.72 24.104L132.977 23.4345C132.521 23.9409 131.864 24.24 130.872 24.24V25.24V26.24C132.312 26.24 133.554 25.7817 134.463 24.7735L133.72 24.104ZM130.872 23.96V24.96C131.87 24.96 132.763 24.61 133.365 23.802C133.927 23.0489 134.128 22.0393 134.128 20.936H133.128H132.128C132.128 21.8487 131.953 22.3511 131.762 22.606C131.613 22.806 131.378 22.96 130.872 22.96V23.96ZM133.128 20.936H134.128C134.128 19.8372 133.927 18.8307 133.364 18.08C132.76 17.2752 131.868 16.928 130.872 16.928V17.928V18.928C131.38 18.928 131.616 19.0822 131.764 19.28C131.953 19.5319 132.128 20.0295 132.128 20.936H133.128ZM130.872 17.928V16.928C129.876 16.928 128.983 17.2752 128.38 18.08C127.817 18.8307 127.616 19.8372 127.616 20.936H128.616H129.616C129.616 20.0295 129.791 19.5319 129.98 19.28C130.128 19.0822 130.364 18.928 130.872 18.928V17.928ZM128.616 20.936H127.616C127.616 22.0393 127.817 23.0489 128.378 23.802C128.981 24.61 129.874 24.96 130.872 24.96V23.96V22.96C130.366 22.96 130.131 22.806 129.981 22.606C129.791 22.3511 129.616 21.8487 129.616 20.936H128.616ZM137.385 25H138.385V18.136H137.385H136.385V25H137.385ZM137.385 18.136V17.136H135.881V18.136V19.136H137.385V18.136ZM135.881 18.136H136.881V17.112H135.881H134.881V18.136H135.881ZM135.881 17.112L136.008 18.1039L137.512 17.912L137.385 16.92L137.259 15.9281L135.754 16.12L135.881 17.112ZM137.385 16.92H138.385V15.608H137.385H136.385V16.92H137.385ZM137.385 15.608H138.385C138.385 14.861 138.565 14.4863 138.747 14.2958C138.922 14.1133 139.257 13.936 139.945 13.936V12.936V11.936C138.926 11.936 137.982 12.204 137.303 12.9122C136.632 13.6124 136.385 14.5736 136.385 15.608H137.385ZM139.945 12.936V13.936C140.435 13.936 140.837 14.0146 141.166 14.1495L141.545 13.224L141.924 12.2985C141.315 12.0494 140.65 11.936 139.945 11.936V12.936ZM141.545 13.224H140.545V14.344H141.545H142.545V13.224H141.545ZM141.545 14.344L141.7 13.3561C141.142 13.2686 140.665 13.216 140.297 13.216V14.216V15.216C140.506 15.216 140.86 15.2488 141.39 15.3319L141.545 14.344ZM140.297 14.216V13.216C139.728 13.216 139.056 13.3174 138.569 13.778L139.257 14.504L139.945 15.23C139.898 15.2742 139.876 15.2683 139.936 15.2517C139.997 15.2347 140.112 15.216 140.297 15.216V14.216ZM139.257 14.504L138.571 13.777C138.084 14.236 137.969 14.878 137.969 15.416H138.969H139.969C139.969 15.2726 139.986 15.1971 139.995 15.1691C140.002 15.146 139.995 15.1828 139.944 15.231L139.257 14.504ZM138.969 15.416H137.969V16.888H138.969H139.969V15.416H138.969ZM138.969 16.888V17.888H144.281V16.888V15.888H138.969V16.888ZM144.281 16.888H143.281V25H144.281H145.281V16.888H144.281ZM144.281 25V24H142.697V25V26H144.281V25ZM142.697 25H143.697V18.136H142.697H141.697V25H142.697ZM142.697 18.136V17.136H138.969V18.136V19.136H142.697V18.136ZM138.969 18.136H137.969V25H138.969H139.969V18.136H138.969ZM138.969 25V24H137.385V25V26H138.969V25ZM143.497 15.448V14.448C143.434 14.448 143.409 14.4392 143.41 14.4395C143.41 14.4397 143.416 14.4417 143.424 14.4465C143.432 14.4514 143.44 14.4574 143.446 14.4638L142.761 15.192L142.076 15.9202C142.485 16.3053 142.998 16.448 143.497 16.448V15.448ZM142.761 15.192L143.489 14.5066C143.492 14.5098 143.497 14.515 143.501 14.5219C143.505 14.5288 143.508 14.5347 143.509 14.5383C143.512 14.5459 143.505 14.533 143.505 14.488H142.505H141.505C141.505 14.988 141.66 15.4816 142.033 15.8774L142.761 15.192ZM142.505 14.488H143.505C143.505 14.4424 143.512 14.434 143.506 14.4487C143.504 14.456 143.499 14.4664 143.491 14.478C143.484 14.4898 143.476 14.4996 143.468 14.5071L142.761 13.8L142.054 13.0929C141.66 13.4867 141.505 13.9897 141.505 14.488H142.505ZM142.761 13.8L143.468 14.5071C143.463 14.5125 143.455 14.5186 143.447 14.5242C143.438 14.5298 143.431 14.5328 143.428 14.534C143.421 14.5364 143.44 14.528 143.497 14.528V13.528V12.528C142.981 12.528 142.461 12.6864 142.054 13.0929L142.761 13.8ZM143.497 13.528V14.528C143.555 14.528 143.569 14.5366 143.556 14.5315C143.549 14.5288 143.537 14.5236 143.524 14.5147C143.51 14.5057 143.498 14.4955 143.489 14.4854L144.217 13.8L144.945 13.1146C144.542 12.6859 144.011 12.528 143.497 12.528V13.528ZM144.217 13.8L143.532 14.5282C143.526 14.5224 143.517 14.5134 143.509 14.5013C143.501 14.4892 143.495 14.4774 143.491 14.4676C143.483 14.4474 143.489 14.4491 143.489 14.488H144.489H145.489C145.489 13.9715 145.317 13.4615 144.902 13.0718L144.217 13.8ZM144.489 14.488H143.489C143.489 14.5076 143.488 14.5188 143.487 14.5231C143.486 14.5272 143.486 14.5255 143.488 14.5196C143.491 14.5136 143.494 14.5062 143.499 14.4988C143.504 14.4913 143.508 14.4867 143.51 14.4849L144.217 15.192L144.924 15.8991C145.317 15.5064 145.489 15.0055 145.489 14.488H144.489ZM144.217 15.192L143.51 14.4849C143.521 14.4736 143.534 14.4635 143.547 14.4554C143.56 14.4473 143.57 14.4433 143.574 14.4418C143.582 14.439 143.561 14.448 143.497 14.448V15.448V16.448C143.993 16.448 144.517 16.3062 144.924 15.8991L144.217 15.192ZM149.691 24.888L149.349 23.9482C149.118 24.0322 148.851 24.08 148.539 24.08V25.08V26.08C149.058 26.08 149.559 25.9998 150.032 25.8278L149.691 24.888ZM148.539 25.08V24.08C148.165 24.08 148.032 23.9801 147.974 23.9177L147.243 24.6L146.512 25.2823C147.051 25.8599 147.781 26.08 148.539 26.08V25.08ZM147.243 24.6L147.985 23.9297C147.904 23.8408 147.795 23.6435 147.795 23.192H146.795H145.795C145.795 23.9565 145.984 24.6979 146.501 25.2703L147.243 24.6ZM146.795 23.192H147.795V13.16H146.795H145.795V23.192H146.795ZM146.795 13.16V14.16H148.379V13.16V12.16H146.795V13.16ZM148.379 13.16H147.379V23.096H148.379H149.379V13.16H148.379ZM148.379 23.096H147.379C147.379 23.4392 147.44 23.896 147.749 24.2732L148.523 23.64L149.297 23.0068C149.358 23.0817 149.377 23.1446 149.381 23.1601C149.385 23.174 149.379 23.1572 149.379 23.096H148.379ZM148.523 23.64L147.816 24.3471C148.191 24.7229 148.678 24.8 149.035 24.8V23.8V22.8C148.989 22.8 148.993 22.7943 149.029 22.8055C149.069 22.8182 149.149 22.8526 149.23 22.9329L148.523 23.64ZM149.035 23.8V24.8C149.298 24.8 149.564 24.7802 149.832 24.742L149.691 23.752L149.549 22.7621C149.369 22.7878 149.198 22.8 149.035 22.8V23.8ZM149.691 23.752H148.691V24.888H149.691H150.691V23.752H149.691ZM152.557 21.288L151.557 21.3112C151.582 22.3574 151.839 23.3273 152.513 24.0183L153.229 23.32L153.945 22.6217C153.766 22.438 153.575 22.0533 153.557 21.2648L152.557 21.288ZM153.229 23.32L152.522 24.0271C153.219 24.7241 154.196 24.976 155.245 24.976V23.976V22.976C154.48 22.976 154.114 22.7906 153.936 22.6129L153.229 23.32ZM155.245 23.976V24.976C156.221 24.976 157.199 24.7841 158.175 24.4154L157.821 23.48L157.467 22.5446C156.693 22.8372 155.954 22.976 155.245 22.976V23.976ZM157.821 23.48H156.821V24.616H157.821H158.821V23.48H157.821ZM157.821 24.616L157.345 23.7367C156.757 24.0549 155.992 24.24 155.005 24.24V25.24V26.24C156.237 26.24 157.349 26.0091 158.297 25.4953L157.821 24.616ZM155.005 25.24V24.24C153.876 24.24 153.189 23.9327 152.763 23.4724L152.029 24.152L151.296 24.8316C152.213 25.822 153.51 26.24 155.005 26.24V25.24ZM152.029 24.152L152.763 23.4724C152.324 22.9987 152.021 22.2116 152.021 20.936H151.021H150.021C150.021 22.4978 150.39 23.8546 151.296 24.8316L152.029 24.152ZM151.021 20.936H152.021C152.021 19.7412 152.316 18.9601 152.772 18.453L152.029 17.784L151.286 17.115C150.398 18.1012 150.021 19.4215 150.021 20.936H151.021ZM152.029 17.784L152.777 18.4477C153.223 17.9451 153.866 17.648 154.845 17.648V16.648V15.648C153.413 15.648 152.179 16.1082 151.281 17.1203L152.029 17.784ZM154.845 16.648V17.648C155.665 17.648 156.148 17.8749 156.454 18.1986L157.181 17.512L157.908 16.8254C157.126 15.9971 156.052 15.648 154.845 15.648V16.648ZM157.181 17.512L156.461 18.2054C156.772 18.5292 156.997 19.0529 156.997 19.928H157.997H158.997C158.997 18.7124 158.678 17.6254 157.902 16.8186L157.181 17.512ZM157.997 19.928H156.997C156.997 20.374 156.959 20.7568 156.891 21.082L157.869 21.288L158.848 21.494C158.95 21.0086 158.997 20.4847 158.997 19.928H157.997ZM157.869 21.288V20.288H152.557V21.288V22.288H157.869V21.288ZM154.765 17.848V16.848C153.88 16.848 153.065 17.1235 152.462 17.7785L153.197 18.456L153.933 19.1335C154.076 18.9778 154.306 18.848 154.765 18.848V17.848ZM153.197 18.456L152.471 17.7688C151.879 18.3945 151.621 19.2463 151.559 20.1646L152.557 20.232L153.555 20.2994C153.599 19.639 153.769 19.3068 153.924 19.1432L153.197 18.456ZM152.557 20.232V21.232H156.541V20.232V19.232H152.557V20.232ZM156.541 20.232L157.533 20.356C157.552 20.2041 157.557 20.0118 157.557 19.816H156.557H155.557C155.557 19.9036 155.556 19.9728 155.554 20.0255C155.553 20.0517 155.552 20.0718 155.551 20.0867C155.55 20.1021 155.549 20.1085 155.549 20.108L156.541 20.232ZM156.557 19.816H157.557C157.557 19.0219 157.369 18.2441 156.823 17.6608L156.093 18.344L155.363 19.0272C155.436 19.1053 155.557 19.3087 155.557 19.816H156.557ZM156.093 18.344L156.835 17.6737C156.292 17.072 155.54 16.848 154.765 16.848V17.848V18.848C155.163 18.848 155.297 18.9547 155.351 19.0143L156.093 18.344Z" fill="black" mask="url(#path-2-outside-1_1030_115)"/>
</svg>
