<svg width="27" height="27" viewBox="0 0 27 27" fill="none" xmlns="http://www.w3.org/2000/svg">
<path d="M0.678986 12.5291L9.36824 9.36617L12.5291 0.678986C12.6016 0.479978 12.7335 0.308081 12.907 0.186617C13.0805 0.065152 13.2872 0 13.499 0C13.7108 0 13.9174 0.065152 14.0909 0.186617C14.2644 0.308081 14.3963 0.479978 14.4688 0.678986L17.6318 9.36824L26.321 12.5291C26.52 12.6016 26.6919 12.7335 26.8134 12.907C26.9348 13.0805 27 13.2872 27 13.499C27 13.7108 26.9348 13.9174 26.8134 14.0909C26.6919 14.2644 26.52 14.3963 26.321 14.4688L17.6297 17.6318L14.4688 26.321C14.3963 26.52 14.2644 26.6919 14.0909 26.8134C13.9174 26.9348 13.7108 27 13.499 27C13.2872 27 13.0805 26.9348 12.907 26.8134C12.7335 26.6919 12.6016 26.52 12.5291 26.321L9.36617 17.6297L0.678986 14.4688C0.479978 14.3963 0.308081 14.2644 0.186617 14.0909C0.065152 13.9174 0 13.7108 0 13.499C0 13.2872 0.065152 13.0805 0.186617 12.907C0.308081 12.7335 0.479978 12.6016 0.678986 12.5291Z" fill="url(#paint0_linear_67_307)"/>
<defs>
<linearGradient id="paint0_linear_67_307" x1="14" y1="11.5" x2="34.5" y2="30.5" gradientUnits="userSpaceOnUse">
<stop stop-color="#FF9900"/>
<stop offset="1" stop-color="#995C00"/>
</linearGradient>
</defs>
</svg>
