<svg width="10" height="17" viewBox="0 0 10 17" fill="none" xmlns="http://www.w3.org/2000/svg">
<path fill-rule="evenodd" clip-rule="evenodd" d="M8.91798 7.1787C9.14463 7.40542 9.27196 7.71288 9.27196 8.03347C9.27196 8.35405 9.14463 8.66151 8.91798 8.88824L2.07863 15.7276C1.9671 15.8431 1.8337 15.9352 1.68619 15.9985C1.53869 16.0619 1.38004 16.0952 1.21951 16.0966C1.05898 16.098 0.89978 16.0674 0.751197 16.0066C0.602615 15.9459 0.467626 15.8561 0.354109 15.7426C0.240593 15.6291 0.15082 15.4941 0.0900302 15.3455C0.0292403 15.1969 -0.00134937 15.0377 4.55952e-05 14.8772C0.00144056 14.7166 0.0347925 14.558 0.0981553 14.4105C0.161518 14.263 0.253623 14.1296 0.369095 14.018L6.35368 8.03347L0.369094 2.04889C0.148864 1.82086 0.0270032 1.51547 0.0297578 1.19847C0.0325124 0.881474 0.159662 0.578238 0.383822 0.354079C0.607981 0.12992 0.911215 0.00276943 1.22821 1.52051e-05C1.54521 -0.00273902 1.85061 0.119121 2.07863 0.339351L8.91798 7.1787Z" fill="#FF9900"/>
</svg>
