<svg width="19" height="29" viewBox="0 0 19 29" fill="none" xmlns="http://www.w3.org/2000/svg">
<path d="M14.3187 0C15.5634 0 16.3967 1.18107 16.1125 2.31331L16.04 2.53975L12.9349 10.5083H16.6498C18.1076 10.5083 18.9172 12.0683 18.2778 13.2523L18.1298 13.4832L7.07389 28.3532C6.27467 29.4262 4.67475 28.6847 4.81387 27.4577L5.9757 17.2306H1.84935C0.506949 17.2306 -0.351476 15.8631 0.139898 14.6628L0.147299 14.6465L5.92834 1.13667C6.06882 0.800523 6.30543 0.513335 6.60848 0.311124C6.91154 0.108913 7.26755 0.00068011 7.63187 0H14.3187Z" fill="url(#paint0_linear_69_121)"/>
<defs>
<linearGradient id="paint0_linear_69_121" x1="3.5" y1="6" x2="40.5" y2="44" gradientUnits="userSpaceOnUse">
<stop stop-color="#FF9900"/>
<stop offset="1" stop-color="#995C00"/>
</linearGradient>
</defs>
</svg>
