<svg width="10" height="17" viewBox="0 0 10 17" fill="none" xmlns="http://www.w3.org/2000/svg">
<path fill-rule="evenodd" clip-rule="evenodd" d="M0.353995 8.91795C0.127341 8.69123 1.39386e-05 8.38377 1.39527e-05 8.06318C1.39667e-05 7.7426 0.127341 7.43514 0.353995 7.20841L7.19334 0.369065C7.30487 0.253593 7.43828 0.161488 7.58578 0.0981248C7.73328 0.034762 7.89193 0.00141004 8.05246 1.50768e-05C8.21299 -0.00137989 8.37219 0.0292104 8.52078 0.0900003C8.66936 0.15079 8.80435 0.240563 8.91786 0.35408C9.03138 0.467596 9.12115 0.602584 9.18194 0.751166C9.24273 0.899749 9.27332 1.05895 9.27193 1.21948C9.27053 1.38001 9.23718 1.53866 9.17382 1.68616C9.11045 1.83367 9.01835 1.96707 8.90288 2.0786L2.9183 8.06318L8.90288 14.0478C9.12311 14.2758 9.24497 14.5812 9.24221 14.8982C9.23946 15.2152 9.11231 15.5184 8.88815 15.7426C8.66399 15.9667 8.36076 16.0939 8.04376 16.0966C7.72676 16.0994 7.42136 15.9775 7.19334 15.7573L0.353995 8.91795Z" fill="#1D192B"/>
</svg>
