<svg width="44" height="44" viewBox="0 0 44 44" fill="none" xmlns="http://www.w3.org/2000/svg">
	<g transform="translate(22 22) scale(1.3) translate(-16.6108 -16.4095)">
		<path d="M15.5257 0.448166C15.5259 0.475886 15.5262 0.503621 15.5262 0.531375C15.5262 8.96272 8.69134 15.7977 0.259998 15.7977C0.250894 15.7977 0.241782 15.7975 0.232681 15.7975C0.232534 15.7698 0.232178 15.7421 0.232178 15.7143C0.232178 7.28299 7.06717 0.447999 15.4985 0.447999C15.5076 0.447999 15.5167 0.448151 15.5257 0.448166Z" fill="#007F7F"/>
		<path d="M32.9331 17.0214C32.9333 17.0492 32.9337 17.0769 32.9337 17.1047C32.9337 25.536 26.0988 32.3709 17.6675 32.371C17.6584 32.371 17.6493 32.3707 17.6402 32.3707C17.64 32.343 17.6396 32.3153 17.6396 32.2876C17.6396 23.8562 24.4746 17.0212 32.906 17.0212C32.915 17.0212 32.9241 17.0214 32.9331 17.0214Z" fill="#007F7F"/>
		<path d="M32.9892 15.7415C32.9615 15.7416 32.9337 15.7421 32.906 15.7421C24.4747 15.7421 17.6397 8.90715 17.6397 0.475818C17.6397 0.466717 17.6399 0.457598 17.6399 0.448501C17.6676 0.448353 17.6954 0.447998 17.7231 0.447998C26.1544 0.448018 32.9893 7.28294 32.9894 15.7142C32.9894 15.7233 32.9892 15.7324 32.9892 15.7415Z" fill="#007F7F"/>
		<path d="M15.5817 32.3704C15.554 32.3706 15.5262 32.3709 15.4984 32.3709C7.06711 32.3709 0.232194 25.536 0.232189 17.1047C0.232189 17.0956 0.232425 17.0865 0.232441 17.0774C0.260133 17.0772 0.28784 17.0769 0.315566 17.0769C8.74691 17.0769 15.5819 23.9118 15.5819 32.3432C15.5819 32.3523 15.5817 32.3614 15.5817 32.3704Z" fill="#007F7F"/>
	</g>
</svg>
