<svg width="52" height="40" viewBox="0 0 52 40" fill="none" xmlns="http://www.w3.org/2000/svg">
<path d="M10.5576 35.6611C12.3551 37.0529 11.3708 39.9315 9.09754 39.9315H2.38482C1.06772 39.9315 -1.15144e-07 38.8638 0 37.5467L3.07395e-06 2.38482C3.18909e-06 1.06772 1.06772 -1.15144e-07 2.38482 0L9.58467 6.29431e-07C11.8036 8.2342e-07 12.8199 2.76483 11.1292 4.20192L5.88795 8.65686C5.35486 9.10998 5.04763 9.77433 5.04763 10.474L5.04763 30.2251C5.04763 30.9628 5.38907 31.659 5.97238 32.1107L10.5576 35.6611Z" fill="#232F3E"/>
<path d="M5.11657 1.19663e-06H16.9069L9.59357 5.50588L5.11657 1.19663e-06Z" fill="#232F3E"/>
<path d="M5.28342 39.9315H16.9069L6.42352 32.4791L5.28342 39.9315Z" fill="#232F3E"/>
<path d="M40.6637 35.7167C38.8663 37.1085 39.8505 39.9871 42.1238 39.9871H48.8365C50.1536 39.9871 51.2213 38.9194 51.2213 37.6023L51.2213 2.44043C51.2213 1.12333 50.1536 0.0556148 48.8365 0.0556149L41.6367 0.0556156C39.4177 0.0556157 38.4014 2.82044 40.0922 4.25754L45.3334 8.71248C45.8665 9.16559 46.1737 9.82994 46.1737 10.5296V30.2807C46.1737 31.0184 45.8323 31.7146 45.249 32.1663L40.6637 35.7167Z" fill="#232F3E"/>
<path d="M46.1048 0.0556161H34.3144L41.6278 5.56149L46.1048 0.0556161Z" fill="#232F3E"/>
<path d="M45.9379 39.9871H34.3144L44.7978 32.5347L45.9379 39.9871Z" fill="#232F3E"/>
</svg>
