<svg width="15" height="15" viewBox="0 0 15 15" fill="none" xmlns="http://www.w3.org/2000/svg">
		<g transform="translate(7.5 7.5) scale(0.5) translate(-7.5 -7.5)">
		<path d="M14.4451 7.40161C14.4328 7.41403 14.4207 7.4266 14.4083 7.43898C10.6532 11.194 4.56503 11.1941 0.80995 7.43901C0.805884 7.43495 0.801908 7.43076 0.797852 7.42669C0.810126 7.41428 0.822365 7.40179 0.834721 7.38943C4.5898 3.63437 10.678 3.63437 14.433 7.38943C14.4371 7.39347 14.4411 7.39756 14.4451 7.40161Z" fill="#FF9900"/>
		<path d="M7.63411 14.2379C7.62168 14.2256 7.60911 14.2134 7.59674 14.201C3.84166 10.446 3.84164 4.35775 7.5967 0.602673C7.60076 0.598607 7.60496 0.594633 7.60903 0.590576C7.62143 0.602851 7.63392 0.615087 7.64628 0.627443C11.4013 4.38252 11.4013 10.4707 7.64628 14.2258C7.64224 14.2298 7.63815 14.2338 7.63411 14.2379Z" fill="#FF9900"/>
		<path d="M12.4555 12.2303C12.438 12.2304 12.4205 12.2307 12.403 12.2307C7.09251 12.2307 2.78749 7.92574 2.78747 2.61526C2.78747 2.60951 2.78763 2.60374 2.78764 2.59799C2.80509 2.5979 2.82257 2.59772 2.84005 2.59772C8.15052 2.59773 12.4555 6.90272 12.4555 12.2132C12.4555 12.2189 12.4555 12.2246 12.4555 12.2303Z" fill="#FF9900"/>
		<path d="M2.80537 12.2482C2.80528 12.2307 2.80499 12.2132 2.80499 12.1957C2.80499 6.88524 7.10998 2.58021 12.4205 2.5802C12.4262 2.5802 12.432 2.58035 12.4377 2.58036C12.4378 2.59781 12.438 2.6153 12.438 2.63277C12.438 7.94324 8.133 12.2482 2.82253 12.2482C2.81682 12.2482 2.81108 12.2482 2.80537 12.2482Z" fill="#FF9900"/>
	</g>
</svg>
