<svg width="184" height="43" viewBox="0 0 184 43" fill="none" xmlns="http://www.w3.org/2000/svg">
<rect x="5.78955" y="10" width="172.421" height="32" rx="9" fill="#8E5602"/>
<mask id="path-2-outside-1_1079_3034" maskUnits="userSpaceOnUse" x="0" y="0" width="184" height="43" fill="black">
<rect fill="white" width="184" height="43"/>
<path d="M1 11C1 5.47715 4.57387 1 8.98246 1H175.018C179.426 1 183 5.47715 183 11V28C183 33.5228 179.426 38 175.018 38H8.98246C4.57387 38 1 33.5228 1 28V11Z"/>
<path d="M60.2618 25L57.0049 13.912H58.4354L60.9898 23.368L63.5441 13.912H64.9235L61.6667 25H60.2618Z"/>
<path d="M66.1068 25V16.888H67.3712V25H66.1068ZM66.7454 15.448C66.4985 15.448 66.3026 15.3627 66.1579 15.192C66.0217 15.0107 65.9535 14.776 65.9535 14.488C65.9535 14.2 66.0217 13.9707 66.1579 13.8C66.3026 13.6187 66.4985 13.528 66.7454 13.528C66.9923 13.528 67.1839 13.6187 67.3201 13.8C67.4649 13.9707 67.5373 14.2 67.5373 14.488C67.5373 14.776 67.4649 15.0107 67.3201 15.192C67.1839 15.3627 66.9923 15.448 66.7454 15.448Z"/>
<path d="M70.269 21.288C70.286 22.2053 70.4648 22.8827 70.8054 23.32C71.1545 23.7573 71.6909 23.976 72.4146 23.976C73.0873 23.976 73.7727 23.8107 74.4709 23.48V24.616C73.8579 25.032 73.1086 25.24 72.2231 25.24C71.1758 25.24 70.3839 24.8773 69.8475 24.152C69.3111 23.4267 69.0429 22.3547 69.0429 20.936C69.0429 19.5813 69.3111 18.5307 69.8475 17.784C70.3839 17.0267 71.1332 16.648 72.0953 16.648C72.9042 16.648 73.5258 16.936 73.96 17.512C74.3943 18.0773 74.6114 18.8827 74.6114 19.928C74.6114 20.4293 74.5774 20.8827 74.5092 21.288H70.269ZM72.0315 17.848C71.4951 17.848 71.0779 18.0507 70.7798 18.456C70.4818 18.8507 70.3115 19.4427 70.269 20.232H73.4492C73.4577 20.1467 73.4619 20.008 73.4619 19.816C73.4619 19.1653 73.3385 18.6747 73.0916 18.344C72.8531 18.0133 72.4998 17.848 72.0315 17.848Z"/>
<path d="M81.5121 25L80.1327 18.648L78.7661 25H77.4889L75.3688 16.888H76.697L78.153 23.384L79.5324 16.888H80.7968L82.1762 23.464L83.6705 16.888H84.9605L82.7892 25H81.5121Z"/>
<path d="M90.8774 20.712V25H89.6129V13.912H92.8187C93.6787 13.912 94.3641 14.2213 94.875 14.84C95.3859 15.448 95.6413 16.2747 95.6413 17.32C95.6413 18.3547 95.3859 19.1813 94.875 19.8C94.3641 20.408 93.6787 20.712 92.8187 20.712H90.8774ZM90.8774 19.416H92.7038C93.2402 19.416 93.6446 19.24 93.9171 18.888C94.1896 18.5253 94.3258 18.0027 94.3258 17.32C94.3258 15.912 93.7851 15.208 92.7038 15.208H90.8774V19.416Z"/>
<path d="M97.2073 25V16.888H98.2673L98.4078 18.088C98.6462 17.768 98.8676 17.5227 99.072 17.352C99.2763 17.1707 99.4849 17.0373 99.6978 16.952C99.9106 16.8667 100.141 16.824 100.387 16.824C100.549 16.824 100.724 16.84 100.911 16.872V18.312C100.639 18.2693 100.409 18.248 100.221 18.248C99.5403 18.248 98.957 18.504 98.4717 19.016V25H97.2073Z"/>
<path d="M104.67 25.24C103.699 25.24 102.941 24.8613 102.396 24.104C101.851 23.3467 101.579 22.2907 101.579 20.936C101.579 19.592 101.851 18.5413 102.396 17.784C102.941 17.0267 103.699 16.648 104.67 16.648C105.64 16.648 106.398 17.0267 106.943 17.784C107.488 18.5413 107.76 19.592 107.76 20.936C107.76 22.2907 107.488 23.3467 106.943 24.104C106.398 24.8613 105.64 25.24 104.67 25.24ZM104.67 23.96C105.87 23.96 106.471 22.952 106.471 20.936C106.471 18.9307 105.87 17.928 104.67 17.928C103.469 17.928 102.869 18.9307 102.869 20.936C102.869 22.952 103.469 23.96 104.67 23.96Z"/>
<path d="M109.869 25V18.136H108.668V17.112L109.869 16.92V15.608C109.869 13.8267 110.55 12.936 111.912 12.936C112.389 12.936 112.815 13.032 113.19 13.224V14.344C112.755 14.2587 112.423 14.216 112.193 14.216C111.802 14.216 111.525 14.312 111.363 14.504C111.21 14.6853 111.133 14.9893 111.133 15.416V16.888H115.374V25H114.109V18.136H111.133V25H109.869ZM114.748 15.448C114.501 15.448 114.305 15.3627 114.16 15.192C114.024 15.0107 113.956 14.776 113.956 14.488C113.956 14.2 114.024 13.9707 114.16 13.8C114.305 13.6187 114.501 13.528 114.748 13.528C114.995 13.528 115.186 13.6187 115.322 13.8C115.467 13.9707 115.54 14.2 115.54 14.488C115.54 14.776 115.467 15.0107 115.322 15.192C115.186 15.3627 114.995 15.448 114.748 15.448Z"/>
<path d="M119.692 24.888C119.411 25.016 119.104 25.08 118.772 25.08C118.321 25.08 117.976 24.92 117.738 24.6C117.499 24.2693 117.38 23.8 117.38 23.192V13.16H118.644V23.096C118.644 23.3413 118.683 23.5227 118.759 23.64C118.844 23.7467 118.981 23.8 119.168 23.8C119.338 23.8 119.513 23.784 119.692 23.752V24.888Z"/>
<path d="M121.98 21.288C121.997 22.2053 122.176 22.8827 122.516 23.32C122.865 23.7573 123.402 23.976 124.125 23.976C124.798 23.976 125.484 23.8107 126.182 23.48V24.616C125.569 25.032 124.819 25.24 123.934 25.24C122.887 25.24 122.095 24.8773 121.558 24.152C121.022 23.4267 120.754 22.3547 120.754 20.936C120.754 19.5813 121.022 18.5307 121.558 17.784C122.095 17.0267 122.844 16.648 123.806 16.648C124.615 16.648 125.237 16.936 125.671 17.512C126.105 18.0773 126.322 18.8827 126.322 19.928C126.322 20.4293 126.288 20.8827 126.22 21.288H121.98ZM123.742 17.848C123.206 17.848 122.789 18.0507 122.491 18.456C122.193 18.8507 122.022 19.4427 121.98 20.232H125.16C125.169 20.1467 125.173 20.008 125.173 19.816C125.173 19.1653 125.049 18.6747 124.802 18.344C124.564 18.0133 124.211 17.848 123.742 17.848Z"/>
</mask>
<path d="M1 11C1 5.47715 4.57387 1 8.98246 1H175.018C179.426 1 183 5.47715 183 11V28C183 33.5228 179.426 38 175.018 38H8.98246C4.57387 38 1 33.5228 1 28V11Z" fill="#FF9900"/>
<path d="M60.2618 25L57.0049 13.912H58.4354L60.9898 23.368L63.5441 13.912H64.9235L61.6667 25H60.2618Z" fill="#FF9900"/>
<path d="M66.1068 25V16.888H67.3712V25H66.1068ZM66.7454 15.448C66.4985 15.448 66.3026 15.3627 66.1579 15.192C66.0217 15.0107 65.9535 14.776 65.9535 14.488C65.9535 14.2 66.0217 13.9707 66.1579 13.8C66.3026 13.6187 66.4985 13.528 66.7454 13.528C66.9923 13.528 67.1839 13.6187 67.3201 13.8C67.4649 13.9707 67.5373 14.2 67.5373 14.488C67.5373 14.776 67.4649 15.0107 67.3201 15.192C67.1839 15.3627 66.9923 15.448 66.7454 15.448Z" fill="#FF9900"/>
<path d="M70.269 21.288C70.286 22.2053 70.4648 22.8827 70.8054 23.32C71.1545 23.7573 71.6909 23.976 72.4146 23.976C73.0873 23.976 73.7727 23.8107 74.4709 23.48V24.616C73.8579 25.032 73.1086 25.24 72.2231 25.24C71.1758 25.24 70.3839 24.8773 69.8475 24.152C69.3111 23.4267 69.0429 22.3547 69.0429 20.936C69.0429 19.5813 69.3111 18.5307 69.8475 17.784C70.3839 17.0267 71.1332 16.648 72.0953 16.648C72.9042 16.648 73.5258 16.936 73.96 17.512C74.3943 18.0773 74.6114 18.8827 74.6114 19.928C74.6114 20.4293 74.5774 20.8827 74.5092 21.288H70.269ZM72.0315 17.848C71.4951 17.848 71.0779 18.0507 70.7798 18.456C70.4818 18.8507 70.3115 19.4427 70.269 20.232H73.4492C73.4577 20.1467 73.4619 20.008 73.4619 19.816C73.4619 19.1653 73.3385 18.6747 73.0916 18.344C72.8531 18.0133 72.4998 17.848 72.0315 17.848Z" fill="#FF9900"/>
<path d="M81.5121 25L80.1327 18.648L78.7661 25H77.4889L75.3688 16.888H76.697L78.153 23.384L79.5324 16.888H80.7968L82.1762 23.464L83.6705 16.888H84.9605L82.7892 25H81.5121Z" fill="#FF9900"/>
<path d="M90.8774 20.712V25H89.6129V13.912H92.8187C93.6787 13.912 94.3641 14.2213 94.875 14.84C95.3859 15.448 95.6413 16.2747 95.6413 17.32C95.6413 18.3547 95.3859 19.1813 94.875 19.8C94.3641 20.408 93.6787 20.712 92.8187 20.712H90.8774ZM90.8774 19.416H92.7038C93.2402 19.416 93.6446 19.24 93.9171 18.888C94.1896 18.5253 94.3258 18.0027 94.3258 17.32C94.3258 15.912 93.7851 15.208 92.7038 15.208H90.8774V19.416Z" fill="#FF9900"/>
<path d="M97.2073 25V16.888H98.2673L98.4078 18.088C98.6462 17.768 98.8676 17.5227 99.072 17.352C99.2763 17.1707 99.4849 17.0373 99.6978 16.952C99.9106 16.8667 100.141 16.824 100.387 16.824C100.549 16.824 100.724 16.84 100.911 16.872V18.312C100.639 18.2693 100.409 18.248 100.221 18.248C99.5403 18.248 98.957 18.504 98.4717 19.016V25H97.2073Z" fill="#FF9900"/>
<path d="M104.67 25.24C103.699 25.24 102.941 24.8613 102.396 24.104C101.851 23.3467 101.579 22.2907 101.579 20.936C101.579 19.592 101.851 18.5413 102.396 17.784C102.941 17.0267 103.699 16.648 104.67 16.648C105.64 16.648 106.398 17.0267 106.943 17.784C107.488 18.5413 107.76 19.592 107.76 20.936C107.76 22.2907 107.488 23.3467 106.943 24.104C106.398 24.8613 105.64 25.24 104.67 25.24ZM104.67 23.96C105.87 23.96 106.471 22.952 106.471 20.936C106.471 18.9307 105.87 17.928 104.67 17.928C103.469 17.928 102.869 18.9307 102.869 20.936C102.869 22.952 103.469 23.96 104.67 23.96Z" fill="#FF9900"/>
<path d="M109.869 25V18.136H108.668V17.112L109.869 16.92V15.608C109.869 13.8267 110.55 12.936 111.912 12.936C112.389 12.936 112.815 13.032 113.19 13.224V14.344C112.755 14.2587 112.423 14.216 112.193 14.216C111.802 14.216 111.525 14.312 111.363 14.504C111.21 14.6853 111.133 14.9893 111.133 15.416V16.888H115.374V25H114.109V18.136H111.133V25H109.869ZM114.748 15.448C114.501 15.448 114.305 15.3627 114.16 15.192C114.024 15.0107 113.956 14.776 113.956 14.488C113.956 14.2 114.024 13.9707 114.16 13.8C114.305 13.6187 114.501 13.528 114.748 13.528C114.995 13.528 115.186 13.6187 115.322 13.8C115.467 13.9707 115.54 14.2 115.54 14.488C115.54 14.776 115.467 15.0107 115.322 15.192C115.186 15.3627 114.995 15.448 114.748 15.448Z" fill="#FF9900"/>
<path d="M119.692 24.888C119.411 25.016 119.104 25.08 118.772 25.08C118.321 25.08 117.976 24.92 117.738 24.6C117.499 24.2693 117.38 23.8 117.38 23.192V13.16H118.644V23.096C118.644 23.3413 118.683 23.5227 118.759 23.64C118.844 23.7467 118.981 23.8 119.168 23.8C119.338 23.8 119.513 23.784 119.692 23.752V24.888Z" fill="#FF9900"/>
<path d="M121.98 21.288C121.997 22.2053 122.176 22.8827 122.516 23.32C122.865 23.7573 123.402 23.976 124.125 23.976C124.798 23.976 125.484 23.8107 126.182 23.48V24.616C125.569 25.032 124.819 25.24 123.934 25.24C122.887 25.24 122.095 24.8773 121.558 24.152C121.022 23.4267 120.754 22.3547 120.754 20.936C120.754 19.5813 121.022 18.5307 121.558 17.784C122.095 17.0267 122.844 16.648 123.806 16.648C124.615 16.648 125.237 16.936 125.671 17.512C126.105 18.0773 126.322 18.8827 126.322 19.928C126.322 20.4293 126.288 20.8827 126.22 21.288H121.98ZM123.742 17.848C123.206 17.848 122.789 18.0507 122.491 18.456C122.193 18.8507 122.022 19.4427 121.98 20.232H125.16C125.169 20.1467 125.173 20.008 125.173 19.816C125.173 19.1653 125.049 18.6747 124.802 18.344C124.564 18.0133 124.211 17.848 123.742 17.848Z" fill="#FF9900"/>
<path d="M181.004 35L181.39 35.3177L181.648 35.0048L181.395 34.6881L181.004 35ZM3.48925 34.9572L3.03433 35.1647L3.48925 34.9572ZM5.41657 37.6731L5.08472 38.0471L5.41657 37.6731ZM177.544 38.6579L177.825 39.0715L177.544 38.6579ZM179.431 36.9122L179.045 36.5945L179.431 36.9122ZM169.43 42V41.5H13.7719V42V42.5H169.43V42ZM3.48925 34.9572L3.94416 34.7497L3.05144 32.7925L2.59653 33L2.14162 33.2075L3.03433 35.1647L3.48925 34.9572ZM13.7719 42V41.5C12.6708 41.5 11.2847 41.0103 9.83436 40.2145C8.3969 39.4256 6.95187 38.3669 5.74842 37.2991L5.41657 37.6731L5.08472 38.0471C6.33441 39.1559 7.83992 40.2607 9.35327 41.0911C10.8538 41.9146 12.4187 42.5 13.7719 42.5V42ZM177.544 38.6579L177.264 38.2443C174.147 40.3614 171.559 41.5 169.43 41.5V42V42.5C171.877 42.5 174.678 41.2096 177.825 39.0715L177.544 38.6579ZM180.605 34.5L180.215 34.8119L180.614 35.3119L181.004 35L181.395 34.6881L180.996 34.1881L180.605 34.5ZM181.004 35L180.618 34.6823L179.045 36.5945L179.431 36.9122L179.817 37.2299L181.39 35.3177L181.004 35ZM3.48925 34.9572L3.03433 35.1647C3.52041 36.2303 4.17921 37.2436 5.08472 38.0471L5.41657 37.6731L5.74842 37.2991C4.97467 36.6125 4.38974 35.7265 3.94416 34.7497L3.48925 34.9572ZM177.544 38.6579L177.825 39.0715C178.583 38.557 179.245 37.9258 179.817 37.2299L179.431 36.9122L179.045 36.5945C178.523 37.2283 177.93 37.7912 177.264 38.2443L177.544 38.6579ZM60.2618 25L59.3023 25.2818L59.5132 26H60.2618V25ZM57.0049 13.912V12.912H55.6689L56.0454 14.1938L57.0049 13.912ZM58.4354 13.912L59.4008 13.6512L59.2011 12.912H58.4354V13.912ZM60.9898 23.368L60.0244 23.6288L60.9898 27.2026L61.9552 23.6288L60.9898 23.368ZM63.5441 13.912V12.912H62.7784L62.5787 13.6512L63.5441 13.912ZM64.9235 13.912L65.883 14.1938L66.2595 12.912H64.9235V13.912ZM61.6667 25V26H62.4152L62.6261 25.2818L61.6667 25ZM66.1068 25H65.1068V26H66.1068V25ZM66.1068 16.888V15.888H65.1068V16.888H66.1068ZM67.3712 16.888H68.3712V15.888H67.3712V16.888ZM67.3712 25V26H68.3712V25H67.3712ZM66.1579 15.192L65.3584 15.7927L65.3761 15.8163L65.3953 15.8388L66.1579 15.192ZM66.1579 13.8L65.3764 13.1761V13.1761L66.1579 13.8ZM67.3201 13.8L66.5206 14.4007L66.5384 14.4243L66.5575 14.4468L67.3201 13.8ZM67.3201 15.192L66.5386 14.5681V14.5681L67.3201 15.192ZM70.269 21.288V20.288H69.2502L69.2691 21.3066L70.269 21.288ZM70.8054 23.32L70.0164 23.9345L70.0238 23.9439L70.8054 23.32ZM74.4709 23.48H75.4709V21.8999L74.0429 22.5762L74.4709 23.48ZM74.4709 24.616L75.0324 25.4435L75.4709 25.1459V24.616H74.4709ZM69.8475 24.152L70.6515 23.5574L69.8475 24.152ZM69.8475 17.784L70.6596 18.3675L70.6635 18.362L69.8475 17.784ZM73.96 17.512L73.1615 18.114L73.167 18.1212L73.96 17.512ZM74.5092 21.288V22.288H75.3552L75.4954 21.4537L74.5092 21.288ZM70.7798 18.456L71.5779 19.0586L71.5855 19.0484L70.7798 18.456ZM70.269 20.232L69.2704 20.1781L69.2136 21.232H70.269V20.232ZM73.4492 20.232V21.232H74.3544L74.4442 20.3313L73.4492 20.232ZM73.0916 18.344L72.2804 18.9288L72.2853 18.9356L72.2903 18.9423L73.0916 18.344ZM81.5121 25L80.5348 25.2122L80.7059 26H81.5121V25ZM80.1327 18.648L81.1099 18.4358L79.1551 18.4377L80.1327 18.648ZM78.7661 25V26H79.5738L79.7437 25.2103L78.7661 25ZM77.4889 25L76.5214 25.2529L76.7167 26H77.4889V25ZM75.3688 16.888V15.888H74.0738L74.4013 17.1409L75.3688 16.888ZM76.697 16.888L77.6728 16.6693L77.4977 15.888H76.697V16.888ZM78.153 23.384L77.1772 23.6027L79.1312 23.5917L78.153 23.384ZM79.5324 16.888V15.888H78.7224L78.5542 16.6803L79.5324 16.888ZM80.7968 16.888L81.7755 16.6827L81.6088 15.888H80.7968V16.888ZM82.1762 23.464L81.1975 23.6693L83.1513 23.6856L82.1762 23.464ZM83.6705 16.888V15.888H82.8722L82.6954 16.6664L83.6705 16.888ZM84.9605 16.888L85.9265 17.1466L86.2633 15.888H84.9605V16.888ZM82.7892 25V26H83.5568L83.7552 25.2586L82.7892 25ZM90.8774 20.712V19.712H89.8774V20.712H90.8774ZM90.8774 25V26H91.8774V25H90.8774ZM89.6129 25H88.6129V26H89.6129V25ZM89.6129 13.912V12.912H88.6129V13.912H89.6129ZM94.875 14.84L94.1039 15.4768L94.1094 15.4833L94.875 14.84ZM94.875 19.8L95.6406 20.4433L95.6461 20.4367L94.875 19.8ZM90.8774 19.416H89.8774V20.416H90.8774V19.416ZM93.9171 18.888L94.7079 19.5001L94.7123 19.4944L94.7166 19.4887L93.9171 18.888ZM90.8774 15.208V14.208H89.8774V15.208H90.8774ZM97.2073 25H96.2073V26H97.2073V25ZM97.2073 16.888V15.888H96.2073V16.888H97.2073ZM98.2673 16.888L99.2605 16.7717L99.1571 15.888H98.2673V16.888ZM98.4078 18.088L97.4146 18.2043L97.7071 20.7024L99.2097 18.6854L98.4078 18.088ZM99.072 17.352L99.713 18.1195L99.7245 18.1099L99.7357 18.1L99.072 17.352ZM99.6978 16.952L100.07 17.8802V17.8802L99.6978 16.952ZM100.911 16.872H101.911V16.0283L101.08 15.8863L100.911 16.872ZM100.911 18.312L100.756 19.3L101.911 19.4808V18.312H100.911ZM98.4717 19.016L97.7459 18.328L97.4717 18.6174V19.016H98.4717ZM98.4717 25V26H99.4717V25H98.4717ZM102.396 24.104L101.585 24.6881L102.396 24.104ZM102.396 17.784L101.585 17.1999L101.585 17.1999L102.396 17.784ZM106.943 17.784L107.755 17.1999V17.1999L106.943 17.784ZM106.943 24.104L107.755 24.6881V24.6881L106.943 24.104ZM109.869 25H108.869V26H109.869V25ZM109.869 18.136H110.869V17.136H109.869V18.136ZM108.668 18.136H107.668V19.136H108.668V18.136ZM108.668 17.112L108.51 16.1245L107.668 16.2592V17.112H108.668ZM109.869 16.92L110.027 17.9075L110.869 17.7728V16.92H109.869ZM113.19 13.224H114.19V12.6128L113.646 12.3341L113.19 13.224ZM113.19 14.344L112.997 15.3252L114.19 15.5596V14.344H113.19ZM111.363 14.504L112.127 15.1495L112.128 15.1484L111.363 14.504ZM111.133 16.888H110.133V17.888H111.133V16.888ZM115.374 16.888H116.374V15.888H115.374V16.888ZM115.374 25V26H116.374V25H115.374ZM114.109 25H113.109V26H114.109V25ZM114.109 18.136H115.109V17.136H114.109V18.136ZM111.133 18.136V17.136H110.133V18.136H111.133ZM111.133 25V26H112.133V25H111.133ZM114.16 15.192L113.361 15.7927L113.378 15.8163L113.398 15.8388L114.16 15.192ZM114.16 13.8L113.379 13.1761L113.379 13.1761L114.16 13.8ZM115.322 13.8L114.523 14.4007L114.541 14.4243L114.56 14.4468L115.322 13.8ZM115.322 15.192L116.104 15.8159L115.322 15.192ZM119.692 24.888L120.106 25.798L120.692 25.5313V24.888H119.692ZM117.738 24.6L116.926 25.1848L116.931 25.1912L116.936 25.1974L117.738 24.6ZM117.38 13.16V12.16H116.38V13.16H117.38ZM118.644 13.16H119.644V12.16H118.644V13.16ZM118.759 23.64L117.922 24.1868L117.948 24.2267L117.978 24.2639L118.759 23.64ZM119.692 23.752H120.692V22.5571L119.515 22.7676L119.692 23.752ZM121.98 21.288V20.288H120.961L120.98 21.3066L121.98 21.288ZM122.516 23.32L121.727 23.9345L121.735 23.9439L122.516 23.32ZM126.182 23.48H127.182V21.8999L125.754 22.5762L126.182 23.48ZM126.182 24.616L126.743 25.4435L127.182 25.1459V24.616H126.182ZM121.558 24.152L122.362 23.5574L121.558 24.152ZM121.558 17.784L122.37 18.3675L122.374 18.362L121.558 17.784ZM125.671 17.512L124.872 18.114L124.878 18.1212L125.671 17.512ZM126.22 21.288V22.288H127.066L127.206 21.4537L126.22 21.288ZM122.491 18.456L123.289 19.0586L123.296 19.0484L122.491 18.456ZM121.98 20.232L120.981 20.1781L120.924 21.232H121.98V20.232ZM125.16 20.232V21.232H126.065L126.155 20.3313L125.16 20.232ZM124.802 18.344L123.991 18.9288L123.996 18.9356L124.001 18.9423L124.802 18.344ZM8.98246 1V2H175.018V1V0H8.98246V1ZM183 11H182V28H183H184V11H183ZM175.018 38V37H8.98246V38V39H175.018V38ZM1 28H2V11H1H0V28H1ZM8.98246 38V37C5.32464 37 2 33.1926 2 28H1H0C0 33.8531 3.8231 39 8.98246 39V38ZM183 28H182C182 33.1926 178.675 37 175.018 37V38V39C180.177 39 184 33.8531 184 28H183ZM175.018 1V2C178.675 2 182 5.80744 182 11H183H184C184 5.14686 180.177 0 175.018 0V1ZM8.98246 1V0C3.8231 0 0 5.14686 0 11H1H2C2 5.80744 5.32463 2 8.98246 2V1ZM60.2618 25L61.2212 24.7182L57.9644 13.6302L57.0049 13.912L56.0454 14.1938L59.3023 25.2818L60.2618 25ZM57.0049 13.912V14.912H58.4354V13.912V12.912H57.0049V13.912ZM58.4354 13.912L57.47 14.1728L60.0244 23.6288L60.9898 23.368L61.9552 23.1072L59.4008 13.6512L58.4354 13.912ZM60.9898 23.368L61.9552 23.6288L64.5095 14.1728L63.5441 13.912L62.5787 13.6512L60.0244 23.1072L60.9898 23.368ZM63.5441 13.912V14.912H64.9235V13.912V12.912H63.5441V13.912ZM64.9235 13.912L63.964 13.6302L60.7072 24.7182L61.6667 25L62.6261 25.2818L65.883 14.1938L64.9235 13.912ZM61.6667 25V24H60.2618V25V26H61.6667V25ZM66.1068 25H67.1068V16.888H66.1068H65.1068V25H66.1068ZM66.1068 16.888V17.888H67.3712V16.888V15.888H66.1068V16.888ZM67.3712 16.888H66.3712V25H67.3712H68.3712V16.888H67.3712ZM67.3712 25V24H66.1068V25V26H67.3712V25ZM66.7454 15.448V14.448C66.7381 14.448 66.7666 14.4471 66.8128 14.4673C66.8617 14.4885 66.8989 14.5197 66.9205 14.5452L66.1579 15.192L65.3953 15.8388C65.7511 16.2584 66.239 16.448 66.7454 16.448V15.448ZM66.1579 15.192L66.9574 14.5913C66.9674 14.6046 66.968 14.6115 66.965 14.6012C66.9614 14.589 66.9535 14.554 66.9535 14.488H65.9535H64.9535C64.9535 14.9336 65.0605 15.3962 65.3584 15.7927L66.1579 15.192ZM65.9535 14.488H66.9535C66.9535 14.4215 66.9616 14.3904 66.9632 14.3847C66.964 14.3823 66.9631 14.386 66.959 14.3939C66.9549 14.4021 66.9485 14.4125 66.9394 14.4239L66.1579 13.8L65.3764 13.1761C65.0592 13.5734 64.9535 14.0459 64.9535 14.488H65.9535ZM66.1579 13.8L66.9394 14.4239C66.9224 14.4452 66.8868 14.4788 66.8335 14.5035C66.8091 14.5148 66.7872 14.5212 66.7704 14.5247C66.754 14.528 66.7449 14.528 66.7454 14.528V13.528V12.528C66.2168 12.528 65.7245 12.74 65.3764 13.1761L66.1579 13.8ZM66.7454 13.528V14.528C66.746 14.528 66.7359 14.5281 66.7177 14.5243C66.6991 14.5204 66.6744 14.5131 66.6465 14.4999C66.5854 14.471 66.543 14.4304 66.5206 14.4007L67.3201 13.8L68.1196 13.1993C67.7759 12.7419 67.2745 12.528 66.7454 12.528V13.528ZM67.3201 13.8L66.5575 14.4468C66.5485 14.4362 66.5414 14.4255 66.5363 14.4161C66.5338 14.4115 66.5321 14.4078 66.5309 14.4051C66.5298 14.4024 66.5294 14.401 66.5294 14.401C66.5294 14.4012 66.5373 14.4266 66.5373 14.488H67.5373H68.5373C68.5373 14.0325 68.4204 13.5512 68.0828 13.1532L67.3201 13.8ZM67.5373 14.488H66.5373C66.5373 14.5489 66.5296 14.5782 66.5274 14.5853C66.5259 14.59 66.5284 14.5809 66.5386 14.5681L67.3201 15.192L68.1017 15.8159C68.4193 15.418 68.5373 14.9466 68.5373 14.488H67.5373ZM67.3201 15.192L66.5386 14.5681C66.5661 14.5337 66.6108 14.4957 66.6674 14.4705C66.7204 14.4469 66.7532 14.448 66.7454 14.448V15.448V16.448C67.2515 16.448 67.7493 16.2573 68.1017 15.8159L67.3201 15.192ZM70.269 21.288L69.2691 21.3066C69.2878 22.3108 69.4809 23.2469 70.0164 23.9344L70.8054 23.32L71.5944 22.7056C71.4487 22.5185 71.2842 22.0999 71.2688 21.2694L70.269 21.288ZM70.8054 23.32L70.0238 23.9439C70.6158 24.6854 71.4835 24.976 72.4146 24.976V23.976V22.976C71.8983 22.976 71.6932 22.8292 71.5869 22.6961L70.8054 23.32ZM72.4146 23.976V24.976C73.2558 24.976 74.0868 24.7684 74.8989 24.3838L74.4709 23.48L74.0429 22.5762C73.4586 22.8529 72.9188 22.976 72.4146 22.976V23.976ZM74.4709 23.48H73.4709V24.616H74.4709H75.4709V23.48H74.4709ZM74.4709 24.616L73.9094 23.7885C73.4922 24.0717 72.9482 24.24 72.2231 24.24V25.24V26.24C73.269 26.24 74.2236 25.9923 75.0324 25.4435L74.4709 24.616ZM72.2231 25.24V24.24C71.4348 24.24 70.9673 23.9844 70.6515 23.5574L69.8475 24.152L69.0435 24.7466C69.8005 25.7703 70.9168 26.24 72.2231 26.24V25.24ZM69.8475 24.152L70.6515 23.5574C70.2967 23.0776 70.0429 22.2547 70.0429 20.936H69.0429H68.0429C68.0429 22.4546 68.3255 23.7758 69.0435 24.7466L69.8475 24.152ZM69.0429 20.936H70.0429C70.0429 19.6963 70.2908 18.8808 70.6596 18.3675L69.8475 17.784L69.0353 17.2005C68.3313 18.1805 68.0429 19.4664 68.0429 20.936H69.0429ZM69.8475 17.784L70.6635 18.362C71.0044 17.8807 71.4434 17.648 72.0953 17.648V16.648V15.648C70.823 15.648 69.7634 16.1727 69.0314 17.206L69.8475 17.784ZM72.0953 16.648V17.648C72.634 17.648 72.9411 17.8216 73.1615 18.114L73.96 17.512L74.7586 16.91C74.1105 16.0504 73.1744 15.648 72.0953 15.648V16.648ZM73.96 17.512L73.167 18.1212C73.4172 18.4469 73.6114 19.0042 73.6114 19.928H74.6114H75.6114C75.6114 18.7612 75.3713 17.7077 74.7531 16.9028L73.96 17.512ZM74.6114 19.928H73.6114C73.6114 20.3854 73.5802 20.7821 73.5231 21.1223L74.5092 21.288L75.4954 21.4537C75.5745 20.9833 75.6114 20.4733 75.6114 19.928H74.6114ZM74.5092 21.288V20.288H70.269V21.288V22.288H74.5092V21.288ZM72.0315 17.848V16.848C71.2016 16.848 70.4747 17.1828 69.9742 17.8636L70.7798 18.456L71.5855 19.0484C71.681 18.9185 71.7886 18.848 72.0315 18.848V17.848ZM70.7798 18.456L69.9818 17.8534C69.5117 18.476 69.3178 19.2989 69.2704 20.1781L70.269 20.232L71.2675 20.2859C71.3052 19.5864 71.452 19.2253 71.5779 19.0586L70.7798 18.456ZM70.269 20.232V21.232H73.4492V20.232V19.232H70.269V20.232ZM73.4492 20.232L74.4442 20.3313C74.4581 20.1925 74.4619 20.0109 74.4619 19.816H73.4619H72.4619C72.4619 20.0051 72.4573 20.1008 72.4541 20.1327L73.4492 20.232ZM73.4619 19.816H74.4619C74.4619 19.0655 74.3241 18.3233 73.8928 17.7457L73.0916 18.344L72.2903 18.9423C72.3528 19.0261 72.4619 19.2652 72.4619 19.816H73.4619ZM73.0916 18.344L73.9027 17.7592C73.4464 17.1263 72.7663 16.848 72.0315 16.848V17.848V18.848C72.2333 18.848 72.2599 18.9004 72.2804 18.9288L73.0916 18.344ZM81.5121 25L82.4893 24.7878L81.1099 18.4358L80.1327 18.648L79.1555 18.8602L80.5348 25.2122L81.5121 25ZM80.1327 18.648L79.1551 18.4377L77.7885 24.7897L78.7661 25L79.7437 25.2103L81.1103 18.8583L80.1327 18.648ZM78.7661 25V24H77.4889V25V26H78.7661V25ZM77.4889 25L78.4564 24.7471L76.3363 16.6351L75.3688 16.888L74.4013 17.1409L76.5214 25.2529L77.4889 25ZM75.3688 16.888V17.888H76.697V16.888V15.888H75.3688V16.888ZM76.697 16.888L75.7212 17.1067L77.1772 23.6027L78.153 23.384L79.1288 23.1653L77.6728 16.6693L76.697 16.888ZM78.153 23.384L79.1312 23.5917L80.5106 17.0957L79.5324 16.888L78.5542 16.6803L77.1748 23.1763L78.153 23.384ZM79.5324 16.888V17.888H80.7968V16.888V15.888H79.5324V16.888ZM80.7968 16.888L79.8181 17.0933L81.1975 23.6693L82.1762 23.464L83.1549 23.2587L81.7755 16.6827L80.7968 16.888ZM82.1762 23.464L83.1513 23.6856L84.6456 17.1096L83.6705 16.888L82.6954 16.6664L81.201 23.2424L82.1762 23.464ZM83.6705 16.888V17.888H84.9605V16.888V15.888H83.6705V16.888ZM84.9605 16.888L83.9945 16.6294L81.8232 24.7414L82.7892 25L83.7552 25.2586L85.9265 17.1466L84.9605 16.888ZM82.7892 25V24H81.5121V25V26H82.7892V25ZM90.8774 20.712H89.8774V25H90.8774H91.8774V20.712H90.8774ZM90.8774 25V24H89.6129V25V26H90.8774V25ZM89.6129 25H90.6129V13.912H89.6129H88.6129V25H89.6129ZM89.6129 13.912V14.912H92.8187V13.912V12.912H89.6129V13.912ZM92.8187 13.912V14.912C93.4048 14.912 93.798 15.1064 94.1039 15.4767L94.875 14.84L95.6461 14.2033C94.9302 13.3363 93.9525 12.912 92.8187 12.912V13.912ZM94.875 14.84L94.1094 15.4833C94.4266 15.8608 94.6413 16.4347 94.6413 17.32H95.6413H96.6413C96.6413 16.1147 96.3451 15.0352 95.6406 14.1967L94.875 14.84ZM95.6413 17.32H94.6413C94.6413 18.1907 94.4284 18.7703 94.1039 19.1633L94.875 19.8L95.6461 20.4367C96.3433 19.5924 96.6413 18.5186 96.6413 17.32H95.6413ZM94.875 19.8L94.1094 19.1567C93.8057 19.5181 93.4111 19.712 92.8187 19.712V20.712V21.712C93.9462 21.712 94.9225 21.2979 95.6406 20.4433L94.875 19.8ZM92.8187 20.712V19.712H90.8774V20.712V21.712H92.8187V20.712ZM90.8774 19.416V20.416H92.7038V19.416V18.416H90.8774V19.416ZM92.7038 19.416V20.416C93.4788 20.416 94.2065 20.1478 94.7079 19.5001L93.9171 18.888L93.1263 18.2759C93.0827 18.3322 93.0016 18.416 92.7038 18.416V19.416ZM93.9171 18.888L94.7166 19.4887C95.1702 18.8849 95.3258 18.1155 95.3258 17.32H94.3258H93.3258C93.3258 17.8899 93.2089 18.1657 93.1176 18.2873L93.9171 18.888ZM94.3258 17.32H95.3258C95.3258 16.5161 95.1763 15.7296 94.7134 15.1269C94.2121 14.4742 93.4797 14.208 92.7038 14.208V15.208V16.208C93.0092 16.208 93.0878 16.2938 93.1272 16.3451C93.205 16.4464 93.3258 16.7159 93.3258 17.32H94.3258ZM92.7038 15.208V14.208H90.8774V15.208V16.208H92.7038V15.208ZM90.8774 15.208H89.8774V19.416H90.8774H91.8774V15.208H90.8774ZM97.2073 25H98.2073V16.888H97.2073H96.2073V25H97.2073ZM97.2073 16.888V17.888H98.2673V16.888V15.888H97.2073V16.888ZM98.2673 16.888L97.2741 17.0043L97.4146 18.2043L98.4078 18.088L99.401 17.9717L99.2605 16.7717L98.2673 16.888ZM98.4078 18.088L99.2097 18.6854C99.4221 18.4004 99.5905 18.2218 99.713 18.1195L99.072 17.352L98.4309 16.5845C98.1447 16.8236 97.8704 17.1356 97.6059 17.4906L98.4078 18.088ZM99.072 17.352L99.7357 18.1C99.87 17.9808 99.9821 17.9154 100.07 17.8802L99.6978 16.952L99.3257 16.0238C98.9877 16.1593 98.6826 16.3605 98.4082 16.604L99.072 17.352ZM99.6978 16.952L100.07 17.8802C100.156 17.8458 100.258 17.824 100.387 17.824V16.824V15.824C100.023 15.824 99.6657 15.8875 99.3257 16.0238L99.6978 16.952ZM100.387 16.824V17.824C100.484 17.824 100.602 17.8336 100.743 17.8577L100.911 16.872L101.08 15.8863C100.846 15.8464 100.614 15.824 100.387 15.824V16.824ZM100.911 16.872H99.9111V18.312H100.911H101.911V16.872H100.911ZM100.911 18.312L101.066 17.324C100.764 17.2767 100.479 17.248 100.221 17.248V18.248V19.248C100.339 19.248 100.514 19.2619 100.756 19.3L100.911 18.312ZM100.221 18.248V17.248C99.2549 17.248 98.4125 17.6248 97.7459 18.328L98.4717 19.016L99.1974 19.704C99.5015 19.3832 99.8256 19.248 100.221 19.248V18.248ZM98.4717 19.016H97.4717V25H98.4717H99.4717V19.016H98.4717ZM98.4717 25V24H97.2073V25V26H98.4717V25ZM104.67 25.24V24.24C104.005 24.24 103.556 24.0039 103.208 23.5199L102.396 24.104L101.585 24.6881C102.326 25.7187 103.393 26.24 104.67 26.24V25.24ZM102.396 24.104L103.208 23.5199C102.83 22.994 102.579 22.1718 102.579 20.936H101.579H100.579C100.579 22.4095 100.873 23.6993 101.585 24.6881L102.396 24.104ZM101.579 20.936H102.579C102.579 19.7129 102.829 18.8952 103.208 18.3681L102.396 17.784L101.585 17.1999C100.874 18.1875 100.579 19.4711 100.579 20.936H101.579ZM102.396 17.784L103.208 18.3681C103.556 17.8841 104.005 17.648 104.67 17.648V16.648V15.648C103.393 15.648 102.326 16.1693 101.585 17.1999L102.396 17.784ZM104.67 16.648V17.648C105.334 17.648 105.783 17.8841 106.131 18.3681L106.943 17.784L107.755 17.1999C107.013 16.1693 105.947 15.648 104.67 15.648V16.648ZM106.943 17.784L106.131 18.3681C106.511 18.8952 106.76 19.7129 106.76 20.936H107.76H108.76C108.76 19.4711 108.465 18.1875 107.755 17.1999L106.943 17.784ZM107.76 20.936H106.76C106.76 22.1718 106.51 22.994 106.131 23.5199L106.943 24.104L107.755 24.6881C108.466 23.6993 108.76 22.4095 108.76 20.936H107.76ZM106.943 24.104L106.131 23.5199C105.783 24.0039 105.334 24.24 104.67 24.24V25.24V26.24C105.947 26.24 107.013 25.7187 107.755 24.6881L106.943 24.104ZM104.67 23.96V24.96C105.612 24.96 106.394 24.5311 106.879 23.7157C107.316 22.9821 107.471 22.0106 107.471 20.936H106.471H105.471C105.471 21.8774 105.325 22.4179 105.161 22.6923C105.046 22.8849 104.928 22.96 104.67 22.96V23.96ZM106.471 20.936H107.471C107.471 19.8662 107.316 18.8978 106.878 18.1663C106.392 17.3533 105.61 16.928 104.67 16.928V17.928V18.928C104.93 18.928 105.049 19.004 105.162 19.1937C105.325 19.4649 105.471 20.0005 105.471 20.936H106.471ZM104.67 17.928V16.928C103.73 16.928 102.948 17.3533 102.461 18.1663C102.023 18.8978 101.869 19.8662 101.869 20.936H102.869H103.869C103.869 20.0005 104.015 19.4649 104.177 19.1937C104.291 19.004 104.409 18.928 104.67 18.928V17.928ZM102.869 20.936H101.869C101.869 22.0106 102.023 22.9821 102.46 23.7157C102.945 24.5311 103.727 24.96 104.67 24.96V23.96V22.96C104.412 22.96 104.293 22.8849 104.178 22.6923C104.015 22.4179 103.869 21.8774 103.869 20.936H102.869ZM109.869 25H110.869V18.136H109.869H108.869V25H109.869ZM109.869 18.136V17.136H108.668V18.136V19.136H109.869V18.136ZM108.668 18.136H109.668V17.112H108.668H107.668V18.136H108.668ZM108.668 17.112L108.826 18.0995L110.027 17.9075L109.869 16.92L109.711 15.9325L108.51 16.1245L108.668 17.112ZM109.869 16.92H110.869V15.608H109.869H108.869V16.92H109.869ZM109.869 15.608H110.869C110.869 14.8166 111.025 14.4063 111.174 14.2115C111.284 14.0674 111.468 13.936 111.912 13.936V12.936V11.936C110.994 11.936 110.156 12.2499 109.585 12.9965C109.053 13.6924 108.869 14.6181 108.869 15.608H109.869ZM111.912 12.936V13.936C112.252 13.936 112.518 14.0034 112.733 14.1139L113.19 13.224L113.646 12.3341C113.112 12.0606 112.527 11.936 111.912 11.936V12.936ZM113.19 13.224H112.19V14.344H113.19H114.19V13.224H113.19ZM113.19 14.344L113.382 13.3628C112.931 13.2742 112.523 13.216 112.193 13.216V14.216V15.216C112.324 15.216 112.579 15.2432 112.997 15.3252L113.19 14.344ZM112.193 14.216V13.216C111.672 13.216 111.036 13.3408 110.598 13.8596L111.363 14.504L112.128 15.1484C112.103 15.1775 112.077 15.1992 112.055 15.2138C112.033 15.228 112.02 15.2328 112.02 15.2328C112.02 15.2326 112.034 15.2281 112.063 15.2238C112.093 15.2196 112.136 15.216 112.193 15.216V14.216ZM111.363 14.504L110.599 13.8585C110.212 14.3168 110.133 14.9212 110.133 15.416H111.133H112.133C112.133 15.2576 112.148 15.1617 112.16 15.1124C112.173 15.0627 112.175 15.0928 112.127 15.1495L111.363 14.504ZM111.133 15.416H110.133V16.888H111.133H112.133V15.416H111.133ZM111.133 16.888V17.888H115.374V16.888V15.888H111.133V16.888ZM115.374 16.888H114.374V25H115.374H116.374V16.888H115.374ZM115.374 25V24H114.109V25V26H115.374V25ZM114.109 25H115.109V18.136H114.109H113.109V25H114.109ZM114.109 18.136V17.136H111.133V18.136V19.136H114.109V18.136ZM111.133 18.136H110.133V25H111.133H112.133V18.136H111.133ZM111.133 25V24H109.869V25V26H111.133V25ZM114.748 15.448V14.448C114.74 14.448 114.769 14.4471 114.815 14.4672C114.864 14.4885 114.901 14.5197 114.923 14.5452L114.16 15.192L113.398 15.8388C113.753 16.2584 114.241 16.448 114.748 16.448V15.448ZM114.16 15.192L114.96 14.5913C114.97 14.6046 114.97 14.6115 114.967 14.6012C114.964 14.589 114.956 14.554 114.956 14.488H113.956H112.956C112.956 14.9336 113.063 15.3962 113.361 15.7927L114.16 15.192ZM113.956 14.488H114.956C114.956 14.4215 114.964 14.3904 114.966 14.3847C114.966 14.3823 114.965 14.386 114.961 14.3939C114.957 14.4021 114.951 14.4125 114.942 14.4239L114.16 13.8L113.379 13.1761C113.062 13.5734 112.956 14.0459 112.956 14.488H113.956ZM114.16 13.8L114.942 14.4239C114.925 14.4452 114.889 14.4788 114.836 14.5035C114.811 14.5148 114.79 14.5212 114.773 14.5247C114.756 14.528 114.747 14.528 114.748 14.528V13.528V12.528C114.219 12.528 113.727 12.74 113.379 13.1761L114.16 13.8ZM114.748 13.528V14.528C114.748 14.528 114.738 14.5281 114.72 14.5243C114.701 14.5204 114.677 14.5131 114.649 14.4999C114.588 14.471 114.545 14.4304 114.523 14.4007L115.322 13.8L116.122 13.1993C115.778 12.7419 115.277 12.528 114.748 12.528V13.528ZM115.322 13.8L114.56 14.4468C114.551 14.4362 114.544 14.4255 114.539 14.416C114.536 14.4115 114.534 14.4078 114.533 14.4051C114.532 14.4024 114.532 14.4009 114.532 14.4009C114.532 14.4012 114.54 14.4266 114.54 14.488H115.54H116.54C116.54 14.0325 116.423 13.5512 116.085 13.1532L115.322 13.8ZM115.54 14.488H114.54C114.54 14.5489 114.532 14.5783 114.53 14.5853C114.528 14.5901 114.531 14.581 114.541 14.5681L115.322 15.192L116.104 15.8159C116.422 15.418 116.54 14.9466 116.54 14.488H115.54ZM115.322 15.192L114.541 14.5681C114.568 14.5337 114.613 14.4957 114.67 14.4705C114.723 14.4469 114.756 14.448 114.748 14.448V15.448V16.448C115.254 16.448 115.752 16.2573 116.104 15.8159L115.322 15.192ZM119.692 24.888L119.277 23.978C119.136 24.0423 118.972 24.08 118.772 24.08V25.08V26.08C119.236 26.08 119.685 25.9897 120.106 25.798L119.692 24.888ZM118.772 25.08V24.08C118.665 24.08 118.614 24.0613 118.596 24.0529C118.582 24.0464 118.564 24.0361 118.539 24.0026L117.738 24.6L116.936 25.1974C117.389 25.8065 118.052 26.08 118.772 26.08V25.08ZM117.738 24.6L118.549 24.0152C118.48 23.9199 118.38 23.6879 118.38 23.192H117.38H116.38C116.38 23.9121 116.518 24.6187 116.926 25.1848L117.738 24.6ZM117.38 23.192H118.38V13.16H117.38H116.38V23.192H117.38ZM117.38 13.16V14.16H118.644V13.16V12.16H117.38V13.16ZM118.644 13.16H117.644V23.096H118.644H119.644V13.16H118.644ZM118.644 23.096H117.644C117.644 23.4076 117.686 23.8254 117.922 24.1868L118.759 23.64L119.597 23.0932C119.621 23.1305 119.635 23.1615 119.642 23.1808C119.65 23.2001 119.652 23.2106 119.651 23.2093C119.651 23.2081 119.649 23.1984 119.648 23.1786C119.646 23.1589 119.644 23.1317 119.644 23.096H118.644ZM118.759 23.64L117.978 24.2639C118.317 24.6885 118.797 24.8 119.168 24.8V23.8V22.8C119.168 22.8 119.179 22.8 119.2 22.8033C119.22 22.8067 119.251 22.8138 119.29 22.8288C119.373 22.8614 119.466 22.9223 119.541 23.0161L118.759 23.64ZM119.168 23.8V24.8C119.401 24.8 119.635 24.7781 119.868 24.7364L119.692 23.752L119.515 22.7676C119.391 22.7899 119.275 22.8 119.168 22.8V23.8ZM119.692 23.752H118.692V24.888H119.692H120.692V23.752H119.692ZM121.98 21.288L120.98 21.3066C120.999 22.3108 121.192 23.2468 121.727 23.9344L122.516 23.32L123.305 22.7056C123.16 22.5185 122.995 22.0999 122.98 21.2694L121.98 21.288ZM122.516 23.32L121.735 23.9439C122.327 24.6854 123.194 24.976 124.125 24.976V23.976V22.976C123.609 22.976 123.404 22.8292 123.298 22.6961L122.516 23.32ZM124.125 23.976V24.976C124.967 24.976 125.798 24.7684 126.61 24.3838L126.182 23.48L125.754 22.5762C125.169 22.8529 124.63 22.976 124.125 22.976V23.976ZM126.182 23.48H125.182V24.616H126.182H127.182V23.48H126.182ZM126.182 24.616L125.62 23.7885C125.203 24.0717 124.659 24.24 123.934 24.24V25.24V26.24C124.98 26.24 125.934 25.9923 126.743 25.4435L126.182 24.616ZM123.934 25.24V24.24C123.146 24.24 122.678 23.9844 122.362 23.5574L121.558 24.152L120.754 24.7466C121.511 25.7703 122.628 26.24 123.934 26.24V25.24ZM121.558 24.152L122.362 23.5574C122.008 23.0776 121.754 22.2547 121.754 20.936H120.754H119.754C119.754 22.4546 120.036 23.7758 120.754 24.7466L121.558 24.152ZM120.754 20.936H121.754C121.754 19.6963 122.002 18.8808 122.37 18.3675L121.558 17.784L120.746 17.2005C120.042 18.1805 119.754 19.4664 119.754 20.936H120.754ZM121.558 17.784L122.374 18.362C122.715 17.8807 123.154 17.648 123.806 17.648V16.648V15.648C122.534 15.648 121.474 16.1727 120.742 17.206L121.558 17.784ZM123.806 16.648V17.648C124.345 17.648 124.652 17.8216 124.872 18.114L125.671 17.512L126.469 16.91C125.821 16.0504 124.885 15.648 123.806 15.648V16.648ZM125.671 17.512L124.878 18.1212C125.128 18.4469 125.322 19.0042 125.322 19.928H126.322H127.322C127.322 18.7612 127.082 17.7077 126.464 16.9028L125.671 17.512ZM126.322 19.928H125.322C125.322 20.3854 125.291 20.7821 125.234 21.1223L126.22 21.288L127.206 21.4537C127.285 20.9833 127.322 20.4733 127.322 19.928H126.322ZM126.22 21.288V20.288H121.98V21.288V22.288H126.22V21.288ZM123.742 17.848V16.848C122.912 16.848 122.186 17.1828 121.685 17.8636L122.491 18.456L123.296 19.0484C123.392 18.9185 123.499 18.848 123.742 18.848V17.848ZM122.491 18.456L121.693 17.8534C121.222 18.476 121.029 19.2989 120.981 20.1781L121.98 20.232L122.978 20.2859C123.016 19.5864 123.163 19.2253 123.289 19.0586L122.491 18.456ZM121.98 20.232V21.232H125.16V20.232V19.232H121.98V20.232ZM125.16 20.232L126.155 20.3313C126.169 20.1925 126.173 20.0109 126.173 19.816H125.173H124.173C124.173 20.0051 124.168 20.1008 124.165 20.1327L125.16 20.232ZM125.173 19.816H126.173C126.173 19.0655 126.035 18.3233 125.604 17.7457L124.802 18.344L124.001 18.9423C124.064 19.0261 124.173 19.2652 124.173 19.816H125.173ZM124.802 18.344L125.614 17.7592C125.157 17.1263 124.477 16.848 123.742 16.848V17.848V18.848C123.944 18.848 123.971 18.9004 123.991 18.9288L124.802 18.344Z" fill="black" mask="url(#path-2-outside-1_1079_3034)"/>
</svg>
