<svg preserveAspectRatio="none" width="100%" height="100%" overflow="visible" style="display: block;" viewBox="0 0 17 13" fill="none" xmlns="http://www.w3.org/2000/svg">
<path id="Vector" d="M5.6671 8.27049C6.29527 8.27036 6.90567 8.44438 7.40233 8.76519C7.89898 9.086 8.25372 9.53541 8.41076 10.0427H16.2905C16.4674 10.0425 16.6381 10.0975 16.7689 10.1969C16.8997 10.2964 16.9811 10.4331 16.9971 10.5801C17.0131 10.7271 16.9625 10.8738 16.8553 10.9913C16.7481 11.1088 16.5921 11.1885 16.4179 11.2148L16.2905 11.2242L8.41076 11.2254C8.25425 11.7332 7.89974 12.1831 7.40303 12.5044C6.90633 12.8256 6.29564 13 5.6671 13C5.03857 13 4.42788 12.8256 3.93117 12.5044C3.43447 12.1831 3.07995 11.7332 2.92344 11.2254L0.70953 11.2242C0.53255 11.2245 0.361862 11.1695 0.231077 11.07C0.100293 10.9706 0.0188893 10.8339 0.00289838 10.6869C-0.0130926 10.5398 0.0374874 10.3932 0.144678 10.2757C0.251868 10.1582 0.407901 10.0785 0.58205 10.0522L0.70953 10.0427H2.92344C3.08048 9.53541 3.43522 9.086 3.93188 8.76519C4.42853 8.44438 5.03894 8.27036 5.6671 8.27049ZM5.6671 9.45199C5.29144 9.45199 4.93116 9.57647 4.66552 9.79804C4.39989 10.0196 4.25065 10.3201 4.25065 10.6335C4.25065 10.9468 4.39989 11.2474 4.66552 11.4689C4.93116 11.6905 5.29144 11.815 5.6671 11.815C6.04277 11.815 6.40305 11.6905 6.66868 11.4689C6.93432 11.2474 7.08355 10.9468 7.08355 10.6335C7.08355 10.3201 6.93432 10.0196 6.66868 9.79804C6.40305 9.57647 6.04277 9.45199 5.6671 9.45199ZM11.3329 7.63739e-08C11.9611 -0.000133093 12.5715 0.173888 13.0681 0.4947C13.5648 0.815512 13.9195 1.26492 14.0766 1.77225H16.2905C16.4674 1.77198 16.6381 1.82699 16.7689 1.92644C16.8997 2.0259 16.9811 2.1626 16.9971 2.30962C17.0131 2.45664 16.9625 2.60333 16.8553 2.72079C16.7481 2.83826 16.5921 2.91799 16.4179 2.9443L16.2905 2.95375L14.0766 2.95493C13.92 3.46269 13.5655 3.91262 13.0688 4.23389C12.5721 4.55515 11.9614 4.72951 11.3329 4.72951C10.7044 4.72951 10.0937 4.55515 9.59697 4.23389C9.10026 3.91262 8.74575 3.46269 8.58924 2.95493L0.70953 2.95375C0.53255 2.95402 0.361862 2.89901 0.231077 2.79955C0.100293 2.70009 0.0188893 2.5634 0.00289838 2.41638C-0.0130926 2.26936 0.0374874 2.12267 0.144678 2.0052C0.251868 1.88774 0.407901 1.808 0.58205 1.7817L0.70953 1.77225H8.58924C8.74628 1.26492 9.10102 0.815512 9.59767 0.4947C10.0943 0.173888 10.7047 -0.000133093 11.3329 7.63739e-08ZM11.3329 1.1815C10.9572 1.1815 10.597 1.30598 10.3313 1.52755C10.0657 1.74913 9.91645 2.04964 9.91645 2.363C9.91645 2.67635 10.0657 2.97687 10.3313 3.19844C10.597 3.42002 10.9572 3.5445 11.3329 3.5445C11.7086 3.5445 12.0688 3.42002 12.3345 3.19844C12.6001 2.97687 12.7493 2.67635 12.7493 2.363C12.7493 2.04964 12.6001 1.74913 12.3345 1.52755C12.0688 1.30598 11.7086 1.1815 11.3329 1.1815Z" fill="var(--fill-0, #232F3E)"/>
</svg>
