<svg preserveAspectRatio="none" width="100%" height="100%" overflow="visible" style="display: block;" viewBox="0 0 17 18" fill="none" xmlns="http://www.w3.org/2000/svg">
<path id="Vector" fill-rule="evenodd" clip-rule="evenodd" d="M4.72222 4C4.72222 2.93913 5.12024 1.92172 5.82871 1.17157C6.53718 0.421427 7.49807 0 8.5 0C9.50193 0 10.4628 0.421427 11.1713 1.17157C11.8798 1.92172 12.2778 2.93913 12.2778 4C12.2778 5.06087 11.8798 6.07828 11.1713 6.82843C10.4628 7.57857 9.50193 8 8.5 8C7.49807 8 6.53718 7.57857 5.82871 6.82843C5.12024 6.07828 4.72222 5.06087 4.72222 4ZM4.72222 10C3.46981 10 2.2687 10.5268 1.38311 11.4645C0.497518 12.4021 0 13.6739 0 15C0 15.7956 0.298511 16.5587 0.829864 17.1213C1.36122 17.6839 2.08189 18 2.83333 18H14.1667C14.9181 18 15.6388 17.6839 16.1701 17.1213C16.7015 16.5587 17 15.7956 17 15C17 13.6739 16.5025 12.4021 15.6169 11.4645C14.7313 10.5268 13.5302 10 12.2778 10H4.72222Z" fill="var(--fill-0, #232F3E)"/>
</svg>
