<svg preserveAspectRatio="none" width="100%" height="100%" overflow="visible" style="display: block;" viewBox="0 0 19 20" fill="none" xmlns="http://www.w3.org/2000/svg">
<path id="Vector" d="M15.1667 13L18 10M18 10L15.1667 7M18 10H4.77778M11.3889 14V16.6C11.3889 16.9152 11.3303 17.2273 11.2163 17.5184C11.1024 17.8096 10.9355 18.0742 10.725 18.2971C10.5145 18.5199 10.2646 18.6967 9.98964 18.8173C9.71463 18.9379 9.41989 19 9.12222 19H3.26667C2.66551 19 2.08897 18.7471 1.66389 18.2971C1.23881 17.847 1 17.2365 1 16.6V3.4C1 3.08483 1.05863 2.77274 1.17254 2.48156C1.28645 2.19038 1.45341 1.9258 1.66389 1.70294C2.08897 1.25286 2.66551 1 3.26667 1H9.12222C9.41989 1 9.71463 1.06208 9.98964 1.18269C10.2646 1.3033 10.5145 1.48008 10.725 1.70294C10.9355 1.9258 11.1024 2.19038 11.2163 2.48156C11.3303 2.77274 11.3889 3.08483 11.3889 3.4V6" stroke="var(--stroke-0, #1D192B)" stroke-miterlimit="10" stroke-linecap="round" stroke-linejoin="round"/>
</svg>
