<svg width="14" height="8" viewBox="0 0 14 8" fill="none" xmlns="http://www.w3.org/2000/svg">
<path fill-rule="evenodd" clip-rule="evenodd" d="M7.61286 7.37629C7.42533 7.56376 7.17102 7.66907 6.90586 7.66907C6.6407 7.66907 6.38639 7.56376 6.19886 7.37629L0.541861 1.71929C0.44635 1.62704 0.370168 1.5167 0.317759 1.39469C0.26535 1.27269 0.237764 1.14147 0.23661 1.00869C0.235456 0.87591 0.260758 0.744231 0.311039 0.621335C0.36132 0.498438 0.435573 0.386786 0.529466 0.292893C0.623358 0.199 0.73501 0.124747 0.857906 0.0744663C0.980803 0.0241854 1.11248 -0.00111606 1.24526 3.77571e-05C1.37804 0.00119157 1.50926 0.0287779 1.63126 0.0811869C1.75327 0.133596 1.86361 0.209778 1.95586 0.305288L6.90586 5.25529L11.8559 0.305288C12.0445 0.12313 12.2971 0.0223355 12.5593 0.0246139C12.8215 0.0268924 13.0723 0.132061 13.2577 0.317469C13.4431 0.502877 13.5483 0.75369 13.5505 1.01589C13.5528 1.27808 13.452 1.53069 13.2699 1.71929L7.61286 7.37629Z" fill="#1D192B"/>
</svg>
